<svg width="49" height="48" viewBox="0 0 49 48" fill="none" xmlns="http://www.w3.org/2000/svg">
<rect x="0.5" width="48" height="48" rx="24" fill="white"/>
<g clip-path="url(#clip0_1999_12994)">
<path fill-rule="evenodd" clip-rule="evenodd" d="M24.0916 19.928C24.9373 19.928 25.6225 20.6132 25.6225 21.4589C25.6225 22.3047 24.9373 22.9898 24.0916 22.9898C23.2458 22.9898 22.5607 22.3047 22.5607 21.4589C22.5607 20.6132 23.2458 19.928 24.0916 19.928ZM27.6908 21.8497C28.4055 21.8497 28.9855 22.4289 28.9855 23.1444C28.9855 23.8599 28.4064 24.4391 27.6908 24.4391C26.9753 24.4391 26.3961 23.8599 26.3961 23.1444C26.3961 22.4289 26.9753 21.8497 27.6908 21.8497ZM24.1984 23.7279H24.3703L24.438 23.7305L24.5075 23.7348L24.5726 23.7435L24.6404 23.7522L24.7038 23.7678L24.7689 23.7835L24.8297 23.8008L24.8904 23.8225L24.9512 23.846L25.0077 23.872L25.0641 23.9007L25.118 23.9311L25.1701 23.9658L25.2204 24.0005L25.2708 24.0379L25.3168 24.077L25.3628 24.1178L25.4045 24.1595L25.4453 24.2055L25.4827 24.2515L25.5174 24.2993L25.5504 24.3496L25.5782 24.4L25.6068 24.4521L25.6303 24.5068L25.652 24.5615L25.6693 24.6179L25.685 24.6744L25.6963 24.7308L25.7049 24.789L25.711 24.8498V24.9106L25.7058 32.6275C24.7081 32.8229 23.7234 32.8446 22.7526 32.6752L22.7213 24.9106L22.7239 24.8498L22.7309 24.789L22.7422 24.7308L22.7552 24.6744L22.7743 24.6179L22.796 24.5615L22.8203 24.5068L22.8507 24.4521L22.8811 24.4L22.9185 24.3496L22.9558 24.2993L22.9975 24.2515L23.0409 24.2055L23.0869 24.1595L23.1364 24.1178L23.1868 24.077L23.2415 24.0379L23.2962 24.0005L23.3526 23.9632L23.4134 23.9311L23.4725 23.9007L23.535 23.872L23.5984 23.846L23.6635 23.8225L23.7286 23.8008L23.7937 23.7835L23.8615 23.7661L23.9309 23.7531L23.9978 23.7444L24.0673 23.7357L24.1341 23.7314L24.2036 23.7288L24.1984 23.7279ZM19.6136 28.6114L19.6188 26.4458C19.6188 24.9149 22.0683 24.8237 22.1257 26.4458L22.1109 32.5658C17.6077 31.4969 14.816 27.2429 15.3978 22.4488C16.181 18.0368 19.4955 14.9481 24.0308 14.837C28.7328 14.9516 32.1402 18.2886 32.7203 22.8969C32.9165 25.6243 32.2236 27.7804 30.4912 29.8419C29.2764 31.1574 28.0356 31.9667 26.3119 32.4747L26.3024 26.6985C26.3605 25.1164 28.7511 25.1138 28.8093 26.6985L28.8153 28.2676C30.2655 26.7471 30.8681 24.9757 30.7074 22.8865C30.2698 19.4991 27.7829 17.1294 24.3747 16.8671L24.0291 16.8585C20.5965 16.9462 18.0193 19.1839 17.395 22.5504C17.1327 24.6883 17.6511 26.438 19.0231 28.0218C19.2054 28.232 19.4017 28.4317 19.6127 28.614L19.6136 28.6114ZM12.1893 16.2011L22.2924 8.74731C23.6887 7.75307 24.6985 7.74873 26.1 8.74731L36.2023 16.202L36.5913 16.4903C37.5838 17.2249 38.1352 17.884 38.2507 19.0875C38.262 19.2021 38.2663 19.3106 38.2681 19.4244C38.2985 22.4992 38.2985 25.5002 38.2681 28.5758C38.2663 28.6904 38.2611 28.799 38.2507 28.9127C38.1352 30.1162 37.5838 30.7753 36.5913 31.5099L26.1 39.252C24.6985 40.2506 23.6887 40.2472 22.2924 39.252L11.8011 31.5099C10.8086 30.7753 10.2572 30.1162 10.1417 28.9127C10.1304 28.7981 10.1261 28.6896 10.1244 28.5758C10.094 25.501 10.094 22.5001 10.1244 19.4244C10.1261 19.3098 10.1313 19.2012 10.1417 19.0875C10.2572 17.884 10.8086 17.2249 11.8011 16.4903L12.1901 16.202L12.1893 16.2011ZM22.7396 12.3318L14.1977 18.6533C12.9508 19.6102 12.2058 20.5289 11.6674 22.0138C11.4781 22.6494 11.3999 23.0862 11.3591 23.747C11.36 23.9163 11.36 24.0822 11.3591 24.2524C11.4008 24.914 11.479 25.3508 11.6674 25.9856C12.2058 27.4704 12.9508 28.3891 14.1977 29.346L22.7396 35.6675C23.7703 36.4247 24.6221 36.4239 25.652 35.6675L34.1938 29.346C35.4408 28.3891 36.1858 27.4704 36.7242 25.9856C36.9135 25.3499 36.9916 24.9132 37.0324 24.2524C37.0324 24.0822 37.0316 23.9163 37.0324 23.747C36.9907 23.0853 36.9126 22.6485 36.7242 22.0138C36.1858 20.5289 35.4408 19.6102 34.1938 18.6533L25.652 12.3318C24.6221 11.5755 23.7703 11.5746 22.7387 12.3318H22.7396ZM20.7259 21.8497C21.4405 21.8497 22.0206 22.4289 22.0206 23.1444C22.0206 23.8599 21.4414 24.4391 20.7259 24.4391C20.0104 24.4391 19.4312 23.8599 19.4312 23.1444C19.4312 22.4289 20.0104 21.8497 20.7259 21.8497Z" fill="#2E3192"/>
</g>
<defs>
<clipPath id="clip0_1999_12994">
<rect width="32" height="32" fill="white" transform="translate(8.5 8)"/>
</clipPath>
</defs>
</svg>
