<svg width="49" height="48" viewBox="0 0 49 48" fill="none" xmlns="http://www.w3.org/2000/svg">
<rect x="0.5" width="48" height="48" rx="24" fill="white"/>
<g clip-path="url(#clip0_1951_3272)">
<path fill-rule="evenodd" clip-rule="evenodd" d="M23.9994 17.6487C27.4684 17.6487 30.2804 20.4608 30.2804 23.9297C30.2804 27.3986 27.4684 30.2107 23.9994 30.2107C20.5305 30.2107 17.7184 27.3986 17.7184 23.9297C17.7184 20.4608 20.5305 17.6487 23.9994 17.6487ZM36.7965 23.1896V24.9252H39.5411L39.5996 34.0205L33.9867 34.0564V39.468L24.9702 39.4353V36.7077C24.3043 36.7077 23.6384 36.702 22.9736 36.6987V39.423H13.8749L13.8626 33.8956H8.41168L8.39369 24.8498H11.2024V23.1142H8.41956L8.39256 13.8412L14.0054 13.8052V8.39256L23.022 8.40606V11.154L25.0185 11.163V8.43755H34.0767L34.07 13.9649H39.5399L39.6052 23.1896H36.7965ZM37.188 23.581V24.5337H39.9303L39.9933 34.4085L34.377 34.4445V39.8594L24.5776 39.8234V37.0968C24.1727 37.0968 23.7677 37.0935 23.3639 37.0912V39.8133H13.4846L13.4722 34.2859H8.02137L8.00225 24.4561H10.812V23.5034H8.02925L8 13.4498L13.614 13.4138V8L23.4134 8.01462V10.7637L24.6271 10.7693V8.04612H34.4681L34.4614 13.5735H39.928L39.9989 23.581H37.1868H37.188ZM23.9994 23.058C24.4809 23.058 24.8712 23.4483 24.8712 23.9297C24.8712 24.4111 24.4809 24.8014 23.9994 24.8014C23.518 24.8014 23.1277 24.4111 23.1277 23.9297C23.1277 23.4483 23.518 23.058 23.9994 23.058ZM23.9994 22.5079C24.7846 22.5079 25.4212 23.1446 25.4212 23.9297C25.4212 24.7148 24.7846 25.3515 23.9994 25.3515C23.2143 25.3515 22.5777 24.7148 22.5777 23.9297C22.5777 23.1446 23.2143 22.5079 23.9994 22.5079ZM25.3717 22.581L25.2637 22.4866C25.0736 22.3201 24.8521 22.1919 24.6125 22.1109L24.4775 22.0659L24.3369 22.0411C24.2255 22.0209 24.1119 22.0119 23.9983 22.0119C23.8588 22.0119 23.7205 22.0265 23.5844 22.0569L23.4562 22.085L23.3347 22.13C23.0973 22.2177 22.8802 22.3516 22.6946 22.5237L22.6035 22.608L22.5248 22.7025C22.3628 22.8971 22.2402 23.121 22.166 23.3628L22.1289 23.482L22.1075 23.608C22.0895 23.7149 22.0805 23.8228 22.0805 23.9308C22.0805 24.0748 22.0962 24.2188 22.1289 24.3594L22.1525 24.4606L22.1874 24.5596C22.2706 24.7981 22.3999 25.0185 22.5687 25.2075L22.6407 25.2874L22.7205 25.3593C22.9084 25.5281 23.1288 25.6585 23.3673 25.7418L23.4786 25.7812L23.5956 25.8059C23.7284 25.834 23.8645 25.8486 24.0006 25.8486C24.1175 25.8486 24.2334 25.8385 24.3493 25.8171L24.4584 25.7969L24.5641 25.7643C24.8059 25.69 25.0309 25.5686 25.2255 25.4066L25.3121 25.3346L25.3897 25.2536C25.5641 25.0703 25.7013 24.8543 25.7924 24.6181L25.843 24.4876L25.8734 24.3538C25.9049 24.2143 25.9206 24.0714 25.9206 23.9286C25.9206 23.8195 25.9116 23.7092 25.8925 23.6013L25.87 23.4708L25.8306 23.3459C25.7542 23.1052 25.6293 22.8814 25.4662 22.6879L25.374 22.5788L25.3717 22.581ZM27.3694 20.5845C27.402 20.5687 27.4358 20.5541 27.4706 20.5417C28.5898 20.1143 29.6213 21.7296 28.844 22.6002C28.7923 22.6587 28.7349 22.7126 28.6742 22.761C28.6854 22.7621 28.6967 22.7644 28.7079 22.7666C29.8879 22.9657 29.9689 24.8779 28.8497 25.2379C28.7597 25.2671 28.6686 25.2862 28.5752 25.2964C28.5966 25.3121 28.6168 25.329 28.6371 25.347C28.7822 25.4707 28.889 25.6271 28.9498 25.807C29.2388 26.6619 28.4222 27.7563 27.4909 27.5404C27.4515 27.5314 27.4133 27.5212 27.3761 27.5089C27.4211 27.6641 27.429 27.8283 27.3998 27.988C27.2344 28.8755 25.987 29.4301 25.2795 28.7867C25.2525 28.7619 25.2255 28.7361 25.1996 28.7091C24.9387 29.8114 23.1108 29.8834 22.7475 28.7945C22.7306 28.7439 22.7171 28.6933 22.7059 28.6416C22.5912 28.7754 22.4461 28.8767 22.2807 28.9385C21.9185 29.0746 21.5068 29.0049 21.1761 28.8193C20.7183 28.5628 20.3955 28.0735 20.5012 27.5359C20.5069 27.5055 20.5147 27.4751 20.5226 27.4459C19.4495 27.7755 18.4586 26.2581 19.192 25.3897C19.2088 25.3695 19.2268 25.3492 19.2448 25.3301C18.1605 25.0905 18.0221 23.2964 19.084 22.8892C19.147 22.8656 19.2122 22.8454 19.2774 22.8307C19.2774 22.8307 19.2763 22.8296 19.2752 22.8285C19.1222 22.7149 19.0052 22.5664 18.9321 22.3909C18.7836 22.0333 18.8388 21.6204 19.012 21.283C19.2527 20.8151 19.7285 20.4754 20.2707 20.5631C20.3314 20.5732 20.3899 20.5867 20.4484 20.6036C19.9906 19.5103 21.5462 18.4192 22.4483 19.1515C22.5079 19.1998 22.5642 19.2538 22.6148 19.3112C22.6148 19.3011 22.617 19.2898 22.6182 19.2797C22.7621 18.0919 24.6687 17.922 25.0793 19.0232C25.1153 19.12 25.1411 19.2201 25.1546 19.3213C25.1749 19.2921 25.1951 19.2628 25.2176 19.2347C25.3346 19.0851 25.4865 18.9715 25.6642 18.9029C26.0252 18.7634 26.4369 18.8286 26.7699 19.0109C27.231 19.2628 27.5584 19.7476 27.4571 20.2864C27.438 20.3888 27.4076 20.4889 27.3671 20.5834L27.3694 20.5845ZM24.4167 21.5991C24.5472 20.8196 24.6642 20.0547 24.7148 19.571C24.7294 19.4315 24.7036 19.2977 24.6597 19.1807C24.4111 18.5148 23.1502 18.6149 23.0636 19.3337C23.0501 19.4417 23.0546 19.5598 23.0793 19.6835C23.2064 20.3247 23.3459 20.9759 23.4876 21.6182C23.6519 21.5822 23.8228 21.5631 23.9983 21.5631C24.14 21.5631 24.2795 21.5755 24.4145 21.5991H24.4167ZM23.1794 21.7082C22.8971 20.9703 22.6114 20.2504 22.4101 19.8072C22.3516 19.679 22.2627 19.5778 22.166 19.4979C21.6137 19.0491 20.5777 19.7735 20.8668 20.4371C20.9107 20.5372 20.9748 20.6374 21.0569 20.7307C21.4911 21.22 21.9421 21.7104 22.3898 22.193C22.6159 21.9826 22.8836 21.8162 23.1794 21.7071V21.7082ZM22.1817 22.4146C21.5687 21.9151 20.9613 21.4348 20.5665 21.1514C20.4529 21.0693 20.3235 21.0254 20.2009 21.0063C19.499 20.8927 18.9625 22.0378 19.544 22.4686C19.6318 22.5338 19.7364 22.5878 19.8556 22.6283C20.4765 22.8352 21.1109 23.0355 21.7397 23.2301C21.833 22.9286 21.9849 22.6519 22.1829 22.4157L22.1817 22.4146ZM21.6666 23.5315C20.8859 23.4078 20.1188 23.2964 19.6351 23.2503C19.4957 23.2368 19.3618 23.2638 19.2459 23.3077C18.5823 23.5619 18.6925 24.8217 19.4124 24.9027C19.5204 24.915 19.6396 24.9094 19.7622 24.8835C20.4023 24.7519 21.0524 24.6057 21.6936 24.4584C21.6542 24.2885 21.6339 24.1108 21.6339 23.9297C21.6339 23.7936 21.6452 23.6609 21.6677 23.5315H21.6666ZM21.7633 24.7069C21.0198 24.9747 20.2954 25.2469 19.8489 25.4403C19.7206 25.4954 19.616 25.5832 19.535 25.6788C19.0761 26.2221 19.7802 27.2715 20.4495 26.996C20.5507 26.9543 20.6508 26.8925 20.7465 26.8115C21.2436 26.3863 21.743 25.9454 22.2335 25.5078C22.0276 25.2772 21.8668 25.0061 21.7633 24.7081V24.7069ZM22.4202 25.6923C21.9005 26.2873 21.3977 26.8767 21.1008 27.2614C21.0153 27.3728 20.9669 27.4999 20.9422 27.6225C20.8038 28.3199 21.9286 28.8969 22.3808 28.3311C22.4483 28.2456 22.5068 28.1433 22.5507 28.0252C22.7801 27.4133 23.0017 26.7856 23.2188 26.1647C22.9207 26.0601 22.6508 25.8993 22.4202 25.6923ZM23.5011 26.2435C23.3437 27.0173 23.1997 27.7777 23.1322 28.2591C23.1131 28.3986 23.1333 28.5325 23.1727 28.6506C23.3977 29.3243 24.6608 29.2692 24.7733 28.5538C24.7902 28.4458 24.7902 28.3277 24.7699 28.204C24.6653 27.5584 24.5483 26.9037 24.4291 26.257C24.2896 26.2828 24.1468 26.2963 23.9994 26.2963C23.8285 26.2963 23.662 26.2783 23.5011 26.2435ZM24.6935 26.1928C24.9342 26.9453 25.1794 27.6787 25.3548 28.132C25.4055 28.2625 25.4898 28.3694 25.5821 28.4537C26.1073 28.9318 27.1827 28.267 26.9318 27.5887C26.8936 27.4864 26.8362 27.3829 26.7575 27.285C26.3514 26.7721 25.9296 26.2581 25.5101 25.7519C25.2727 25.9488 24.996 26.1006 24.6935 26.1928ZM25.7125 25.5641C26.2896 26.1028 26.8632 26.6236 27.2378 26.933C27.3458 27.0218 27.4718 27.0747 27.5932 27.1028C28.2861 27.2637 28.898 26.1568 28.3469 25.6878C28.2636 25.6169 28.1624 25.5551 28.0465 25.5078C27.4425 25.2592 26.8227 25.0174 26.2086 24.7801C26.095 25.0736 25.9251 25.3402 25.7114 25.5641H25.7125ZM26.3087 24.4539C27.0803 24.6203 27.8396 24.7733 28.3199 24.8464C28.4582 24.8678 28.5932 24.8487 28.7124 24.8104C29.3896 24.5933 29.348 23.329 28.6337 23.2087C28.5257 23.1907 28.4076 23.1896 28.2839 23.2087C27.6371 23.3054 26.9813 23.4157 26.3323 23.527C26.3548 23.6575 26.3672 23.7925 26.3672 23.9297C26.3672 24.1097 26.3469 24.2851 26.3087 24.4539ZM26.2558 23.2121C27.0061 22.9646 27.7372 22.7115 28.1883 22.5315C28.3187 22.4798 28.4245 22.3943 28.5077 22.301C28.9813 21.77 28.3052 20.7015 27.6292 20.9602C27.5269 20.9984 27.4245 21.058 27.3278 21.1368C26.8194 21.5485 26.3087 21.9748 25.8059 22.3999C26.005 22.635 26.1602 22.9106 26.2558 23.2121ZM25.5596 22.1491C26.0736 21.5496 26.5697 20.9545 26.8632 20.5665C26.9476 20.4551 26.9948 20.3269 27.0185 20.2043C27.1489 19.5058 26.0185 18.94 25.5731 19.5103C25.5056 19.5958 25.4482 19.7004 25.4066 19.8174C25.1839 20.4326 24.9679 21.0614 24.7576 21.6846C25.0568 21.7858 25.329 21.9444 25.5607 22.148L25.5596 22.1491ZM38.7582 27.7788H34.007V25.1119H31.2365V23.0535H36.0136V25.7069H38.7582V27.7777V27.7788ZM38.8234 20.2583H31.2242V22.4067H38.8234V20.2583ZM9.2418 20.2583H13.993V22.9252H16.7635V24.9837H11.9864V22.3302H9.2418V20.2594V20.2583ZM9.17769 27.7788H16.777V25.6304H9.17769V27.7788ZM16.7162 35.8809H14.6454V33.1105H9.23393V28.3986H16.7162V30.2883H11.3317V31.2467H16.7174V35.8809H16.7162ZM19.5125 33.1453H22.1637V31.2163H17.4417V36.6953H14.6972V38.6367H19.5125V33.1442V33.1453ZM24.96 35.9225V31.2107H22.8375V34.007H20.2223V38.639H22.1896V35.9124C23.1108 35.9124 24.0287 35.9225 24.96 35.9225ZM27.798 38.5917H25.753V31.2028H27.798V38.5917ZM35.9731 31.2005V33.2713H33.2027V38.6828H28.4908V31.2005H30.3805V36.5862H31.3389V31.2005H35.9731ZM33.1667 28.3817V25.5742H31.2377V30.4525H36.7167V33.1971H38.8156V28.3817H33.1667ZM31.2748 11.9774H33.3456V14.7478H38.7571V19.4597H31.2748V17.57H36.6604V16.6116H31.2748V11.9774ZM28.4785 14.7129H25.8273V16.642H30.5493V11.1619H33.2938V9.22043H28.4785V14.7129ZM23.0321 11.9357V16.6476H25.1546V13.8513H27.7698V9.22043H25.8025V11.947C24.8813 11.947 23.9634 11.9369 23.0321 11.9369V11.9357ZM20.1942 9.26655H22.2391V16.6555H20.1942V9.26655ZM12.0179 16.6577V14.5869H14.7883V9.17431H19.5002V16.6566H17.6105V11.2721H16.6521V16.6577H12.0179ZM14.8243 19.4765V22.2841H16.7533V17.4057H11.2744V14.6612H9.17544V19.4765H14.8243Z" fill="#005F27"/>
</g>
<defs>
<clipPath id="clip0_1951_3272">
<rect width="32" height="32" fill="white" transform="translate(8 8)"/>
</clipPath>
</defs>
</svg>
