<svg width="32" height="32" viewBox="0 0 32 32" fill="none" xmlns="http://www.w3.org/2000/svg">
<rect width="32" height="32" rx="4" fill="#3F51B5"/>
<path d="M12 13.5H16M12 17H19M16 25C20.9706 25 25 20.9706 25 16C25 11.0294 20.9706 7 16 7C11.0294 7 7 11.0294 7 16C7 17.1971 7.23374 18.3397 7.65806 19.3845C7.73927 19.5845 7.77988 19.6845 7.798 19.7653C7.81572 19.8443 7.8222 19.9028 7.82221 19.9839C7.82222 20.0667 7.80718 20.1569 7.77711 20.3374L7.18413 23.8952C7.12203 24.2678 7.09098 24.4541 7.14876 24.5888C7.19933 24.7067 7.29328 24.8007 7.41118 24.8512C7.54589 24.909 7.73218 24.878 8.10476 24.8159L11.6627 24.2229C11.8431 24.1928 11.9333 24.1778 12.0161 24.1778C12.0972 24.1778 12.1557 24.1843 12.2347 24.202C12.3155 24.2201 12.4155 24.2607 12.6155 24.3419C13.6603 24.7663 14.8029 25 16 25Z" stroke="white" stroke-width="1.125" stroke-linecap="round" stroke-linejoin="round"/>
</svg>
