<svg width="24" height="24" viewBox="0 0 24 24" fill="none" xmlns="http://www.w3.org/2000/svg">
<rect width="24" height="24" rx="12" fill="#F0EBF8"/>
<path d="M12 18L11.9333 17.8999C11.4702 17.2053 11.2387 16.858 10.9328 16.6065C10.6619 16.3839 10.3499 16.2169 10.0144 16.1151C9.63554 16 9.21811 16 8.38326 16H7.46671C6.71997 16 6.3466 16 6.06139 15.8547C5.8105 15.7268 5.60653 15.5229 5.4787 15.272C5.33337 14.9868 5.33337 14.6134 5.33337 13.8667V8.13333C5.33337 7.3866 5.33337 7.01323 5.4787 6.72801C5.60653 6.47713 5.8105 6.27316 6.06139 6.14532C6.3466 6 6.71997 6 7.46671 6H7.73337C9.22685 6 9.97358 6 10.544 6.29065C11.0458 6.54631 11.4537 6.95426 11.7094 7.45603C12 8.02646 12 8.77319 12 10.2667M12 18V10.2667M12 18L12.0667 17.8999C12.5298 17.2053 12.7614 16.858 13.0673 16.6065C13.3381 16.3839 13.6502 16.2169 13.9856 16.1151C14.3645 16 14.782 16 15.6168 16H16.5334C17.2801 16 17.6535 16 17.9387 15.8547C18.1896 15.7268 18.3936 15.5229 18.5214 15.272C18.6667 14.9868 18.6667 14.6134 18.6667 13.8667V8.13333C18.6667 7.3866 18.6667 7.01323 18.5214 6.72801C18.3936 6.47713 18.1896 6.27316 17.9387 6.14532C17.6535 6 17.2801 6 16.5334 6H16.2667C14.7732 6 14.0265 6 13.4561 6.29065C12.9543 6.54631 12.5464 6.95426 12.2907 7.45603C12 8.02646 12 8.77319 12 10.2667" stroke="#5D34A5" stroke-width="1.5" stroke-linecap="round" stroke-linejoin="round"/>
</svg>
