<svg width="24" height="24" viewBox="0 0 24 24" fill="none" xmlns="http://www.w3.org/2000/svg">
<rect width="24" height="24" rx="12" fill="#F0EBF8"/>
<path d="M18 16V12C18 8.68629 15.3137 6 12 6C8.68629 6 6 8.68629 6 12V16M7.66667 18C6.74619 18 6 17.2538 6 16.3333V15C6 14.0795 6.74619 13.3333 7.66667 13.3333C8.58714 13.3333 9.33333 14.0795 9.33333 15V16.3333C9.33333 17.2538 8.58714 18 7.66667 18ZM16.3333 18C15.4129 18 14.6667 17.2538 14.6667 16.3333V15C14.6667 14.0795 15.4129 13.3333 16.3333 13.3333C17.2538 13.3333 18 14.0795 18 15V16.3333C18 17.2538 17.2538 18 16.3333 18Z" stroke="#5D34A5" stroke-width="1.5" stroke-linecap="round" stroke-linejoin="round"/>
</svg>
