<svg width="24" height="24" viewBox="0 0 24 24" fill="none" xmlns="http://www.w3.org/2000/svg">
<rect width="24" height="24" rx="12" fill="#F0EBF8"/>
<path d="M15.3334 18L12 15.3333L8.66671 18M8.53337 15.3333H15.4667C16.5868 15.3333 17.1469 15.3333 17.5747 15.1153C17.951 14.9236 18.257 14.6176 18.4487 14.2413C18.6667 13.8135 18.6667 13.2534 18.6667 12.1333V9.2C18.6667 8.0799 18.6667 7.51984 18.4487 7.09202C18.257 6.71569 17.951 6.40973 17.5747 6.21799C17.1469 6 16.5868 6 15.4667 6H8.53337C7.41327 6 6.85322 6 6.42539 6.21799C6.04907 6.40973 5.74311 6.71569 5.55136 7.09202C5.33337 7.51984 5.33337 8.0799 5.33337 9.2V12.1333C5.33337 13.2534 5.33337 13.8135 5.55136 14.2413C5.74311 14.6176 6.04907 14.9236 6.42539 15.1153C6.85322 15.3333 7.41327 15.3333 8.53337 15.3333Z" stroke="#5D34A5" stroke-width="1.5" stroke-linecap="round" stroke-linejoin="round"/>
</svg>
