<svg width="24" height="24" viewBox="0 0 24 24" fill="none" xmlns="http://www.w3.org/2000/svg">
<rect width="24" height="24" rx="12" fill="#ECEEF8"/>
<path d="M17.6666 8.85221L12 12.0004M12 12.0004L6.33331 8.85221M12 12.0004L12 18.3337M18 14.7061V9.29468C18 9.06625 18 8.95204 17.9663 8.85017C17.9366 8.76005 17.8879 8.67733 17.8236 8.60754C17.7509 8.52865 17.651 8.47318 17.4514 8.36224L12.518 5.6215C12.329 5.51646 12.2344 5.46395 12.1343 5.44336C12.0457 5.42513 11.9543 5.42513 11.8657 5.44336C11.7656 5.46395 11.6711 5.51646 11.482 5.6215L6.54865 8.36225C6.34896 8.47318 6.24912 8.52865 6.17642 8.60754C6.11211 8.67733 6.06343 8.76005 6.03366 8.85017C6 8.95204 6 9.06625 6 9.29468V14.7061C6 14.9345 6 15.0487 6.03366 15.1506C6.06343 15.2407 6.11211 15.3234 6.17642 15.3932C6.24912 15.4721 6.34897 15.5276 6.54865 15.6385L11.482 18.3793C11.6711 18.4843 11.7656 18.5368 11.8657 18.5574C11.9543 18.5756 12.0457 18.5756 12.1343 18.5574C12.2344 18.5368 12.329 18.4843 12.518 18.3793L17.4514 15.6385C17.651 15.5276 17.7509 15.4721 17.8236 15.3932C17.8879 15.3234 17.9366 15.2407 17.9663 15.1506C18 15.0487 18 14.9345 18 14.7061Z" stroke="#5D34A5" stroke-width="1.5" stroke-linecap="round" stroke-linejoin="round"/>
<path d="M15 10.3333L9 7" stroke="#5D34A5" stroke-width="1.5" stroke-linecap="round" stroke-linejoin="round"/>
</svg>
