<svg width="33" height="32" viewBox="0 0 33 32" fill="none" xmlns="http://www.w3.org/2000/svg">
<rect width="33" height="32" rx="8" fill="#F5F5F5"/>
<path d="M16.9999 19C13.8298 19 11.0106 20.5306 9.21585 22.906C8.82956 23.4172 8.63641 23.6728 8.64273 24.0183C8.64761 24.2852 8.81521 24.6219 9.02522 24.7867C9.29704 25 9.67372 25 10.4271 25H23.5726C24.326 25 24.7027 25 24.9745 24.7867C25.1845 24.6219 25.3521 24.2852 25.357 24.0183C25.3633 23.6728 25.1701 23.4172 24.7839 22.906C22.9891 20.5306 20.1699 19 16.9999 19Z" stroke="#909090" stroke-width="1.125" stroke-linecap="round" stroke-linejoin="round"/>
<path d="M16.9999 16C19.4851 16 21.4999 13.9853 21.4999 11.5C21.4999 9.01472 19.4851 7 16.9999 7C14.5146 7 12.4999 9.01472 12.4999 11.5C12.4999 13.9853 14.5146 16 16.9999 16Z" stroke="#909090" stroke-width="1.125" stroke-linecap="round" stroke-linejoin="round"/>
</svg>
