<svg width="24" height="24" viewBox="0 0 24 24" fill="none" xmlns="http://www.w3.org/2000/svg">
<g clip-path="url(#clip0_2789_19966)">
<path d="M16.56 23.0943C20.928 21.3009 24 17.0064 24 11.9982C24 11.9622 24 11.9262 24 11.8902C24 11.8183 24 11.7523 24 11.6803C23.976 10.8526 23.874 10.0309 23.682 9.22118C22.866 5.69441 20.382 2.63548 17.082 1.11202C15.744 0.494233 14.346 0.0863741 12.864 0.032393C12.786 0.032393 12.702 0.0263925 12.624 0.0203946C12.504 0.0143967 12.384 0.00840542 12.264 0.00840542C11.832 -0.00359037 11.4 -0.00359514 10.968 0.050386C9.81 0.146352 8.7 0.410262 7.662 0.812122C7.62 0.830115 7.572 0.842112 7.53 0.860106C7.2 0.980064 6.882 1.13601 6.564 1.29196C6.048 1.54987 5.55 1.82577 5.088 2.16165C4.956 2.25762 4.986 2.26361 4.842 2.16165C4.266 1.7298 3.684 1.30395 3.096 0.896092C2.706 0.626186 2.316 0.356275 1.884 0.140351C1.344 -0.123557 0.726 -0.0095934 0.33 0.434251C0.0960001 0.698159 0 1.00406 0 1.35793C0 3.22928 0 5.10062 0 6.97197C0 8.62739 0 10.2828 0 11.9382C0 11.9562 0 11.9742 0 11.9982C0 12.0162 0 12.0342 0 12.0522C0 12.1242 0 12.1901 0 12.2621C0 12.2801 0 12.2921 0 12.3101C0.018 13.1438 0.12 13.9655 0.312 14.7752C1.338 19.0937 4.632 22.4885 8.928 23.6281C9.762 23.85 10.608 23.994 11.472 24C12.144 24 12.81 24 13.476 23.916C13.998 23.8501 14.514 23.7541 15.018 23.6221C15.492 23.5022 15.948 23.3462 16.398 23.1663C16.44 23.1483 16.488 23.1303 16.53 23.1123C16.542 23.1123 16.548 23.1063 16.56 23.1003V23.0943Z" fill="#00B894"/>
<path d="M19.5321 8.60521C19.5321 9.00721 19.2861 9.56521 18.8181 10.0332C17.8521 10.9932 16.8921 11.9532 15.9321 12.9132C14.5881 14.2572 13.2381 15.5952 11.8941 16.9392C11.4141 17.4192 10.8381 17.6532 10.1601 17.6232C9.56012 17.5992 9.02612 17.3772 8.60012 16.9512C7.35212 15.7092 6.11012 14.4612 4.88012 13.2012C3.72812 12.0192 4.10012 10.0872 5.58812 9.42121C6.46412 9.03121 7.49612 9.2172 8.18012 9.8952C8.82812 10.5372 9.47612 11.1852 10.1181 11.8332C10.1481 11.8632 10.1781 11.8932 10.2081 11.9232C10.2441 11.9592 10.2741 11.9712 10.3161 11.9232C10.3521 11.8872 10.3881 11.8572 10.4181 11.8212C12.1221 10.1172 13.8201 8.4132 15.5241 6.7092C15.9741 6.2592 16.5081 6.01921 17.1381 6.00121C18.4701 5.95921 19.5381 7.01521 19.5321 8.59921V8.60521Z" fill="white"/>
</g>
<defs>
<clipPath id="clip0_2789_19966">
<rect width="24" height="24" fill="white"/>
</clipPath>
</defs>
</svg>
