<svg width="48" height="48" viewBox="0 0 48 48" fill="none" xmlns="http://www.w3.org/2000/svg">
<path d="M19.9974 40H27.9975C35.5399 40 39.3111 40 41.6543 37.6568C43.9975 35.3138 43.9975 31.5424 43.9975 24C43.9975 23.1162 43.9941 20.784 43.9903 20H3.99791C3.99413 20.784 3.99743 23.1162 3.99743 24C3.99743 31.5424 3.99743 35.3138 6.34057 37.6568C8.68373 40 12.4549 40 19.9974 40Z" fill="white"/>
<path d="M19.9897 8H28.0104C35.5722 8 39.3532 8 41.7024 10.2316C43.3938 11.8383 43.8674 14.1501 44 18V20H4V18C4.1326 14.1501 4.6062 11.8383 6.29762 10.2316C8.6468 8 12.4278 8 19.9897 8Z" fill="#233087"/>
<path d="M25 30.5C24.1716 30.5 23.5 31.1716 23.5 32C23.5 32.8284 24.1716 33.5 25 33.5H28C28.8284 33.5 29.5 32.8284 29.5 32C29.5 31.1716 28.8284 30.5 28 30.5H25Z" fill="#233087"/>
<path d="M12 30.5C11.1716 30.5 10.5 31.1716 10.5 32C10.5 32.8284 11.1716 33.5 12 33.5H20C20.8284 33.5 21.5 32.8284 21.5 32C21.5 31.1716 20.8284 30.5 20 30.5H12Z" fill="#233087"/>
</svg>
