<svg width="40" height="40" viewBox="0 0 40 40" fill="none" xmlns="http://www.w3.org/2000/svg">
<rect width="40" height="40" rx="20" fill="#ECEEF8"/>
<path d="M20 29L19.8999 28.8499C19.2053 27.808 18.858 27.287 18.3991 26.9098C17.9929 26.5759 17.5248 26.3254 17.0216 26.1726C16.4533 26 15.8271 26 14.5748 26H13.2C12.0799 26 11.5198 26 11.092 25.782C10.7157 25.5903 10.4097 25.2843 10.218 24.908C10 24.4802 10 23.9201 10 22.8V14.2C10 13.0799 10 12.5198 10.218 12.092C10.4097 11.7157 10.7157 11.4097 11.092 11.218C11.5198 11 12.0799 11 13.2 11H13.6C15.8402 11 16.9603 11 17.816 11.436C18.5686 11.8195 19.1805 12.4314 19.564 13.184C20 14.0397 20 15.1598 20 17.4M20 29V17.4M20 29L20.1001 28.8499C20.7947 27.808 21.142 27.287 21.6009 26.9098C22.0071 26.5759 22.4752 26.3254 22.9784 26.1726C23.5467 26 24.1729 26 25.4252 26H26.8C27.9201 26 28.4802 26 28.908 25.782C29.2843 25.5903 29.5903 25.2843 29.782 24.908C30 24.4802 30 23.9201 30 22.8V14.2C30 13.0799 30 12.5198 29.782 12.092C29.5903 11.7157 29.2843 11.4097 28.908 11.218C28.4802 11 27.9201 11 26.8 11H26.4C24.1598 11 23.0397 11 22.184 11.436C21.4314 11.8195 20.8195 12.4314 20.436 13.184C20 14.0397 20 15.1598 20 17.4" stroke="#3F51B5" stroke-width="1.5" stroke-linecap="round" stroke-linejoin="round"/>
</svg>
