<svg width="44" height="40" viewBox="0 0 44 40" fill="none" xmlns="http://www.w3.org/2000/svg">
<path d="M32.7236 39.1104C32.7321 39.1058 32.7409 39.1023 32.7493 39.0974C32.753 39.0953 32.7562 39.0929 32.7598 39.0908C33.2208 38.8223 33.6017 38.4356 33.8634 37.9708L43.1446 21.4708C43.3956 21.0212 43.5273 20.5149 43.5273 20C43.5273 19.4851 43.3956 18.9788 43.1446 18.5292L33.8634 2.0292C33.6007 1.56271 33.2179 1.17505 32.7548 0.906499C32.7497 0.903569 32.7452 0.900183 32.7401 0.897344C32.7319 0.892767 32.7234 0.889469 32.7152 0.885076C32.2674 0.633119 31.7624 0.500516 31.2486 0.499999L12.7531 0.499999C12.2209 0.500392 11.6983 0.642191 11.2389 0.910885C10.7795 1.17958 10.3997 1.56552 10.1384 2.0292L0.857135 18.5293C0.624408 18.9454 0.494414 19.4111 0.477969 19.8877C0.475452 19.9212 0.472247 19.9546 0.471969 19.9887C0.471877 19.9932 0.471877 19.9977 0.471877 20.0022C0.471877 20.0493 0.47462 20.0958 0.478877 20.1418C0.499637 20.6082 0.629172 21.0633 0.857131 21.4708L10.1384 37.9708C10.3997 38.4345 10.7795 38.8204 11.2389 39.0891C11.6983 39.3578 12.2209 39.4996 12.7531 39.5L31.2486 39.5C31.7656 39.4995 32.2737 39.3653 32.7236 39.1104ZM23.7219 20.1707L32.1323 5.07105L40.5299 20L32.1194 34.9519L23.7219 20.1707ZM12.7531 36.5L4.3284 21.5227L21.1236 21.6703L29.5486 36.5L12.7531 36.5Z" fill="#FF9800"/>
</svg>
