<svg width="48" height="48" viewBox="0 0 48 48" fill="none" xmlns="http://www.w3.org/2000/svg">
<path d="M34.7236 43.1104C34.7321 43.1058 34.7409 43.1023 34.7493 43.0974C34.753 43.0953 34.7562 43.0929 34.7598 43.0908C35.2208 42.8223 35.6017 42.4356 35.8634 41.9708L45.1446 25.4708C45.3956 25.0212 45.5273 24.5149 45.5273 24C45.5273 23.4851 45.3956 22.9788 45.1446 22.5292L35.8634 6.0292C35.6007 5.56271 35.2179 5.17505 34.7548 4.9065C34.7497 4.90357 34.7452 4.90018 34.7401 4.89734C34.7319 4.89277 34.7234 4.88947 34.7152 4.88508C34.2674 4.63312 33.7624 4.50052 33.2486 4.5L14.7531 4.5C14.2209 4.50039 13.6983 4.64219 13.2389 4.91088C12.7795 5.17958 12.3997 5.56552 12.1384 6.0292L2.85713 22.5293C2.62441 22.9454 2.49441 23.4111 2.47797 23.8877C2.47545 23.9212 2.47225 23.9546 2.47197 23.9887C2.47188 23.9932 2.47188 23.9977 2.47188 24.0022C2.47188 24.0493 2.47462 24.0958 2.47888 24.1418C2.49964 24.6082 2.62917 25.0633 2.85713 25.4708L12.1384 41.9708C12.3997 42.4345 12.7795 42.8204 13.2389 43.0891C13.6983 43.3578 14.2209 43.4996 14.7531 43.5L33.2486 43.5C33.7656 43.4995 34.2737 43.3653 34.7236 43.1104ZM25.7219 24.1707L34.1323 9.07105L42.5299 24L34.1194 38.9519L25.7219 24.1707ZM14.7531 40.5L6.3284 25.5227L23.1236 25.6703L31.5486 40.5L14.7531 40.5Z" fill="#9E9E9E"/>
</svg>
