<svg width="20" height="20" viewBox="0 0 20 20" fill="none" xmlns="http://www.w3.org/2000/svg">
<g clip-path="url(#clip0_1243_7954)">
<path d="M3.33335 14.9993V14.8327C3.33335 13.4326 3.33335 12.7325 3.60584 12.1977C3.84552 11.7273 4.22797 11.3448 4.69838 11.1052C5.23316 10.8327 5.93322 10.8327 7.33335 10.8327H12.6667C14.0668 10.8327 14.7669 10.8327 15.3017 11.1052C15.7721 11.3448 16.1545 11.7273 16.3942 12.1977C16.6667 12.7325 16.6667 13.4326 16.6667 14.8327V14.9993M3.33335 14.9993C2.41288 14.9993 1.66669 15.7455 1.66669 16.666C1.66669 17.5865 2.41288 18.3327 3.33335 18.3327C4.25383 18.3327 5.00002 17.5865 5.00002 16.666C5.00002 15.7455 4.25383 14.9993 3.33335 14.9993ZM16.6667 14.9993C15.7462 14.9993 15 15.7455 15 16.666C15 17.5865 15.7462 18.3327 16.6667 18.3327C17.5872 18.3327 18.3334 17.5865 18.3334 16.666C18.3334 15.7455 17.5872 14.9993 16.6667 14.9993ZM10 14.9993C9.07955 14.9993 8.33335 15.7455 8.33335 16.666C8.33335 17.5865 9.07955 18.3327 10 18.3327C10.9205 18.3327 11.6667 17.5865 11.6667 16.666C11.6667 15.7455 10.9205 14.9993 10 14.9993ZM10 14.9993V6.66602M5.00002 6.66602H15C15.7766 6.66602 16.1649 6.66602 16.4712 6.53915C16.8795 6.36999 17.204 6.04554 17.3732 5.63716C17.5 5.33087 17.5 4.94259 17.5 4.16602C17.5 3.38945 17.5 3.00116 17.3732 2.69488C17.204 2.2865 16.8795 1.96204 16.4712 1.79288C16.1649 1.66602 15.7766 1.66602 15 1.66602H5.00002C4.22345 1.66602 3.83517 1.66602 3.52888 1.79288C3.1205 1.96204 2.79604 2.2865 2.62689 2.69488C2.50002 3.00116 2.50002 3.38945 2.50002 4.16602C2.50002 4.94259 2.50002 5.33087 2.62689 5.63716C2.79604 6.04554 3.1205 6.36999 3.52888 6.53915C3.83517 6.66602 4.22345 6.66602 5.00002 6.66602Z" stroke="#909090" stroke-width="1.5" stroke-linecap="round" stroke-linejoin="round"/>
</g>
<defs>
<clipPath id="clip0_1243_7954">
<rect width="20" height="20" fill="white"/>
</clipPath>
</defs>
</svg>
