<svg width="32" height="32" viewBox="0 0 32 32" fill="none" xmlns="http://www.w3.org/2000/svg">
<path d="M23.0616 3.68802C23.1014 3.7265 23.1434 3.76498 23.1854 3.80119C23.99 4.49155 24.7371 5.23622 25.4157 6.05786C26.8834 7.83467 27.9311 9.83782 28.5412 12.0809C28.7246 12.7509 28.8661 13.4299 28.9656 14.118C29.012 14.4349 29.0496 14.7495 29.0805 15.0687C29.1292 15.5463 29.1535 16.0238 29.1645 16.5037C29.1778 17.1148 29.1358 17.7237 29.0805 18.3326C29.0385 18.792 28.9744 19.247 28.8882 19.6974C28.6628 20.8903 28.3069 22.0424 27.825 23.156C27.3962 24.1451 26.8812 25.0867 26.291 25.9853C26.2357 26.0713 26.1827 26.1596 26.1296 26.2456C26.1075 26.2524 26.0987 26.2682 26.1075 26.2863C26.1097 26.2931 26.1186 26.2999 26.1252 26.2999C26.165 26.3067 26.1937 26.2886 26.2114 26.2524C26.2446 26.2365 26.2777 26.223 26.3087 26.2026C26.6181 26.017 26.9143 25.8133 27.1995 25.5915C28.161 24.8536 28.9877 23.9799 29.6884 22.9817C30.6212 21.6576 31.2865 20.2044 31.6623 18.6155C31.7551 18.2239 31.8303 17.8278 31.8855 17.4272C31.9231 17.1488 31.9563 16.8681 31.9739 16.5874C31.9916 16.3249 32.0005 16.0623 31.9983 15.7998C31.9938 15.415 31.9916 15.0279 31.9629 14.6454C31.9253 14.1678 31.859 13.6947 31.7684 13.2239C31.5761 12.2054 31.2733 11.2253 30.8422 10.286C29.9271 8.28509 28.5721 6.65993 26.8126 5.38787C25.8489 4.69073 24.8056 4.1475 23.6805 3.7763C23.497 3.71518 23.3158 3.64728 23.1235 3.62238C23.0925 3.5839 23.0505 3.57258 23.0063 3.57711C22.9931 3.57711 22.971 3.59296 22.9688 3.60201C22.9688 3.61785 22.9776 3.63822 22.9909 3.64728C23.0107 3.66312 23.0351 3.67444 23.0572 3.68802H23.0616Z" fill="black"/>
<path d="M11.9994 1.641C12.4282 2.64371 13.5135 3.25032 14.6585 2.97418C15.0896 2.87006 15.4543 2.64371 15.7659 2.32683C15.83 2.26119 15.8919 2.19102 15.9538 2.12312C15.9715 2.10501 16.0113 2.09822 16.029 2.11407C16.0798 2.15481 16.1285 2.19555 16.1771 2.23856C16.4092 2.43774 16.6567 2.61655 16.9286 2.75689C17.2513 2.92438 17.5895 3.03076 17.9542 3.04208C18.3278 3.04887 18.6771 2.98323 19.055 2.74557C19.7999 2.27703 20.1735 1.57763 20.231 0.697144C20.2442 0.500223 20.2133 0.303303 20.1293 0.119963C20.1138 0.0860112 20.0917 0.0565863 20.0674 0.0294249C20.0608 0.0226345 20.0254 0.0294249 20.0188 0.0384787C19.9878 0.095065 19.9591 0.153915 19.9326 0.212765C19.811 0.488906 19.6496 0.737886 19.4374 0.95065C19.0175 1.36939 18.5113 1.58442 17.9277 1.59347C17.5851 1.598 17.2558 1.51199 16.9485 1.35354C16.6567 1.20416 16.4092 0.998183 16.1948 0.749203C16.1395 0.685826 16.0865 0.62245 16.0312 0.561336C16.0224 0.552283 15.9914 0.550019 15.9848 0.559073C15.9361 0.615659 15.8919 0.674509 15.8455 0.733359C15.3217 1.39881 14.4463 1.71117 13.7125 1.55726C13.3456 1.4803 13.0162 1.33091 12.7288 1.08646C12.4636 0.860112 12.2602 0.586234 12.1077 0.271614C12.0834 0.221818 12.0613 0.169759 12.037 0.1177C12.0215 0.0837478 12.0038 0.049796 11.9884 0.0181076C11.9839 0.0113173 11.9729 0 11.9685 0C11.953 0.00905381 11.9309 0.0158442 11.9243 0.0316883C11.8182 0.267087 11.785 0.518331 11.8005 0.771838C11.8182 1.07288 11.8845 1.36486 12.0038 1.64327L11.9994 1.641Z" fill="black"/>
<path d="M0.366639 19.0825C0.941345 21.4048 2.06644 23.4034 3.73972 25.0807C4.31885 25.6601 4.95545 26.1671 5.64288 26.604C5.72025 26.6538 5.80424 26.6922 5.88382 26.7352C5.88824 26.7647 5.90592 26.7805 5.93245 26.7737C5.95676 26.7692 5.96339 26.742 5.94129 26.7149C5.92802 26.6968 5.90592 26.6832 5.88824 26.6696C5.8374 26.5904 5.78877 26.5134 5.73793 26.4342C5.09912 25.4564 4.5421 24.4333 4.0956 23.3491C3.72646 22.4573 3.43247 21.5406 3.22912 20.5945C3.10754 20.0354 3.01029 19.4718 2.95282 18.9014C2.9064 18.4533 2.86661 18.0051 2.85998 17.5547C2.85335 17.0205 2.85556 16.4841 2.89756 15.9499C2.93071 15.5108 2.97492 15.0717 3.03681 14.6348C3.11418 14.0871 3.22027 13.5438 3.34848 13.0051C3.72204 11.4456 4.31001 9.97438 5.11902 8.5982C5.95897 7.17222 6.99786 5.91374 8.19811 4.79559C8.4501 4.56246 8.70872 4.33838 8.96512 4.11203C8.98723 4.09845 9.01375 4.08713 9.03365 4.06903C9.0447 4.05997 9.04691 4.03734 9.04912 4.01923C9.04912 4.01697 9.03586 4.00791 9.02702 4.00565C8.9607 3.99207 8.90102 4.00112 8.85239 4.05318C8.81703 4.05997 8.77945 4.06224 8.74408 4.07355C8.39263 4.17767 8.04338 4.29311 7.70298 4.43118C6.22643 5.02873 4.92229 5.90242 3.7773 7.0251C2.36264 8.41486 1.32817 10.0559 0.684937 11.9526C0.390953 12.8241 0.192017 13.7181 0.0903378 14.6371C0.0439192 15.0581 0.0107628 15.4791 0.00192115 15.9001C-0.00913089 16.4456 0.0284464 16.9888 0.0903378 17.5298C0.147808 18.0526 0.240646 18.5687 0.366639 19.078V19.0825Z" fill="black"/>
<path d="M5.73117 13.7261C5.69359 14.1946 5.67149 14.6632 5.68254 15.134C5.68917 15.4056 5.70685 15.6794 5.71127 15.9511C5.71791 16.2815 5.75327 16.6075 5.78864 16.9334C5.83506 17.3725 5.90137 17.8071 5.98536 18.2417C6.12683 18.9796 6.32135 19.7039 6.57112 20.4101C7.22319 22.2457 8.2223 23.8618 9.53086 25.2788C10.2448 26.0529 11.0295 26.7432 11.8717 27.3702C12.3027 27.6916 12.7448 27.9904 13.2001 28.2756C13.2466 28.305 13.293 28.3367 13.3372 28.3684C13.3615 28.3865 13.3659 28.425 13.346 28.4363C13.3129 28.4521 13.2819 28.4725 13.2466 28.4838C12.4928 28.7554 11.7258 28.9704 10.9389 29.1198C10.5344 29.1968 10.1255 29.2602 9.71432 29.3077C9.30319 29.353 8.89426 29.396 8.48092 29.4118C8.24219 29.4209 8.00568 29.4367 7.76695 29.4526C7.7559 29.4526 7.74485 29.4707 7.73822 29.4842C7.73601 29.4888 7.74485 29.5069 7.74927 29.5069C7.87968 29.5476 8.01231 29.5929 8.14493 29.6268C8.72185 29.7808 9.30319 29.9075 9.89558 29.9822C10.2603 30.0297 10.6228 30.075 10.9919 30.0863C11.129 30.0909 11.266 30.0976 11.4053 30.1022C11.5512 30.1067 11.6993 30.118 11.8452 30.1112C12.2939 30.0909 12.7426 30.0863 13.1913 30.0343C13.5649 29.9913 13.9384 29.9437 14.3076 29.8758C14.4247 29.8532 14.5419 29.8328 14.659 29.8124C14.6944 29.8057 14.7297 29.8373 14.7319 29.8758C14.7319 29.8939 14.7319 29.9143 14.7319 29.9324C14.7165 30.1678 14.7916 30.376 14.9243 30.5639C14.9464 30.5956 14.9663 30.625 14.9884 30.6545C15.2647 31.0415 15.541 31.4263 15.8195 31.8133C15.846 31.8518 15.8725 31.8903 15.9013 31.9265C15.9189 31.9469 15.941 31.965 15.9609 31.9854C15.983 32.0057 16.0449 32.0057 16.0626 31.9854C16.1024 31.9356 16.1444 31.8835 16.182 31.8315C16.4583 31.4444 16.7368 31.0596 17.0087 30.6703C17.2518 30.324 17.2275 30.4485 17.2761 29.9822C17.2761 29.9732 17.2783 29.9641 17.2805 29.955C17.2916 29.8781 17.3402 29.8351 17.411 29.8396C17.4751 29.8441 17.5392 29.8487 17.6033 29.8622C17.8729 29.9143 18.1448 29.9596 18.4189 29.9913C18.6731 30.0207 18.9295 30.0546 19.1837 30.075C19.4578 30.0976 19.7341 30.1067 20.0082 30.118C20.5144 30.1361 21.0183 30.1022 21.5201 30.0637C21.8848 30.0365 22.2495 29.9845 22.612 29.9234C23.0099 29.8555 23.4056 29.774 23.7968 29.6789C23.9648 29.6382 24.135 29.5929 24.292 29.5137C24.2986 29.5114 24.3008 29.4978 24.3052 29.491C24.3141 29.4729 24.3052 29.4571 24.2831 29.4548C24.1925 29.4458 24.1019 29.4367 24.009 29.4322C23.6067 29.4118 23.2022 29.405 22.7999 29.3643C22.2518 29.31 21.708 29.2375 21.1664 29.1379C20.426 29.0021 19.6987 28.8075 18.9848 28.563C18.872 28.5245 18.7615 28.4793 18.6488 28.4385C18.6422 28.4363 18.6311 28.4272 18.6311 28.4227C18.6355 28.4046 18.6377 28.3819 18.651 28.3729C18.7018 28.3344 18.7571 28.3005 18.8124 28.2665C19.3473 27.9383 19.8689 27.5875 20.3685 27.205C21.3234 26.4806 22.1943 25.6635 22.9613 24.7333C24.1991 23.2349 25.0899 21.5463 25.6536 19.6722C25.9542 18.674 26.1598 17.6554 26.2703 16.6165C26.3211 16.1389 26.3521 15.6613 26.3565 15.1837C26.3609 14.6473 26.3233 14.1131 26.2725 13.5812C26.2216 13.047 26.1376 12.5197 26.0249 11.9968C25.6624 10.3128 25.0501 8.73291 24.166 7.26393C23.5515 6.24311 22.8287 5.31057 21.9755 4.48893C21.8892 4.40518 21.7942 4.33049 21.7036 4.25127C21.6616 4.17658 21.5975 4.12452 21.5223 4.08604C21.5179 4.06567 21.5046 4.05209 21.4892 4.06114C21.4803 4.06567 21.4693 4.09056 21.4737 4.09962C21.4847 4.12225 21.5024 4.1381 21.5157 4.15847C21.5466 4.21958 21.5687 4.28522 21.6262 4.32596C21.6748 4.4165 21.719 4.5093 21.7699 4.59758C22.4396 5.79042 22.9834 7.03984 23.368 8.35944C23.5426 8.96378 23.6863 9.57265 23.788 10.1951C23.8344 10.4735 23.8742 10.7519 23.9073 11.0303C23.9493 11.3744 23.9803 11.7207 23.9958 12.0692C24.0223 12.6509 24.0201 13.2349 23.9958 13.8166C23.9825 14.1063 23.9626 14.3983 23.9295 14.6881C23.8919 15.0321 23.8388 15.3761 23.7902 15.7202C23.6775 16.492 23.494 17.248 23.2619 17.9904C22.7115 19.7401 21.8959 21.3494 20.8283 22.8252C20.269 23.597 19.6479 24.3123 18.9582 24.9641C18.5736 25.3285 18.1691 25.6658 17.7425 25.9759C17.6762 26.0257 17.6077 26.0732 17.537 26.1185C17.5149 26.1343 17.4817 26.1434 17.4618 26.123C17.4441 26.1049 17.4375 26.0755 17.4331 26.0506C17.4286 26.0234 17.4331 25.994 17.4331 25.9668C17.4618 25.1226 17.4927 24.276 17.5215 23.4318C17.5215 23.4137 17.5215 23.3933 17.5237 23.3752C17.5524 22.7278 17.5812 22.0805 17.6099 21.4331C17.6364 20.813 17.6607 20.195 17.6851 19.5748C17.6851 19.5658 17.6851 19.5567 17.6851 19.5477C17.7116 19.0045 17.7425 18.459 17.7668 17.9157C17.7867 17.4834 17.8044 17.0534 17.8199 16.621C17.842 16.0212 17.8663 15.4191 17.8751 14.8193C17.895 13.5133 17.9127 12.2073 17.9194 10.9013C17.9238 9.76504 17.9127 8.62879 17.9083 7.49027C17.9061 6.59847 17.9039 5.70441 17.9017 4.81261C17.9017 4.72886 17.9017 4.64285 17.8973 4.5591C17.8928 4.43687 17.8332 4.34633 17.7359 4.27843C17.6983 4.25127 17.6563 4.2309 17.6165 4.20826C17.0462 3.88685 16.5622 3.46132 16.1577 2.94073C16.1289 2.90451 16.098 2.87056 16.0648 2.83661C16.0317 2.80266 15.9742 2.80492 15.9433 2.84114C15.8637 2.93168 15.7863 3.02448 15.7067 3.11728C15.3487 3.53828 14.9441 3.9027 14.4579 4.16299C14.4181 4.18563 14.3783 4.20826 14.3385 4.23542C14.228 4.31238 14.155 4.41424 14.1263 4.55005C14.1042 4.6519 14.102 4.75376 14.102 4.85787C14.1064 5.42147 14.1152 5.98507 14.1152 6.54867C14.1175 7.98597 14.1197 9.42326 14.1175 10.8606C14.1175 11.3676 14.1086 11.8746 14.102 12.3816C14.0931 13.0765 14.1175 13.7714 14.1351 14.4662C14.155 15.2177 14.1838 15.9692 14.2081 16.7206C14.2081 16.7387 14.2081 16.7591 14.2103 16.7772C14.239 17.463 14.2722 18.1466 14.2965 18.8324C14.3252 19.5839 14.3473 20.3354 14.3717 21.0868C14.3717 21.114 14.3739 21.1434 14.3761 21.1706C14.407 21.8836 14.438 22.5966 14.4667 23.3095C14.491 23.9388 14.5153 24.568 14.5374 25.1973C14.5374 25.2357 14.5419 25.272 14.5441 25.3104C14.5551 25.5345 14.5662 25.7609 14.5772 25.9849C14.5772 26.0212 14.5728 26.0596 14.5706 26.0959C14.5684 26.1253 14.5109 26.1524 14.4844 26.1343C14.4225 26.0936 14.3606 26.0529 14.3009 26.0098C13.7417 25.5979 13.2178 25.1407 12.7249 24.6472C11.8032 23.7215 11.0118 22.6894 10.3421 21.5599C9.35403 19.8895 8.67101 18.0968 8.29524 16.1819C8.19798 15.684 8.12062 15.1837 8.06978 14.679C8.00789 14.0814 7.97031 13.4816 7.97252 12.8796C7.97252 12.5219 7.98578 12.1666 8.0101 11.8089C8.04547 11.3019 8.10294 10.7994 8.1803 10.2992C8.27314 9.70619 8.39913 9.11996 8.55607 8.54051C8.91858 7.19376 9.44686 5.91717 10.1188 4.70396C10.1763 4.59758 10.2338 4.4912 10.2912 4.38255C10.3509 4.33954 10.3774 4.27164 10.404 4.206C10.415 4.19242 10.4327 4.18337 10.4371 4.16752C10.4415 4.15394 10.4305 4.1381 10.4239 4.12225C10.4239 4.11999 10.4062 4.11773 10.4018 4.12225C10.3774 4.14715 10.3531 4.17205 10.331 4.19695C10.2868 4.22863 10.2448 4.25806 10.2271 4.31465C10.1984 4.33728 10.1697 4.35991 10.1431 4.38708C9.4336 5.0978 8.78374 5.86285 8.21125 6.69354C6.75459 8.8076 5.93011 11.1548 5.72675 13.7329L5.73117 13.7261Z" fill="black"/>
</svg>
