<svg width="32" height="32" viewBox="0 0 32 32" fill="none" xmlns="http://www.w3.org/2000/svg">
<g clip-path="url(#clip0_3337_23039)">
<path d="M9.38722 7.25062C9.36689 7.49809 9.35494 7.74556 9.36092 7.99422C9.3645 8.13768 9.37407 8.28234 9.37646 8.4258C9.38005 8.60034 9.39917 8.7725 9.4183 8.94465C9.44341 9.17658 9.47927 9.40611 9.5247 9.63565C9.60121 10.0254 9.70642 10.4079 9.84151 10.7809C10.1942 11.7505 10.7345 12.6041 11.4423 13.3525C11.8284 13.7613 12.2528 14.126 12.7083 14.4571C12.9414 14.6269 13.1805 14.7847 13.4268 14.9353C13.4519 14.9508 13.477 14.9676 13.5009 14.9843C13.5141 14.9939 13.5165 15.0142 13.5057 15.0202C13.4878 15.0286 13.4711 15.0393 13.4519 15.0453C13.0443 15.1888 12.6294 15.3023 12.2038 15.3812C11.985 15.4219 11.7639 15.4554 11.5415 15.4805C11.3191 15.5044 11.098 15.5271 10.8744 15.5354C10.7453 15.5402 10.6174 15.5486 10.4883 15.557C10.4823 15.557 10.4763 15.5665 10.4727 15.5737C10.4715 15.5761 10.4763 15.5857 10.4787 15.5857C10.5492 15.6072 10.621 15.6311 10.6927 15.649C11.0047 15.7303 11.3191 15.7973 11.6395 15.8367C11.8368 15.8618 12.0329 15.8857 12.2325 15.8917C12.3066 15.8941 12.3808 15.8977 12.4561 15.9001C12.535 15.9025 12.6151 15.9084 12.694 15.9049C12.9367 15.8941 13.1794 15.8917 13.422 15.8642C13.6241 15.8415 13.8261 15.8164 14.0258 15.7805C14.0891 15.7686 14.1525 15.7578 14.2159 15.7471C14.235 15.7435 14.2541 15.7602 14.2553 15.7805C14.2553 15.7901 14.2553 15.8009 14.2553 15.8104C14.2469 15.9347 14.2876 16.0447 14.3593 16.144C14.3713 16.1607 14.382 16.1762 14.394 16.1918C14.5434 16.3962 14.6929 16.5994 14.8435 16.8039C14.8578 16.8242 14.8722 16.8445 14.8877 16.8637C14.8973 16.8744 14.9092 16.884 14.92 16.8947C14.932 16.9055 14.9654 16.9055 14.975 16.8947C14.9965 16.8684 15.0192 16.8409 15.0396 16.8134C15.189 16.609 15.3396 16.4058 15.4867 16.2001C15.6182 16.0172 15.605 16.083 15.6313 15.8367C15.6313 15.8319 15.6325 15.8272 15.6337 15.8224C15.6397 15.7817 15.666 15.759 15.7043 15.7614C15.7389 15.7638 15.7736 15.7662 15.8083 15.7734C15.9541 15.8009 16.1012 15.8248 16.2494 15.8415C16.3869 15.857 16.5256 15.875 16.663 15.8857C16.8113 15.8977 16.9607 15.9025 17.109 15.9084C17.3827 15.918 17.6553 15.9001 17.9267 15.8798C18.1239 15.8654 18.3212 15.8379 18.5173 15.8056C18.7325 15.7698 18.9465 15.7267 19.1581 15.6765C19.2489 15.655 19.341 15.6311 19.4258 15.5892C19.4294 15.5881 19.4306 15.5809 19.433 15.5773C19.4378 15.5677 19.433 15.5594 19.4211 15.5582C19.3721 15.5534 19.323 15.5486 19.2728 15.5462C19.0552 15.5354 18.8365 15.5319 18.6189 15.5103C18.3224 15.4817 18.0283 15.4434 17.7354 15.3908C17.3349 15.3191 16.9416 15.2163 16.5554 15.0871C16.4945 15.0668 16.4347 15.0429 16.3737 15.0214C16.3701 15.0202 16.3642 15.0154 16.3642 15.013C16.3666 15.0035 16.3678 14.9915 16.3749 14.9867C16.4024 14.9664 16.4323 14.9485 16.4622 14.9305C16.7515 14.7572 17.0336 14.5719 17.3038 14.3698C17.8203 13.9873 18.2913 13.5557 18.7062 13.0643C19.3756 12.2729 19.8574 11.3811 20.1623 10.3912C20.3249 9.86399 20.436 9.32601 20.4958 8.77728C20.5233 8.52503 20.5401 8.27278 20.5424 8.02052C20.5448 7.73719 20.5245 7.45505 20.497 7.17411C20.4695 6.89197 20.4241 6.61342 20.3631 6.33726C20.1671 5.4478 19.8359 4.61334 19.3577 3.83746C19.0254 3.29829 18.6344 2.80575 18.173 2.37178C18.1263 2.32755 18.0749 2.28809 18.0259 2.24625C18.0032 2.2068 17.9685 2.1793 17.9279 2.15898C17.9255 2.14822 17.9183 2.14105 17.91 2.14583C17.9052 2.14822 17.8992 2.16137 17.9016 2.16615C17.9076 2.17811 17.9171 2.18648 17.9243 2.19724C17.941 2.22951 17.953 2.26418 17.9841 2.2857C18.0104 2.33352 18.0343 2.38254 18.0618 2.42916C18.424 3.05919 18.7181 3.71911 18.9261 4.41609C19.0206 4.73529 19.0983 5.05688 19.1533 5.38564C19.1784 5.53269 19.1999 5.67973 19.2178 5.82678C19.2405 6.0085 19.2573 6.19141 19.2657 6.37551C19.28 6.68276 19.2788 6.9912 19.2657 7.29844C19.2585 7.45147 19.2477 7.60569 19.2298 7.75871C19.2095 7.94043 19.1808 8.12214 19.1545 8.30386C19.0935 8.71152 18.9943 9.11082 18.8687 9.50295C18.5711 10.4271 18.1299 11.2771 17.5525 12.0565C17.25 12.4642 16.9141 12.842 16.5411 13.1863C16.3331 13.3788 16.1143 13.5569 15.8836 13.7207C15.8477 13.747 15.8107 13.7721 15.7724 13.796C15.7604 13.8044 15.7425 13.8091 15.7317 13.7984C15.7222 13.7888 15.7186 13.7733 15.7162 13.7601C15.7138 13.7458 15.7162 13.7302 15.7162 13.7159C15.7317 13.27 15.7485 12.8229 15.764 12.3769C15.764 12.3674 15.764 12.3566 15.7652 12.347C15.7808 12.0051 15.7963 11.6632 15.8118 11.3213C15.8262 10.9937 15.8393 10.6674 15.8525 10.3398C15.8525 10.335 15.8525 10.3302 15.8525 10.3255C15.8668 10.0385 15.8836 9.75042 15.8967 9.4635C15.9075 9.23516 15.917 9.00801 15.9254 8.77967C15.9374 8.46286 15.9505 8.14486 15.9553 7.82805C15.9661 7.13825 15.9756 6.44844 15.9792 5.75864C15.9816 5.15849 15.9756 4.55835 15.9732 3.95701C15.972 3.48599 15.9708 3.01376 15.9697 2.54274C15.9697 2.4985 15.9697 2.45307 15.9673 2.40884C15.9649 2.34428 15.9326 2.29646 15.88 2.2606C15.8597 2.24625 15.837 2.23549 15.8154 2.22354C15.507 2.05378 15.2452 1.82902 15.0264 1.55406C15.0109 1.53493 14.9941 1.517 14.9762 1.49906C14.9583 1.48113 14.9272 1.48233 14.9104 1.50145C14.8674 1.54927 14.8256 1.59829 14.7825 1.64731C14.5888 1.86967 14.3701 2.06214 14.1071 2.19963C14.0855 2.21158 14.064 2.22354 14.0425 2.23788C13.9827 2.27853 13.9433 2.33233 13.9277 2.40406C13.9158 2.45786 13.9146 2.51165 13.9146 2.56665C13.917 2.86433 13.9218 3.16201 13.9218 3.45969C13.923 4.21883 13.9241 4.97797 13.923 5.73712C13.923 6.00491 13.9182 6.2727 13.9146 6.54049C13.9098 6.90751 13.923 7.27453 13.9325 7.64155C13.9433 8.03846 13.9588 8.43536 13.972 8.83227C13.972 8.84183 13.972 8.85259 13.9732 8.86216C13.9887 9.2244 14.0066 9.58544 14.0198 9.94767C14.0353 10.3446 14.0473 10.7415 14.0604 11.1384C14.0604 11.1527 14.0616 11.1683 14.0628 11.1826C14.0796 11.5592 14.0963 11.9358 14.1118 12.3124C14.125 12.6447 14.1381 12.9771 14.1501 13.3094C14.1501 13.3297 14.1525 13.3489 14.1537 13.3692C14.1597 13.4876 14.1656 13.6071 14.1716 13.7255C14.1716 13.7446 14.1692 13.7649 14.168 13.784C14.1668 13.7996 14.1358 13.8139 14.1214 13.8044C14.0879 13.7828 14.0545 13.7613 14.0222 13.7386C13.7197 13.521 13.4364 13.2795 13.1698 13.0189C12.6713 12.53 12.2433 11.9848 11.881 11.3883C11.3466 10.506 10.9772 9.55914 10.774 8.54774C10.7214 8.28473 10.6796 8.02053 10.6521 7.75393C10.6186 7.43832 10.5983 7.12151 10.5995 6.8035C10.5995 6.61461 10.6066 6.42692 10.6198 6.23803C10.6389 5.97024 10.67 5.70484 10.7118 5.44063C10.762 5.12741 10.8302 4.81778 10.9151 4.51173C11.1111 3.8004 11.3969 3.12614 11.7603 2.48535C11.7914 2.42916 11.8225 2.37297 11.8535 2.31559C11.8858 2.29288 11.9002 2.25701 11.9145 2.22234C11.9205 2.21517 11.9301 2.21039 11.9324 2.20202C11.9348 2.19484 11.9289 2.18648 11.9253 2.17811C11.9253 2.17691 11.9157 2.17572 11.9133 2.17811C11.9002 2.19126 11.887 2.20441 11.8751 2.21756C11.8511 2.2343 11.8284 2.24984 11.8189 2.27973C11.8033 2.29168 11.7878 2.30364 11.7734 2.31798C11.3897 2.69337 11.0382 3.09745 10.7286 3.5362C9.94074 4.6528 9.49481 5.89253 9.38483 7.25421L9.38722 7.25062Z" fill="black"/>
<path d="M6.47955 9.85294C6.79038 11.0795 7.39889 12.1352 8.30388 13.021C8.6171 13.3271 8.96141 13.5949 9.33321 13.8256C9.37505 13.8519 9.42048 13.8722 9.46352 13.8949C9.46591 13.9105 9.47547 13.9188 9.48982 13.9153C9.50297 13.9129 9.50656 13.8985 9.4946 13.8842C9.48743 13.8746 9.47547 13.8674 9.46591 13.8603C9.43841 13.8184 9.41211 13.7778 9.38462 13.7359C9.03912 13.2195 8.73785 12.6791 8.49636 12.1065C8.29671 11.6354 8.13771 11.1513 8.02772 10.6515C7.96197 10.3562 7.90937 10.0586 7.87828 9.7573C7.85318 9.52059 7.83166 9.28388 7.82807 9.04598C7.82449 8.76384 7.82568 8.4805 7.8484 8.19837C7.86633 7.96644 7.89024 7.73451 7.92371 7.50378C7.96556 7.21447 8.02294 6.92755 8.09228 6.64302C8.29432 5.81932 8.61232 5.04224 9.04988 4.31538C9.50417 3.56221 10.0661 2.89751 10.7152 2.30693C10.8515 2.1838 10.9914 2.06544 11.13 1.94589C11.142 1.93872 11.1563 1.93274 11.1671 1.92318C11.1731 1.91839 11.1743 1.90644 11.1755 1.89688C11.1755 1.89568 11.1683 1.8909 11.1635 1.8897C11.1277 1.88253 11.0954 1.88731 11.0691 1.91481C11.05 1.91839 11.0296 1.91959 11.0105 1.92557C10.8204 1.98056 10.6315 2.04153 10.4474 2.11446C9.64882 2.43007 8.94348 2.89153 8.32421 3.4845C7.55909 4.21854 6.99959 5.08528 6.6517 6.08711C6.4927 6.54738 6.3851 7.0196 6.33011 7.50497C6.305 7.72734 6.28707 7.9497 6.28229 8.17206C6.27631 8.46018 6.29664 8.7471 6.33011 9.03283C6.36119 9.30899 6.4114 9.58156 6.47955 9.85055V9.85294Z" fill="black"/>
<path d="M12.7736 0.868692C13.0055 1.3983 13.5925 1.71869 14.2118 1.57284C14.4449 1.51785 14.6422 1.3983 14.8107 1.23093C14.8454 1.19626 14.8789 1.1592 14.9124 1.12333C14.9219 1.11377 14.9434 1.11018 14.953 1.11855C14.9805 1.14007 15.0068 1.16159 15.0331 1.1843C15.1586 1.28951 15.2925 1.38395 15.4396 1.45807C15.6141 1.54654 15.797 1.60273 15.9943 1.60871C16.1963 1.61229 16.3852 1.57762 16.5896 1.4521C16.9925 1.20463 17.1946 0.835218 17.2257 0.370168C17.2328 0.266159 17.2161 0.16215 17.1707 0.0653147C17.1623 0.0473822 17.1503 0.0318407 17.1372 0.0174946C17.1336 0.0139081 17.1145 0.0174947 17.1109 0.0222767C17.0941 0.0521642 17.0786 0.0832473 17.0643 0.11433C16.9985 0.260182 16.9112 0.391687 16.7965 0.504064C16.5693 0.725232 16.2956 0.838804 15.9799 0.843586C15.7946 0.845977 15.6165 0.800548 15.4503 0.716863C15.2925 0.63796 15.1586 0.529169 15.0427 0.397664C15.0128 0.36419 14.9841 0.330716 14.9542 0.298438C14.9494 0.293656 14.9327 0.29246 14.9291 0.297242C14.9028 0.32713 14.8789 0.358213 14.8538 0.389296C14.5704 0.740773 14.097 0.905753 13.7001 0.824458C13.5017 0.783811 13.3235 0.704908 13.1681 0.575794C13.0247 0.456244 12.9147 0.311588 12.8322 0.145413C12.819 0.119112 12.8071 0.0916158 12.7939 0.0641192C12.7856 0.0461867 12.776 0.0282542 12.7676 0.0115171C12.7652 0.00793064 12.7593 0.00195312 12.7569 0.00195312C12.7485 0.00673513 12.7365 0.0103216 12.733 0.0186902C12.6756 0.143022 12.6576 0.275723 12.666 0.409619C12.6756 0.568621 12.7114 0.722841 12.776 0.869887L12.7736 0.868692Z" fill="black"/>
<path d="M11.9278 23.3504C12.1418 23.3134 12.3306 23.213 12.5016 23.0815C12.669 22.9535 12.8029 22.7945 12.9164 22.6176C13.1185 22.3044 13.2452 21.9625 13.2966 21.5931C13.311 21.4902 13.3098 21.385 13.3145 21.281C13.3145 21.2619 13.3122 21.2416 13.311 21.2213C13.305 21.1304 13.2643 21.0587 13.1866 21.0132C13.1268 20.9786 13.0623 20.9523 13.0001 20.9224C12.9643 20.9056 12.9272 20.8925 12.8913 20.8746C12.8662 20.8626 12.8555 20.8208 12.8686 20.7957C12.8734 20.7873 12.877 20.7777 12.883 20.7694C12.9834 20.6199 13.1017 20.4872 13.2584 20.3928C13.403 20.3055 13.5465 20.217 13.6911 20.1298C13.7509 20.0939 13.8083 20.0544 13.8597 20.0078C13.9709 19.9038 14.0534 19.7831 14.094 19.6348C14.1143 19.5607 14.094 19.4985 14.051 19.44C14.0414 19.428 14.0318 19.4172 14.0199 19.4077C13.8991 19.3049 13.7581 19.2487 13.6027 19.2248C13.5321 19.214 13.4759 19.2451 13.4353 19.3013C13.415 19.3288 13.397 19.3599 13.3827 19.3909C13.3217 19.5153 13.2619 19.6408 13.2034 19.7663C13.1974 19.7795 13.1914 19.7938 13.1878 19.8082C13.1794 19.8488 13.1794 19.8871 13.2069 19.9217C13.2129 19.9301 13.2189 19.9373 13.2249 19.9457C13.2584 19.9875 13.2524 20.0305 13.2165 20.0652C13.1914 20.0891 13.1651 20.1118 13.14 20.1357C13.1005 20.1728 13.0599 20.2099 13.0228 20.2505C12.8662 20.4179 12.7311 20.602 12.6032 20.7909C12.5088 20.9296 12.4645 21.085 12.461 21.2535C12.4586 21.4161 12.5315 21.5273 12.6809 21.5907C12.7216 21.6074 12.7646 21.6229 12.8065 21.6373C12.8531 21.654 12.8997 21.6708 12.9463 21.6887C12.969 21.6971 12.9918 21.7078 13.0133 21.721C13.0599 21.7485 13.079 21.7975 13.0599 21.8489C13.03 21.9338 12.9918 22.0151 12.9296 22.0808C12.865 22.149 12.7993 22.2171 12.7287 22.2793C12.6355 22.3618 12.5303 22.4275 12.4155 22.4777C12.1429 22.5985 11.8596 22.6212 11.5715 22.553C11.3766 22.5076 11.2535 22.3773 11.1961 22.186C11.1602 22.0653 11.1567 21.9421 11.1806 21.8178C11.226 21.5727 11.2989 21.3372 11.3886 21.1053C11.4543 20.9343 11.5297 20.767 11.6169 20.6044C11.6361 20.5697 11.654 20.5338 11.6576 20.4932C11.6588 20.4729 11.6492 20.4549 11.6325 20.4418C11.6193 20.4322 11.5906 20.431 11.5763 20.4418C11.5607 20.4537 11.544 20.4657 11.532 20.48C11.5165 20.4992 11.5046 20.5207 11.4926 20.5434C11.3958 20.7275 11.2965 20.9104 11.2045 21.0981C11.0933 21.3253 11.0048 21.5632 10.9391 21.8071C10.8817 22.0187 10.8446 22.2327 10.8375 22.4514C10.8315 22.5519 10.8434 22.6499 10.8673 22.7467C10.9295 22.999 11.0742 23.1843 11.3169 23.2847C11.5141 23.3672 11.7209 23.3827 11.9301 23.3457L11.9278 23.3504Z" fill="black"/>
<path d="M20.332 23.2245C20.7157 22.989 20.9991 22.6662 21.17 22.2478C21.2836 21.9692 21.3398 21.6787 21.3565 21.3643C21.3565 21.3249 21.3589 21.2711 21.3565 21.2161C21.3517 21.1431 21.3171 21.0834 21.2609 21.0379C21.2298 21.014 21.1951 20.9937 21.1593 20.977C21.115 20.9554 21.0672 20.9411 21.0218 20.9196C20.9823 20.9004 20.9429 20.8777 20.907 20.8526C20.8652 20.8227 20.8544 20.7642 20.8759 20.7187C20.8819 20.7056 20.8903 20.6924 20.8986 20.6805C20.9847 20.5585 21.0816 20.445 21.1939 20.3469C21.3362 20.2238 21.5 20.1461 21.6877 20.1222C21.7068 20.1198 21.7271 20.1198 21.7463 20.115C21.8395 20.0959 21.9112 20.0493 21.9495 19.9596C21.9519 19.9548 21.9543 19.9512 21.9567 19.9464C22.0021 19.8365 22.0475 19.7265 22.0918 19.6165C22.0989 19.5985 22.1025 19.5782 22.1037 19.5579C22.1061 19.5268 22.0953 19.4981 22.0714 19.4778C22.0356 19.4467 21.9949 19.43 21.9483 19.4503C21.916 19.4635 21.8837 19.4766 21.8538 19.4945C21.4916 19.7002 21.176 19.9596 20.9225 20.2931C20.7839 20.476 20.6703 20.6733 20.5794 20.8837C20.5173 21.0272 20.491 21.1778 20.5089 21.3344C20.5185 21.4121 20.5543 21.4743 20.6129 21.5257C20.6548 21.5616 20.7014 21.5903 20.7528 21.6106C20.803 21.6309 20.8556 21.6476 20.907 21.6668C20.9489 21.6823 20.9919 21.6943 21.0325 21.7122C21.1067 21.7445 21.1282 21.7947 21.1007 21.8676C21.0851 21.9095 21.066 21.9501 21.0445 21.9884C20.9955 22.0756 20.9333 22.1533 20.858 22.2191C20.5496 22.4905 20.1921 22.6244 19.7785 22.5933C19.6733 22.5849 19.574 22.5562 19.482 22.5036C19.3457 22.4247 19.262 22.3076 19.2321 22.1521C19.213 22.0541 19.2094 21.9561 19.2225 21.8557C19.2345 21.772 19.2477 21.6883 19.2716 21.6082C19.3122 21.4707 19.3552 21.3332 19.4019 21.1969C19.4664 21.0092 19.5489 20.8287 19.6374 20.6518C19.6613 20.6028 19.6828 20.5526 19.7031 20.5023C19.7067 20.4916 19.6996 20.4737 19.6924 20.4617C19.6828 20.4462 19.6541 20.439 19.6398 20.4462C19.6266 20.4521 19.6111 20.4581 19.6027 20.4689C19.5728 20.5083 19.5405 20.5466 19.5178 20.5896C19.433 20.7462 19.3469 20.904 19.2692 21.0642C19.152 21.3057 19.0564 21.5544 18.9846 21.8138C18.932 22.0063 18.9045 22.2023 18.8866 22.3996C18.8759 22.5144 18.889 22.6279 18.9129 22.7403C18.9332 22.8372 18.9703 22.9304 19.0253 23.0141C19.1341 23.1851 19.2871 23.2938 19.4856 23.3429C19.6075 23.3727 19.7318 23.3739 19.855 23.3704C20.0271 23.3656 20.1873 23.3166 20.3344 23.2269L20.332 23.2245Z" fill="black"/>
<path d="M26.6025 20.3125C26.6407 20.322 26.6802 20.3268 26.7196 20.3292C26.7985 20.3352 26.8655 20.3053 26.9193 20.2479C26.9922 20.1702 27.0388 20.0781 27.0591 19.9729C27.0639 19.949 27.0615 19.9227 27.0579 19.8988C27.046 19.8342 27.0161 19.7781 26.9707 19.729C26.9312 19.6848 26.8894 19.6418 26.8535 19.5951C26.8081 19.5378 26.8164 19.4983 26.8774 19.4601C26.9073 19.4421 26.9372 19.4254 26.9683 19.4087C27.138 19.3166 27.315 19.2389 27.4955 19.1672C27.5601 19.1421 27.6234 19.1134 27.6832 19.0775C27.774 19.0225 27.8506 18.9532 27.9115 18.8671C27.9319 18.8396 27.9498 18.8085 27.9605 18.7762C27.988 18.7009 27.957 18.6364 27.884 18.6077C27.8745 18.6041 27.8649 18.6017 27.8565 18.5981C27.7298 18.5551 27.6019 18.5144 27.4704 18.4893C27.3783 18.4714 27.2839 18.4654 27.211 18.457C27.1404 18.4642 27.0914 18.4702 27.0412 18.475C26.9061 18.4905 26.7973 18.5551 26.7124 18.6579C26.6419 18.7428 26.5929 18.8396 26.5558 18.9436C26.5522 18.9532 26.551 18.9627 26.5499 18.9723C26.5475 18.9902 26.5666 19.0237 26.5869 19.0333C26.606 19.0416 26.6252 19.044 26.6443 19.0333C26.6574 19.0261 26.6706 19.0177 26.6814 19.0082C26.7148 18.9795 26.7495 18.9508 26.7818 18.9197C26.8547 18.8492 26.9408 18.8217 27.04 18.8384C27.1082 18.8504 27.1763 18.8623 27.2444 18.8743C27.248 18.8743 27.2528 18.8802 27.2528 18.8838C27.2528 18.8934 27.2552 18.9053 27.2504 18.9113C27.211 18.9568 27.1572 18.9842 27.1058 19.0129C27.046 19.0476 26.9838 19.0787 26.924 19.1146C26.6945 19.2532 26.5068 19.4326 26.3777 19.6693C26.3251 19.7649 26.2617 19.8546 26.1948 19.9406C26.1099 20.0506 26.025 20.1606 25.9413 20.2706C25.9378 20.2742 25.9354 20.2778 25.9318 20.2814C25.9198 20.2957 25.8947 20.2969 25.878 20.2838C25.8385 20.2539 25.8015 20.2204 25.7596 20.1929C25.6461 20.1176 25.4906 20.1164 25.3711 20.2108C25.3197 20.2515 25.279 20.3005 25.2408 20.3519C25.187 20.4236 25.132 20.493 25.077 20.5635C25.0363 20.6137 24.9897 20.6579 24.9299 20.6866C24.9144 20.6938 24.8857 20.689 24.8761 20.6759C24.8522 20.6376 24.8307 20.5994 24.8068 20.5611C24.7745 20.5109 24.7339 20.4667 24.6837 20.4332C24.5976 20.3758 24.5079 20.3686 24.4171 20.42C24.3872 20.4368 24.3585 20.4583 24.3346 20.4834C24.2999 20.5193 24.2688 20.5575 24.2413 20.5982C24.1696 20.6998 24.1134 20.8098 24.0668 20.9257C24.0465 20.976 24.0273 21.0274 24.013 21.08C23.9735 21.2354 24.0261 21.3705 24.1899 21.4446C24.2437 21.4685 24.3023 21.484 24.3633 21.4828C24.3979 21.4828 24.4326 21.484 24.4673 21.4852C24.4792 21.4852 24.49 21.508 24.484 21.5199C24.4721 21.5414 24.4613 21.5641 24.447 21.5845C24.3836 21.6741 24.3071 21.7518 24.2234 21.8224C24.1553 21.8798 24.0835 21.9324 24.013 21.9885C23.9437 22.0447 23.8743 22.1009 23.8062 22.1583C23.787 22.1738 23.7715 22.193 23.7548 22.2109C23.7428 22.2241 23.738 22.2456 23.7464 22.2504C23.7548 22.2551 23.7631 22.2611 23.7715 22.2611C23.8863 22.2647 23.9998 22.248 24.1098 22.2205C24.3059 22.1715 24.4601 22.0627 24.5617 21.8845C24.6502 21.7291 24.7387 21.5749 24.7877 21.4004C24.8223 21.2796 24.8857 21.172 24.9682 21.0788C25.0758 20.9556 25.187 20.8361 25.2994 20.7165C25.3651 20.6472 25.4691 20.6508 25.5385 20.7201C25.5827 20.7632 25.6054 20.8181 25.6102 20.8791C25.615 20.9437 25.6102 21.007 25.597 21.0716C25.5827 21.1445 25.5719 21.2174 25.5612 21.2916C25.5576 21.3203 25.5779 21.3549 25.6018 21.3657C25.6305 21.3788 25.6604 21.3764 25.6867 21.3597C25.7022 21.349 25.7178 21.3346 25.7273 21.3179C25.7465 21.2832 25.7632 21.2473 25.7776 21.2103C25.8134 21.1182 25.8457 21.0238 25.8816 20.9317C25.927 20.8158 25.982 20.7046 26.0513 20.6018C26.0956 20.536 26.1446 20.4726 26.2044 20.4212C26.3191 20.3208 26.4494 20.2754 26.6036 20.3125H26.6025Z" fill="black"/>
<path d="M25.8847 28.1714C25.8656 28.1606 25.8333 28.1666 25.8166 28.1845C25.7962 28.206 25.7771 28.2288 25.758 28.2515C25.6874 28.3364 25.6038 28.4057 25.5081 28.4595C25.4519 28.4906 25.3945 28.5193 25.336 28.5468C25.0969 28.6579 24.8446 28.7285 24.5864 28.7823C24.2552 28.8516 23.9193 28.8803 23.5834 28.8947C23.3455 28.9054 23.1075 28.9042 22.8708 28.8803C22.713 28.8648 22.5564 28.8432 22.401 28.811C22.3137 28.793 22.2277 28.7703 22.1464 28.7309C22.0388 28.6771 21.9646 28.5958 21.9395 28.475C21.9312 28.4368 21.9228 28.3973 21.9097 28.3603C21.9013 28.3364 21.8786 28.322 21.8535 28.316C21.8296 28.3112 21.7913 28.3304 21.7793 28.3543C21.7746 28.3627 21.7698 28.3722 21.7674 28.3806C21.759 28.4093 21.7495 28.438 21.7447 28.4667C21.7184 28.6233 21.6992 28.7811 21.6849 28.9389C21.6801 28.9927 21.6789 29.0477 21.6801 29.1027C21.6861 29.2605 21.7518 29.3884 21.8786 29.4852C21.9336 29.5283 21.9945 29.5606 22.0591 29.5869C22.1798 29.6347 22.3042 29.6658 22.4333 29.6777C22.5767 29.6909 22.719 29.7052 22.8637 29.7004C22.933 29.7004 23.0023 29.7004 23.0717 29.7004C23.141 29.7004 23.2116 29.7028 23.2797 29.6956C23.4279 29.6801 23.5762 29.6729 23.7232 29.6538C23.9934 29.6179 24.2612 29.5677 24.5242 29.4948C24.7394 29.435 24.9474 29.3561 25.1471 29.2557C25.3455 29.1565 25.5129 29.019 25.6468 28.8421C25.7711 28.6783 25.8584 28.4954 25.9206 28.3005C25.9265 28.2814 25.9301 28.2622 25.9313 28.2419C25.9325 28.2096 25.9146 28.1857 25.8871 28.1702L25.8847 28.1714Z" fill="black"/>
<path d="M4.43534 27.0723C4.4186 27.0831 4.39947 27.0926 4.38752 27.107C4.366 27.1333 4.34568 27.1632 4.33013 27.1931C4.29068 27.2684 4.2333 27.3174 4.14364 27.321C4.11255 27.3222 4.08745 27.3389 4.06832 27.3628C4.06234 27.37 4.05517 27.3772 4.048 27.3843C3.97268 27.4644 3.87824 27.5015 3.76944 27.5063C3.72999 27.5087 3.68935 27.5063 3.65109 27.5099C3.61642 27.5134 3.58295 27.5194 3.54947 27.5278C3.49807 27.5409 3.46579 27.5768 3.44546 27.6258C3.42992 27.6629 3.42394 27.7023 3.42394 27.7418C3.42394 27.8458 3.42394 27.9498 3.42394 28.0538C3.42394 28.0538 3.42394 28.0538 3.42275 28.0538C3.42275 28.0885 3.42275 28.1232 3.42275 28.1578C3.42275 28.367 3.40601 28.5739 3.36536 28.7795C3.31157 29.0533 3.1968 29.2983 3.00671 29.504C2.67078 29.8662 2.25474 30.024 1.7622 29.9726C1.64265 29.9606 1.53027 29.9224 1.42626 29.859C1.29356 29.7777 1.20509 29.663 1.16086 29.5135C1.1226 29.3868 1.12141 29.2589 1.14651 29.131C1.16445 29.0389 1.18836 28.948 1.21227 28.856C1.24813 28.7113 1.30312 28.5727 1.35573 28.434C1.37844 28.373 1.40235 28.3132 1.40833 28.2487C1.40952 28.2296 1.40594 28.2092 1.40235 28.1901C1.39637 28.165 1.34616 28.1495 1.32823 28.1674C1.31149 28.1853 1.29476 28.2033 1.284 28.2248C1.23139 28.3312 1.17879 28.4388 1.12858 28.5464C0.975557 28.8763 0.864375 29.2194 0.818946 29.5817C0.805795 29.6857 0.799818 29.7897 0.809382 29.8937C0.826119 30.085 0.885894 30.2631 1.00186 30.4173C1.19553 30.6744 1.45137 30.7987 1.77654 30.77C1.82556 30.7652 1.87457 30.758 1.92359 30.7509C2.23203 30.7114 2.5046 30.5907 2.73653 30.3827C2.91107 30.226 3.05812 30.0455 3.18006 29.8447C3.37493 29.5243 3.51002 29.1788 3.59849 28.8153C3.65826 28.5691 3.7013 28.3204 3.71923 28.0682C3.72162 28.0299 3.73597 27.9988 3.77184 27.9869C3.84835 27.9606 3.9129 27.9139 3.97507 27.8649C4.03006 27.8219 4.08506 27.78 4.15081 27.7537C4.24167 27.7167 4.30742 27.6509 4.36241 27.5732C4.41382 27.4991 4.45327 27.4202 4.48196 27.3353C4.50229 27.2732 4.51185 27.2098 4.50587 27.1452C4.50468 27.1261 4.49511 27.1082 4.48794 27.0902C4.48196 27.0747 4.44968 27.0627 4.43653 27.0711L4.43534 27.0723Z" fill="black"/>
<path d="M16.0229 21.5349C16.0696 21.4991 16.1138 21.4572 16.1532 21.413C16.2023 21.358 16.2465 21.297 16.2919 21.2384C16.323 21.199 16.3505 21.1583 16.3828 21.1213C16.4402 21.0543 16.5107 21.0113 16.6004 21.0101C16.6936 21.0089 16.7737 20.973 16.849 20.9228C16.8861 20.8977 16.9231 20.8714 16.9542 20.8403C17.008 20.7877 17.0678 20.7459 17.1371 20.7148C17.2495 20.6646 17.332 20.5797 17.3906 20.4721C17.4121 20.4327 17.4336 20.3932 17.448 20.3514C17.4791 20.2629 17.5065 20.1733 17.5328 20.0824C17.54 20.0597 17.5376 20.0334 17.5352 20.0095C17.5329 19.9808 17.5113 19.9676 17.4874 19.9581C17.4635 19.9473 17.4336 19.9533 17.4193 19.9712C17.4061 19.9856 17.3942 20.0023 17.3846 20.019C17.3595 20.0669 17.3368 20.1171 17.3117 20.1661C17.2902 20.2079 17.2567 20.2366 17.2065 20.2366C17.1359 20.2366 17.0845 20.2725 17.0415 20.3239C17.0164 20.355 16.9937 20.3872 16.9674 20.4171C16.9172 20.4757 16.8538 20.514 16.7785 20.5259C16.745 20.5319 16.7091 20.5295 16.6745 20.5259C16.5944 20.5188 16.5286 20.5462 16.4712 20.5989C16.4342 20.6323 16.3995 20.6682 16.3636 20.7017C16.3122 20.7495 16.2561 20.7913 16.1891 20.8128C16.0492 20.8595 15.9153 20.8499 15.7946 20.7579C15.7121 20.6957 15.6619 20.6108 15.6356 20.5128C15.6165 20.441 15.6009 20.3681 15.5973 20.2928C15.5926 20.1792 15.583 20.0657 15.577 19.9509C15.5722 19.8517 15.5722 19.7524 15.5842 19.6532C15.5985 19.5253 15.6105 19.3962 15.6212 19.2683C15.6236 19.2443 15.6189 19.2192 15.6117 19.1953C15.6057 19.1762 15.589 19.1631 15.5674 19.1607C15.5459 19.1583 15.5268 19.1642 15.5148 19.181C15.5005 19.2013 15.4897 19.224 15.4814 19.2467C15.4335 19.3711 15.3833 19.4966 15.3391 19.6221C15.3092 19.7058 15.2853 19.7919 15.259 19.878C15.2136 20.031 15.1992 20.1888 15.1944 20.3478C15.1921 20.4614 15.1944 20.5761 15.1944 20.6515C15.1909 20.8487 15.1873 21.0065 15.1837 21.1655C15.1813 21.2755 15.1562 21.3819 15.1191 21.4847C15.1 21.5349 15.0761 21.5863 15.0462 21.6306C14.947 21.7752 14.8083 21.835 14.635 21.8063C14.629 21.8063 14.6206 21.7908 14.6218 21.7848C14.629 21.7621 14.6373 21.7382 14.6493 21.7178C14.7449 21.5457 14.7952 21.3592 14.8191 21.1667C14.8406 20.9993 14.8561 20.832 14.8537 20.6622C14.8537 20.5283 14.8549 20.3944 14.8561 20.2605C14.8561 20.0465 14.8717 19.8349 14.9099 19.6233C14.9147 19.5946 14.9195 19.5647 14.9219 19.5349C14.9219 19.5205 14.9219 19.505 14.9159 19.4906C14.9111 19.4775 14.9039 19.4643 14.8872 19.4595C14.8669 19.4536 14.8478 19.4571 14.831 19.4691C14.8203 19.4775 14.8107 19.4906 14.8035 19.5038C14.7808 19.548 14.7581 19.5922 14.739 19.6377C14.6087 19.9365 14.5417 20.251 14.5274 20.5749C14.5142 20.8571 14.507 21.1404 14.4963 21.4226C14.4951 21.4572 14.4951 21.4919 14.4903 21.5266C14.476 21.6473 14.4425 21.7597 14.3528 21.8481C14.3361 21.8649 14.3205 21.8864 14.3098 21.9079C14.3014 21.9247 14.2942 21.9474 14.2978 21.9653C14.3169 22.0705 14.36 22.165 14.4449 22.2331C14.5214 22.2965 14.6098 22.3192 14.7091 22.2989C14.8298 22.2749 14.9314 22.2176 15.0223 22.1375C15.1084 22.0609 15.1789 21.9713 15.2375 21.8733C15.2853 21.792 15.3307 21.7095 15.375 21.6258C15.4192 21.5421 15.4264 21.5361 15.5113 21.5684C15.5615 21.5875 15.6165 21.5983 15.6691 21.6102C15.7982 21.6413 15.9153 21.6091 16.0193 21.5301L16.0229 21.5349Z" fill="black"/>
<path d="M15.3196 27.0772C15.2945 27.1071 15.2718 27.1394 15.2491 27.1729C15.2001 27.2446 15.1379 27.3008 15.0542 27.3259C15.0052 27.3402 14.9658 27.3641 14.9287 27.4012C14.863 27.4681 14.7805 27.4992 14.6884 27.504C14.6442 27.5064 14.5987 27.504 14.5545 27.5088C14.5151 27.5124 14.4756 27.5207 14.4385 27.5315C14.3991 27.5435 14.3716 27.5721 14.3525 27.6092C14.3321 27.6499 14.3238 27.6929 14.3238 27.7383C14.3238 27.8471 14.3238 27.9571 14.3238 28.0659C14.3226 28.2297 14.319 28.3935 14.2987 28.556C14.2843 28.6792 14.264 28.8011 14.2293 28.9207C14.1457 29.21 13.9902 29.4539 13.7571 29.6451C13.4427 29.9046 13.0817 30.0134 12.6764 29.9727C12.5568 29.9608 12.4433 29.9261 12.3381 29.8651C12.1886 29.779 12.0954 29.6511 12.0523 29.4838C12.0236 29.3714 12.0224 29.2578 12.0416 29.1442C12.0727 28.9577 12.1253 28.7772 12.1898 28.5991C12.2185 28.5202 12.2496 28.4413 12.2807 28.3624C12.2986 28.3158 12.3082 28.2679 12.3058 28.2165C12.3046 28.1902 12.2878 28.1651 12.2675 28.1591C12.2424 28.152 12.2173 28.1627 12.203 28.1842C12.1946 28.1974 12.1862 28.2094 12.1802 28.2225C12.1061 28.3791 12.0284 28.5345 11.9591 28.6935C11.8383 28.9721 11.7523 29.2614 11.714 29.5639C11.6865 29.785 11.7104 30.0002 11.7941 30.2058C11.9017 30.47 12.0942 30.6434 12.3691 30.7247C12.57 30.7833 12.7708 30.7749 12.9717 30.7307C13.2144 30.6769 13.426 30.5609 13.6125 30.3995C13.8288 30.2118 14.001 29.9895 14.1385 29.7396C14.2509 29.5352 14.3429 29.3212 14.4146 29.0988C14.5222 28.7617 14.5892 28.4174 14.6155 28.0647C14.6179 28.0324 14.631 28.0061 14.6609 27.9942C14.7398 27.9619 14.808 27.9129 14.8737 27.8603C14.9275 27.8172 14.9861 27.7778 15.0506 27.7515C15.1307 27.718 15.1917 27.6606 15.2431 27.5925C15.2969 27.5207 15.34 27.443 15.371 27.3582C15.3961 27.2912 15.4045 27.2243 15.4033 27.1537C15.4033 27.1346 15.3973 27.1143 15.3914 27.0963C15.3842 27.07 15.3328 27.0557 15.316 27.076L15.3196 27.0772Z" fill="black"/>
<path d="M6.12617 19.9887C6.12139 19.9732 6.10585 19.9684 6.09031 19.9672C6.06879 19.9648 6.04966 19.9732 6.0389 19.9899C6.01977 20.0186 5.99945 20.0473 5.9863 20.0784C5.92174 20.229 5.86436 20.382 5.81893 20.5398C5.76871 20.7168 5.73883 20.8973 5.74959 21.0838C5.75198 21.1328 5.75198 21.183 5.75198 21.232C5.75078 21.3169 5.74241 21.4006 5.72089 21.4831C5.61569 21.8955 5.39572 22.2255 5.0287 22.4479C4.74417 22.62 4.43573 22.6953 4.10219 22.6499C3.97785 22.6332 3.86069 22.5949 3.7531 22.5292C3.60725 22.4395 3.51161 22.3128 3.47216 22.143C3.44944 22.0438 3.44705 21.9458 3.46259 21.8477C3.48292 21.715 3.514 21.5847 3.56182 21.4592C3.60007 21.3576 3.63713 21.2548 3.67539 21.1519C3.6993 21.0862 3.72441 21.0216 3.74473 20.9559C3.7519 20.9332 3.75071 20.9069 3.74951 20.883C3.74832 20.8614 3.73158 20.8483 3.71245 20.8411C3.69571 20.8339 3.66941 20.8435 3.65985 20.8578C3.64909 20.8746 3.63713 20.8901 3.62877 20.9081C3.57138 21.0228 3.5128 21.1388 3.45661 21.2548C3.39325 21.3886 3.33587 21.5261 3.29044 21.6684C3.23186 21.8549 3.20078 22.045 3.21393 22.2398C3.21751 22.2889 3.21871 22.3391 3.2199 22.3737C3.2199 22.5076 3.2199 22.626 3.2199 22.7455C3.2199 22.8221 3.24023 22.8926 3.28088 22.9571C3.34424 23.0588 3.41955 23.1508 3.50922 23.2309C3.55823 23.274 3.61083 23.3098 3.66702 23.3421C3.79614 23.4138 3.93481 23.4473 4.08067 23.4485C4.32814 23.4509 4.56245 23.3935 4.78003 23.274C4.99283 23.158 5.16618 22.9966 5.31801 22.8101C5.57146 22.4981 5.74361 22.143 5.86435 21.7605C5.97434 21.4138 6.03412 21.0575 6.06998 20.6965C6.08672 20.5231 6.10346 20.351 6.12856 20.1788C6.13454 20.1346 6.13813 20.0903 6.13932 20.0449C6.13932 20.0258 6.13334 20.0067 6.12737 19.9875L6.12617 19.9887Z" fill="black"/>
<path d="M19.2154 26.9661C19.2035 26.9577 19.1903 26.9494 19.1772 26.9434C19.1318 26.9207 19.0744 26.9314 19.0421 26.9709C19.023 26.9936 19.0062 27.0187 18.9895 27.0426C18.9381 27.1215 18.8783 27.1945 18.8102 27.2602C18.7241 27.3427 18.6512 27.4371 18.5854 27.5364C18.528 27.6236 18.4766 27.7133 18.4312 27.8077C18.4073 27.8568 18.3846 27.907 18.3451 27.9464C18.2818 28.0122 18.2662 28.0241 18.2064 27.95C18.1873 27.9273 18.167 27.9058 18.1455 27.8843C18.1275 27.8675 18.1096 27.8496 18.0893 27.8364C17.9769 27.7611 17.8872 27.7599 17.7749 27.846C17.7557 27.8615 17.7378 27.8795 17.7211 27.8974C17.7007 27.9189 17.6816 27.9416 17.6637 27.9655C17.5621 28.1078 17.4832 28.262 17.4306 28.4294C17.4126 28.4868 17.4043 28.5454 17.4102 28.6051C17.4186 28.708 17.47 28.7821 17.5597 28.8299C17.6087 28.855 17.6601 28.8729 17.7151 28.8765C17.7641 28.8789 17.8143 28.8825 17.8633 28.8861C17.8765 28.8861 17.8872 28.9076 17.8825 28.9196C17.8741 28.9375 17.8657 28.9554 17.855 28.9722C17.7808 29.0857 17.6828 29.1778 17.5776 29.2603C17.4987 29.3212 17.4174 29.3774 17.3397 29.4384C17.262 29.4994 17.1855 29.5627 17.109 29.6273C17.0982 29.6357 17.0922 29.65 17.0863 29.6632C17.0851 29.6667 17.0875 29.6763 17.0898 29.6763C17.1185 29.6823 17.1472 29.6883 17.1628 29.6907C17.2465 29.6871 17.3146 29.6835 17.3827 29.6608C17.4389 29.6416 17.4975 29.6285 17.5549 29.6129C17.7247 29.5651 17.8562 29.4659 17.9482 29.3153C18.0283 29.1838 18.1036 29.0499 18.1526 28.9028C18.1957 28.7749 18.2555 28.6554 18.3224 28.5394C18.3977 28.4055 18.4766 28.274 18.5531 28.1401C18.5806 28.0923 18.6129 28.0492 18.6536 28.0122C18.7241 27.95 18.8066 27.9213 18.8998 27.9297C18.9249 27.9321 18.9488 27.9369 18.9728 27.9428C19.0505 27.9608 19.1198 27.9381 19.1856 27.8998C19.2561 27.8591 19.3111 27.803 19.3505 27.7324C19.4294 27.5926 19.4545 27.4455 19.4175 27.2877C19.3864 27.1562 19.3218 27.0498 19.2131 26.9697L19.2154 26.9661Z" fill="black"/>
<path d="M22.1617 24.8559C22.1689 24.8427 22.1725 24.8284 22.1773 24.814C22.1868 24.7854 22.1701 24.7495 22.1366 24.7256C22.1103 24.7065 22.0792 24.7053 22.0553 24.7268C22.0111 24.7662 21.968 24.8069 21.925 24.8487C21.8162 24.9515 21.6991 25.0412 21.5628 25.1069C21.4265 25.1727 21.2806 25.205 21.1312 25.1966C21.0212 25.1894 20.9148 25.1942 20.806 25.2062C20.6028 25.2277 20.4235 25.3042 20.2633 25.4273C20.1043 25.5505 19.9799 25.7035 19.8735 25.8721C19.858 25.896 19.852 25.9271 19.8448 25.9558C19.8377 25.9821 19.8675 26.0191 19.8938 26.0179C19.9178 26.0179 19.9441 26.0155 19.9656 26.0072C19.9979 25.994 20.0265 25.9749 20.0576 25.9581C20.1999 25.8804 20.3505 25.8398 20.5119 25.8362C20.5765 25.835 20.641 25.8362 20.7056 25.8362C20.7056 25.8362 20.7056 25.8374 20.7056 25.8386C20.7701 25.8386 20.8347 25.8386 20.8993 25.8386C21.118 25.8338 21.3177 25.7705 21.497 25.6437C21.7863 25.4381 22.0039 25.1727 22.1629 24.8583L22.1617 24.8559Z" fill="black"/>
<path d="M7.34622 28.2775C7.3534 28.2214 7.33666 28.1532 7.31514 28.0875C7.28286 27.9858 7.22309 27.901 7.13701 27.8376C7.08321 27.7981 7.02224 27.7766 6.95649 27.785C6.9015 27.7922 6.85009 27.8113 6.80944 27.8507C6.77717 27.8818 6.74608 27.9129 6.71859 27.9488C6.60501 28.0946 6.52611 28.2596 6.46992 28.4353C6.45199 28.4927 6.44601 28.5513 6.45199 28.6111C6.45916 28.7019 6.5034 28.7701 6.57991 28.8179C6.63131 28.8502 6.68631 28.8705 6.74728 28.8741C6.78195 28.8765 6.81662 28.8765 6.85129 28.8789C6.87161 28.8789 6.89074 28.8825 6.90987 28.8837C6.92302 28.8849 6.93258 28.9064 6.9278 28.9183C6.90269 28.9793 6.85846 29.0259 6.81542 29.0737C6.70065 29.1969 6.57393 29.3081 6.43167 29.4001C6.37309 29.4384 6.3157 29.4754 6.25951 29.5161C6.21169 29.5508 6.16626 29.5902 6.13518 29.6416C6.1292 29.6512 6.13518 29.6751 6.14594 29.6799C6.18778 29.7014 6.23202 29.7026 6.27625 29.6942C6.41254 29.6691 6.54643 29.6309 6.67674 29.583C6.80108 29.5376 6.89911 29.4551 6.97084 29.3427C7.12984 29.0941 7.24819 28.8287 7.31514 28.5417C7.33427 28.4605 7.3522 28.3768 7.35101 28.2775H7.34622Z" fill="black"/>
<path d="M10.9756 27.8394C10.8728 27.7653 10.7604 27.7677 10.6588 27.843C10.6062 27.8813 10.5655 27.9315 10.5285 27.9841C10.4424 28.106 10.3743 28.2375 10.3264 28.3798C10.3109 28.4264 10.2978 28.4742 10.287 28.5233C10.2655 28.6237 10.3097 28.7612 10.4281 28.8257C10.4759 28.852 10.5273 28.8711 10.5823 28.8747C10.617 28.8759 10.6516 28.8747 10.6863 28.8771C10.7006 28.8771 10.7162 28.8795 10.7305 28.8819C10.7544 28.8855 10.7712 28.9202 10.758 28.9381C10.7293 28.9775 10.7006 29.0194 10.6684 29.0552C10.5548 29.1808 10.4293 29.292 10.2882 29.3864C10.2344 29.4223 10.1806 29.4569 10.128 29.494C10.0706 29.5335 10.0192 29.5801 9.97617 29.6351C9.97138 29.6422 9.97019 29.653 9.96899 29.6614C9.9666 29.6721 9.98214 29.6817 10.0025 29.6817C10.0276 29.6817 10.0515 29.6817 10.085 29.6817C10.2189 29.6865 10.3492 29.641 10.4807 29.5944C10.6217 29.5442 10.7305 29.4593 10.8118 29.3326C10.9768 29.0756 11.0964 28.8006 11.1573 28.5005C11.18 28.3882 11.1884 28.2746 11.1705 28.161C11.1501 28.0271 11.0856 27.9183 10.9768 27.8394H10.9756Z" fill="black"/>
<path d="M30.9906 27.8832C30.8651 27.7553 30.7145 27.7517 30.5829 27.8772C30.5578 27.9012 30.5351 27.9287 30.5148 27.9561C30.4024 28.1032 30.3235 28.2682 30.2685 28.4451C30.2506 28.5025 30.2482 28.5623 30.253 28.622C30.2578 28.6734 30.2757 28.7189 30.3092 28.7571C30.3319 28.7822 30.3594 28.805 30.3881 28.8241C30.4431 28.8599 30.5052 28.8779 30.571 28.8791C30.6152 28.8791 30.6607 28.8815 30.7049 28.8827C30.724 28.8827 30.736 28.909 30.7264 28.9269C30.7192 28.94 30.7121 28.9532 30.7037 28.9652C30.6487 29.0476 30.5818 29.1218 30.5064 29.1875C30.4168 29.2652 30.3223 29.3381 30.2291 29.4123C30.1514 29.4744 30.0737 29.5354 29.996 29.5976C29.9804 29.6095 29.9697 29.6263 29.9565 29.6406C29.9541 29.6442 29.9517 29.6514 29.9541 29.6538C29.9589 29.6621 29.9649 29.6729 29.9709 29.6741C29.9995 29.6801 30.0294 29.6813 30.039 29.6825C30.1239 29.6836 30.1872 29.6777 30.2494 29.6562C30.3199 29.6322 30.3905 29.6107 30.4622 29.588C30.5913 29.5486 30.6893 29.4697 30.7599 29.3549C30.8304 29.2413 30.8986 29.1253 30.9547 29.0034C31.0193 28.8635 31.0743 28.7201 31.1042 28.5682C31.1209 28.481 31.1365 28.3925 31.1424 28.304C31.1544 28.1426 31.1042 27.9992 30.9906 27.8832Z" fill="black"/>
<path d="M8.21192 29.259C8.23463 29.2148 8.25376 29.1693 8.27289 29.1239C8.31473 29.0187 8.35538 28.9123 8.39722 28.8059C8.44146 28.6923 8.5084 28.5955 8.60883 28.5262C8.64947 28.4987 8.69371 28.476 8.73914 28.4568C8.94596 28.3672 9.08583 28.2153 9.17071 28.0085C9.21734 27.8937 9.2532 27.7754 9.28309 27.6546C9.29026 27.626 9.28907 27.5961 9.28787 27.5662C9.28787 27.5387 9.26157 27.5112 9.23288 27.504C9.18984 27.4933 9.148 27.504 9.12648 27.5375C9.10257 27.5746 9.08105 27.614 9.06073 27.6535C9.00215 27.767 8.92085 27.8567 8.80011 27.9069C8.78217 27.9141 8.76424 27.9236 8.74631 27.9332C8.54786 28.0396 8.39722 28.1914 8.29919 28.3947C8.27767 28.4389 8.25974 28.4855 8.23942 28.531C8.16769 28.6971 8.06607 28.8418 7.93576 28.9673C7.8461 29.0534 7.74807 29.1275 7.64406 29.1957C7.54124 29.2638 7.43843 29.3331 7.33681 29.4037C7.29258 29.4348 7.25074 29.4706 7.21009 29.5065C7.19574 29.5196 7.18498 29.5364 7.17542 29.5543C7.14434 29.6129 7.1802 29.681 7.24476 29.6858C7.25911 29.687 7.27465 29.6882 7.29258 29.6894C7.31888 29.6858 7.34877 29.6846 7.37866 29.6786C7.51494 29.6523 7.65123 29.6272 7.78632 29.5985C7.98477 29.5567 8.12226 29.4371 8.21312 29.2602L8.21192 29.259Z" fill="black"/>
<path d="M9.20136 20.1717C9.19897 20.1454 9.18104 20.1263 9.15713 20.1167C9.11887 20.1012 9.07345 20.1108 9.04834 20.1406C9.0328 20.1598 9.01845 20.1801 9.0065 20.2016C8.98857 20.2315 8.97422 20.2626 8.95748 20.2937C8.90488 20.3869 8.83315 20.4598 8.73392 20.5041C8.71121 20.5136 8.68849 20.5256 8.66698 20.5364C8.502 20.6248 8.3681 20.7468 8.26768 20.9058C8.22583 20.9727 8.18997 21.0444 8.16008 21.1174C8.06922 21.3433 7.92337 21.5286 7.7309 21.6769C7.67232 21.7223 7.61015 21.7641 7.54918 21.806C7.45115 21.8729 7.35073 21.9375 7.25389 22.0056C7.20966 22.0367 7.16901 22.0738 7.12717 22.1096C7.11282 22.1228 7.09967 22.1395 7.0913 22.1563C7.05783 22.2184 7.0913 22.283 7.15586 22.2914C7.16542 22.2926 7.17618 22.2926 7.20368 22.2949C7.2252 22.2926 7.26465 22.2878 7.3041 22.2818C7.34355 22.2758 7.38181 22.2674 7.42126 22.2603C7.51332 22.2423 7.60656 22.2256 7.69862 22.2053C7.87675 22.1646 8.01423 22.0654 8.10509 21.9064C8.1278 21.8682 8.14693 21.8275 8.16367 21.7869C8.20551 21.6864 8.24496 21.5848 8.28561 21.4832C8.29996 21.4461 8.31311 21.4091 8.32865 21.372C8.38484 21.2441 8.4733 21.1485 8.59883 21.0863C8.62991 21.0708 8.66219 21.0576 8.69328 21.0433C8.78892 20.999 8.87021 20.9345 8.93955 20.8556C8.99574 20.7922 9.03997 20.7205 9.07464 20.6428C9.13083 20.516 9.16789 20.3821 9.20017 20.247C9.20615 20.2231 9.20495 20.198 9.20256 20.1729L9.20136 20.1717Z" fill="black"/>
<path d="M23.361 26.8265C23.3132 26.8062 23.2606 26.8194 23.2271 26.8588C23.2212 26.866 23.214 26.8744 23.2092 26.8827C23.1219 27.0142 23.0347 27.1469 22.9474 27.2796C22.9319 27.3047 22.9163 27.331 22.9056 27.3585C22.8924 27.3932 22.8972 27.4279 22.9223 27.4554C22.9426 27.4769 22.9629 27.4984 22.9857 27.5175C23.0538 27.5749 23.1231 27.6311 23.1925 27.6873C23.1997 27.6933 23.208 27.6993 23.2164 27.704C23.2606 27.7315 23.33 27.7291 23.3706 27.6957C23.4005 27.6706 23.4292 27.6419 23.4555 27.6132C23.4997 27.5666 23.5416 27.5175 23.5846 27.4697C23.5989 27.453 23.6205 27.4506 23.6372 27.4637C23.6886 27.502 23.7388 27.5427 23.7914 27.5797C23.8321 27.6084 23.8727 27.6359 23.9146 27.6622C23.9624 27.6909 24.009 27.6861 24.0532 27.6538C24.0688 27.6419 24.0855 27.6311 24.0999 27.6168C24.1776 27.5391 24.2433 27.4518 24.2923 27.355C24.3222 27.2976 24.339 27.2354 24.3354 27.1577C24.3402 27.0836 24.3055 27.0142 24.2529 26.9521C24.1907 26.8791 24.1142 26.8265 24.0269 26.7871C23.9827 26.7668 23.9409 26.7787 23.9086 26.8182C23.8871 26.8457 23.8667 26.8732 23.8476 26.9019C23.8117 26.9557 23.7783 27.0107 23.7424 27.0645C23.7293 27.0848 23.7149 27.1051 23.7006 27.1254C23.6922 27.1374 23.6743 27.1362 23.6647 27.1218C23.6324 27.0788 23.6013 27.0334 23.5667 26.9915C23.5093 26.9222 23.4423 26.8636 23.3587 26.8277L23.361 26.8265Z" fill="black"/>
<path d="M15.214 25.604C15.165 25.5777 15.1136 25.5885 15.0813 25.6327C15.043 25.6841 15.0072 25.7379 14.9713 25.7917C14.9378 25.8407 14.9043 25.8897 14.8709 25.9387C14.8613 25.9519 14.841 25.9531 14.8338 25.9423C14.8087 25.9053 14.786 25.867 14.7585 25.8312C14.6951 25.7463 14.6126 25.6841 14.5134 25.6423C14.4823 25.6291 14.4536 25.6363 14.4297 25.6566C14.4106 25.6722 14.3927 25.6901 14.3783 25.7104C14.2875 25.8467 14.1978 25.9842 14.1093 26.1205C14.0986 26.1372 14.0902 26.1551 14.0842 26.1743C14.0723 26.2149 14.0771 26.2532 14.1058 26.2854C14.1117 26.2926 14.1177 26.301 14.1261 26.307C14.2074 26.3727 14.2875 26.4385 14.3688 26.503C14.3759 26.509 14.3855 26.5138 14.3939 26.5186C14.4465 26.5497 14.4991 26.5449 14.5469 26.5102C14.5947 26.4755 14.6366 26.4313 14.6712 26.3835C14.6915 26.356 14.7119 26.3273 14.7334 26.301C14.7513 26.2795 14.7908 26.2723 14.8159 26.2878C14.8529 26.3117 14.8888 26.338 14.9259 26.3643C14.9785 26.4014 15.0299 26.4397 15.0849 26.4743C15.1375 26.5066 15.1913 26.4982 15.2367 26.4576C15.3383 26.3679 15.4208 26.2627 15.477 26.1396C15.4997 26.0906 15.5176 26.038 15.5153 26.0045C15.5129 25.8981 15.4794 25.8276 15.4268 25.7654C15.3682 25.6961 15.2941 25.647 15.214 25.6052V25.604Z" fill="black"/>
<path d="M4.33996 25.6186C4.24671 25.5684 4.19171 25.5995 4.14868 25.6652C4.09727 25.7441 4.04706 25.823 3.99446 25.9019C3.9837 25.9175 3.96935 25.9318 3.95501 25.945C3.95142 25.9486 3.94305 25.951 3.94186 25.9498C3.9311 25.939 3.92034 25.9294 3.91316 25.9163C3.86056 25.8242 3.79122 25.7465 3.70275 25.6891C3.67406 25.67 3.64178 25.6569 3.60951 25.6425C3.57962 25.6294 3.55093 25.6389 3.52462 25.6557C3.50789 25.6664 3.49235 25.6808 3.48159 25.6963C3.38595 25.841 3.2915 25.9868 3.19706 26.1327C3.18869 26.1446 3.18391 26.159 3.17912 26.1733C3.16597 26.214 3.16956 26.251 3.19945 26.2845C3.20901 26.2953 3.21977 26.3072 3.23053 26.3156C3.30346 26.3754 3.37638 26.4351 3.4505 26.4925C3.47322 26.5105 3.50071 26.5248 3.52821 26.5344C3.54495 26.5403 3.56886 26.5415 3.5856 26.5344C3.61309 26.5248 3.64178 26.5116 3.66211 26.4913C3.70156 26.4543 3.73742 26.4124 3.77329 26.3718C3.79242 26.3491 3.80915 26.324 3.82828 26.3012C3.851 26.2749 3.89403 26.269 3.92273 26.2893C3.96337 26.318 4.00163 26.3491 4.04228 26.3778C4.08651 26.4088 4.13074 26.4411 4.17737 26.4698C4.22997 26.5009 4.28257 26.4961 4.3292 26.4555C4.43201 26.367 4.5145 26.2618 4.56949 26.1375C4.59221 26.0884 4.60895 26.0358 4.60655 25.9856C4.60655 25.896 4.57428 25.8242 4.52287 25.7621C4.47146 25.6999 4.4081 25.6533 4.33757 25.615L4.33996 25.6186Z" fill="black"/>
<path d="M9.04433 30.2432C9.00249 30.2349 8.96423 30.2432 8.93793 30.2791C8.91402 30.3102 8.8925 30.3436 8.86979 30.3771C8.82555 30.4429 8.78132 30.5086 8.73589 30.5732C8.72752 30.5851 8.70481 30.5875 8.69763 30.5768C8.66775 30.5373 8.63786 30.4979 8.60678 30.4596C8.55059 30.3879 8.48125 30.3341 8.39995 30.2934C8.3868 30.2875 8.37246 30.2815 8.35811 30.2779C8.33779 30.2731 8.31627 30.2755 8.30192 30.2887C8.27323 30.3161 8.24454 30.3436 8.22302 30.3771C8.14173 30.4967 8.06402 30.6174 7.98512 30.737C7.97196 30.7573 7.96001 30.78 7.94925 30.8027C7.92773 30.8505 7.9349 30.9031 7.97794 30.9378C8.06163 31.0083 8.1477 31.0753 8.23258 31.1434C8.23976 31.1494 8.24932 31.1554 8.25769 31.159C8.31149 31.1829 8.36409 31.1841 8.41191 31.1458C8.44658 31.1183 8.47766 31.0861 8.50994 31.055C8.53863 31.0275 8.56374 30.9964 8.59243 30.9689C8.63308 30.9306 8.66894 30.927 8.71318 30.9569C8.75024 30.982 8.78491 31.0095 8.82197 31.0358C8.86261 31.0645 8.90207 31.0944 8.94391 31.1195C8.99053 31.1482 9.03955 31.1458 9.08259 31.11C9.18779 31.0239 9.27267 30.9211 9.33006 30.7979C9.35516 30.7441 9.37309 30.6868 9.3707 30.6258C9.3707 30.6162 9.3707 30.6055 9.3707 30.5959C9.35516 30.45 9.19257 30.2731 9.04553 30.2432H9.04433Z" fill="black"/>
<path d="M8.80771 23.1061C8.80771 23.1061 8.79814 23.1026 8.79456 23.1002C8.75271 23.081 8.70131 23.0882 8.67262 23.1241C8.64512 23.1587 8.62001 23.1958 8.59491 23.2329C8.55546 23.2902 8.5172 23.3476 8.47775 23.4038C8.46938 23.4158 8.45743 23.4265 8.44547 23.4337C8.43949 23.4373 8.42395 23.4337 8.42036 23.4289C8.40243 23.4062 8.38689 23.3811 8.36896 23.356C8.30799 23.2699 8.23387 23.1994 8.14062 23.148C8.0665 23.1073 8.02346 23.1133 7.97564 23.1827C7.87761 23.3249 7.78316 23.4708 7.68752 23.6154C7.67437 23.6357 7.66242 23.6597 7.65763 23.6824C7.65405 23.7003 7.65763 23.7218 7.666 23.7386C7.67437 23.7553 7.68752 23.772 7.70306 23.784C7.77838 23.8485 7.8537 23.9119 7.93021 23.9753C7.94575 23.9872 7.96249 23.998 7.98042 24.0076C8.02824 24.0327 8.07606 24.0327 8.12029 24.0016C8.16094 23.9741 8.19681 23.9394 8.22669 23.8988C8.24702 23.8701 8.26615 23.8414 8.28766 23.8151C8.32592 23.7685 8.39885 23.7589 8.44906 23.7948C8.47655 23.8151 8.50166 23.8402 8.52796 23.8617C8.57458 23.8988 8.62001 23.9358 8.66903 23.9693C8.70489 23.9932 8.74435 23.9908 8.78141 23.9693C8.78978 23.9645 8.79934 23.9597 8.80651 23.9526C8.90933 23.8653 8.9966 23.7649 9.05757 23.6441C9.08267 23.5951 9.09343 23.5425 9.1018 23.4911C9.09941 23.4732 9.09702 23.4588 9.09463 23.4445C9.08148 23.3692 9.04561 23.3046 8.99421 23.2496C8.94041 23.191 8.87466 23.1456 8.80771 23.1038V23.1061Z" fill="black"/>
<path d="M28.3169 26.8442C28.3109 26.8371 28.3049 26.8287 28.2965 26.8239C28.2714 26.8096 28.2284 26.8168 28.214 26.8371C28.2009 26.8574 28.1866 26.8789 28.177 26.9016C28.1256 27.014 28.0754 27.1276 28.0264 27.2412C27.9965 27.3093 27.969 27.3786 27.9451 27.4492C27.914 27.5436 27.8865 27.6393 27.8781 27.7385C27.8578 27.98 27.8387 28.2227 27.8183 28.4653C27.8016 28.6734 27.7777 28.8802 27.7358 29.0834C27.7179 29.1707 27.6964 29.2568 27.6785 29.344C27.6713 29.3775 27.6677 29.4122 27.6641 29.4469C27.6629 29.4624 27.6809 29.4875 27.6952 29.4935C27.7155 29.5018 27.7347 29.4995 27.7526 29.4899C27.7657 29.4827 27.7777 29.4732 27.7861 29.4612C27.8183 29.417 27.853 29.3739 27.8793 29.3273C27.9845 29.1348 28.0646 28.9328 28.1172 28.72C28.1638 28.5311 28.1806 28.3386 28.2009 28.1461C28.2248 27.9142 28.2415 27.6823 28.2595 27.4492C28.2714 27.2961 28.2906 27.1431 28.3181 26.9925C28.3228 26.9638 28.3252 26.9339 28.3288 26.904C28.3276 26.8885 28.3264 26.8741 28.324 26.8598C28.324 26.855 28.3216 26.8502 28.3193 26.8466L28.3169 26.8442Z" fill="black"/>
<path d="M20.7079 26.8164C20.6864 26.8164 20.6685 26.8236 20.6553 26.8391C20.6398 26.8582 20.6242 26.8786 20.6147 26.9013C20.5393 27.0687 20.4652 27.236 20.4054 27.4094C20.3337 27.6174 20.2931 27.8302 20.2847 28.0502C20.2775 28.2379 20.2751 28.4267 20.2488 28.6132C20.2321 28.7256 20.2201 28.8392 20.201 28.9516C20.1783 29.0879 20.1472 29.2241 20.1114 29.358C20.1042 29.3867 20.1006 29.4166 20.1018 29.4453C20.1018 29.4644 20.1137 29.4824 20.1341 29.4919C20.1532 29.5015 20.1723 29.4979 20.1903 29.4884C20.2393 29.4597 20.2716 29.4154 20.2979 29.3676C20.3289 29.3114 20.3576 29.2528 20.3851 29.1955C20.4903 28.9695 20.5668 28.734 20.5991 28.4865C20.6242 28.3 20.6434 28.1123 20.6577 27.9246C20.6744 27.6927 20.6912 27.4596 20.7211 27.2289C20.7282 27.1703 20.7378 27.1117 20.7462 27.0519C20.7533 27.0029 20.7593 26.9539 20.7653 26.9001C20.7629 26.8845 20.7593 26.8654 20.7557 26.8463C20.7521 26.8296 20.7306 26.8164 20.7103 26.8164H20.7079Z" fill="black"/>
<path d="M10.0216 19.4909C10.0192 19.4813 10.018 19.4658 10.0132 19.4526C10.0024 19.4203 9.95102 19.406 9.92711 19.4299C9.91277 19.443 9.89723 19.4574 9.89005 19.4753C9.7968 19.6833 9.69877 19.889 9.63063 20.1077C9.59237 20.2309 9.56129 20.3564 9.55651 20.4855C9.54575 20.733 9.52901 20.9805 9.50151 21.2267C9.47163 21.4826 9.43457 21.7372 9.36045 21.9847C9.35566 21.999 9.35447 22.0134 9.35208 22.0289C9.34849 22.0516 9.36403 22.0779 9.38675 22.0899C9.41185 22.103 9.43457 22.0994 9.45728 22.0863C9.46924 22.0791 9.48239 22.0684 9.49076 22.0576C9.51706 22.0217 9.54455 21.9859 9.56607 21.9476C9.70475 21.693 9.80637 21.4252 9.84941 21.1383C9.8781 20.9422 9.89603 20.7449 9.91157 20.5477C9.93548 20.2464 9.95581 19.9452 10.0024 19.6463C10.0108 19.5973 10.0156 19.5482 10.0228 19.4944L10.0216 19.4909Z" fill="black"/>
<path d="M18.1812 19.4163C18.1633 19.4091 18.1274 19.4199 18.1142 19.4378C18.1011 19.4582 18.0879 19.4797 18.0772 19.5012C18.0317 19.6004 17.9875 19.6996 17.9445 19.8001C17.9134 19.873 17.8835 19.9459 17.8548 20.02C17.8225 20.1037 17.7962 20.1886 17.7831 20.2771C17.7675 20.3894 17.7484 20.5018 17.7496 20.6166C17.7508 20.7852 17.7233 20.9525 17.7102 21.1199C17.703 21.2131 17.691 21.3064 17.6779 21.3996C17.6504 21.5957 17.6181 21.7906 17.5643 21.9819C17.5619 21.9914 17.5583 22.001 17.5571 22.0105C17.5559 22.0201 17.5547 22.0297 17.5547 22.0404C17.5535 22.0608 17.5727 22.0895 17.5942 22.099C17.6145 22.1074 17.6336 22.099 17.6492 22.0859C17.7018 22.0392 17.7436 21.9842 17.7759 21.9221C17.8835 21.7153 17.972 21.5001 18.0198 21.2717C18.0676 21.0482 18.0855 20.821 18.1047 20.5951C18.119 20.4277 18.1274 20.2591 18.1429 20.0918C18.1549 19.9638 18.174 19.8359 18.1907 19.7092C18.2003 19.6363 18.2123 19.5622 18.223 19.488C18.223 19.4845 18.223 19.4797 18.223 19.4749C18.223 19.4558 18.2003 19.4247 18.1812 19.4175V19.4163Z" fill="black"/>
<path d="M7.09775 19.4705C7.09536 19.4478 7.07145 19.4227 7.04993 19.4191C7.02842 19.4143 7.00929 19.4251 6.99733 19.4394C6.9782 19.4622 6.96147 19.4873 6.94951 19.5136C6.87539 19.675 6.80486 19.8399 6.74747 20.0085C6.67455 20.2213 6.6339 20.4377 6.62434 20.6624C6.61597 20.8657 6.6076 21.0677 6.5801 21.2698C6.55739 21.4419 6.53109 21.6129 6.49164 21.7814C6.47609 21.8484 6.45816 21.9165 6.44142 21.9835C6.43784 21.9978 6.43425 22.0122 6.43066 22.0265C6.42588 22.0492 6.43903 22.0755 6.46175 22.0887C6.48327 22.1018 6.51196 22.1006 6.53109 22.0851C6.58488 22.0397 6.62673 21.9835 6.65781 21.9213C6.69726 21.8412 6.73552 21.7611 6.77138 21.6786C6.84072 21.5184 6.89213 21.3534 6.91843 21.1813C6.93517 21.0689 6.94593 20.9553 6.95669 20.8418C6.97701 20.6397 6.99733 20.4377 7.01407 20.2356C7.03081 20.0276 7.05233 19.8208 7.08221 19.6152C7.08819 19.5757 7.09417 19.5363 7.09895 19.498C7.09895 19.4873 7.09656 19.4777 7.09536 19.4681L7.09775 19.4705Z" fill="black"/>
<path d="M27.4018 27.7497C27.3695 27.7365 27.3277 27.7473 27.3097 27.7772C27.2966 27.7975 27.2846 27.8202 27.2763 27.8429C27.2476 27.9266 27.2189 28.0115 27.1914 28.0964C27.1448 28.2422 27.0969 28.3881 27.0515 28.5351C26.9786 28.7742 26.8399 28.9703 26.6462 29.1269C26.6307 29.1388 26.6163 29.152 26.6008 29.1651C26.5052 29.244 26.4083 29.3206 26.3139 29.4007C26.2613 29.4449 26.2099 29.4927 26.1597 29.5393C26.1453 29.5525 26.1346 29.5704 26.125 29.5872C26.1047 29.6218 26.1262 29.6744 26.1644 29.684C26.1836 29.6888 26.2027 29.6924 26.223 29.6959C26.2673 29.6888 26.3127 29.6864 26.3545 29.6744C26.4825 29.6374 26.6116 29.6015 26.7371 29.5561C26.9021 29.4975 27.0264 29.3863 27.1053 29.2285C27.1268 29.1843 27.1472 29.1388 27.1639 29.0922C27.2105 28.9619 27.2476 28.828 27.2822 28.6941C27.3528 28.4203 27.3994 28.143 27.4484 27.8644C27.4508 27.8501 27.4508 27.8346 27.4508 27.8202C27.4508 27.7939 27.4281 27.7616 27.4018 27.7509V27.7497Z" fill="black"/>
<path d="M29.847 27.7492C29.8124 27.7349 29.7657 27.7516 29.7454 27.7899C29.7335 27.8114 29.7239 27.8341 29.7155 27.858C29.6761 27.98 29.6366 28.1031 29.5972 28.2262C29.5518 28.3673 29.5087 28.5096 29.4525 28.6482C29.3951 28.7881 29.3162 28.9125 29.2063 29.0165C29.1489 29.0715 29.0903 29.1253 29.0293 29.1767C28.9313 29.2591 28.8297 29.3392 28.7304 29.4217C28.6886 29.4564 28.648 29.4935 28.6097 29.5317C28.593 29.5485 28.5798 29.5712 28.5679 29.5927C28.5523 29.6202 28.5726 29.6704 28.6025 29.6812C28.6169 29.6859 28.6312 29.6895 28.6539 29.6955C28.6946 29.6895 28.7448 29.6859 28.7926 29.674C28.9373 29.6381 29.0783 29.5939 29.217 29.5389C29.388 29.4708 29.5051 29.3512 29.5709 29.1791C29.6283 29.0308 29.6773 28.8802 29.7179 28.7272C29.7813 28.4928 29.8219 28.2525 29.8638 28.0134C29.8745 27.9549 29.8829 27.8963 29.8901 27.8365C29.8949 27.7994 29.8745 27.7636 29.8447 27.7504L29.847 27.7492Z" fill="black"/>
<path d="M6.03124 27.7465C6.00135 27.7406 5.97146 27.7537 5.95353 27.7776C5.92364 27.8183 5.9081 27.8649 5.89137 27.9115C5.84355 28.0466 5.80768 28.1853 5.77182 28.3252C5.69889 28.6157 5.55543 28.8655 5.34622 29.0783C5.25895 29.1668 5.1633 29.2457 5.06169 29.3162C4.97202 29.3784 4.89073 29.4501 4.81183 29.5254C4.79389 29.5422 4.77955 29.5625 4.7664 29.5828C4.74488 29.6163 4.7664 29.6701 4.80226 29.6809C4.82139 29.6868 4.84052 29.6904 4.86323 29.6952C4.88954 29.6904 4.91942 29.6868 4.94811 29.6797C5.06766 29.6486 5.18841 29.6187 5.30557 29.5828C5.51478 29.5183 5.669 29.3868 5.76584 29.1895C5.8029 29.1142 5.83039 29.0341 5.85311 28.9528C5.93799 28.6479 6.00613 28.3383 6.06113 28.0263C6.07308 27.9581 6.08145 27.8888 6.08862 27.8207C6.09221 27.7872 6.06232 27.7513 6.03004 27.7441L6.03124 27.7465Z" fill="black"/>
<path d="M16.9435 27.7478C16.916 27.7382 16.8789 27.7478 16.8634 27.7717C16.8478 27.7968 16.8335 27.8231 16.8239 27.8506C16.7737 28.0013 16.7271 28.1519 16.6781 28.3025C16.6398 28.4197 16.6004 28.538 16.5573 28.6528C16.5059 28.7891 16.427 28.9086 16.3206 29.0091C16.2597 29.0676 16.1975 29.1238 16.1329 29.1776C16.0158 29.2769 15.8962 29.3737 15.7791 29.4729C15.7456 29.5016 15.7133 29.5339 15.6834 29.5662C15.6619 29.5901 15.6583 29.62 15.6727 29.6498C15.6846 29.6738 15.7073 29.6833 15.7324 29.6881C15.742 29.6893 15.7516 29.6905 15.7755 29.6941C15.8209 29.6857 15.8795 29.6785 15.9369 29.663C16.0469 29.6319 16.1545 29.5961 16.2632 29.5626C16.4653 29.4992 16.604 29.3665 16.6805 29.1693C16.7044 29.1095 16.7247 29.0485 16.745 28.9875C16.8694 28.6157 16.9327 28.2296 16.9973 27.8434C16.9997 27.8291 16.9973 27.8136 16.9925 27.7992C16.9841 27.7753 16.9686 27.7562 16.9435 27.7478Z" fill="black"/>
<path d="M23.2467 21.83C23.3112 21.6853 23.3614 21.5347 23.4021 21.3816C23.4666 21.1425 23.5121 20.8999 23.5527 20.6548C23.5635 20.5914 23.5754 20.5281 23.5838 20.4755C23.5826 20.4492 23.5814 20.4336 23.5802 20.4193C23.5802 20.4145 23.5778 20.4097 23.5766 20.4049C23.5718 20.3774 23.5419 20.3535 23.5121 20.3535C23.4858 20.3535 23.4618 20.3619 23.4487 20.3858C23.4296 20.4205 23.4128 20.4563 23.3997 20.4934C23.3459 20.6524 23.2921 20.8126 23.2514 20.9752C23.1833 21.2454 23.0506 21.4809 22.8497 21.6745C22.7924 21.7295 22.7326 21.7821 22.6692 21.8288C22.5497 21.9172 22.4385 22.0165 22.3261 22.1133C22.3106 22.1264 22.295 22.1396 22.2855 22.1563C22.2759 22.1731 22.2699 22.1922 22.2663 22.2113C22.2604 22.2532 22.2926 22.2926 22.3333 22.2914C22.3727 22.2914 22.4134 22.2902 22.4516 22.2819C22.6214 22.2448 22.7852 22.1922 22.9454 22.1241C23.0853 22.0643 23.1833 21.9674 23.2443 21.83H23.2467Z" fill="black"/>
<path d="M4.35272 21.4348C4.4376 21.5101 4.52368 21.5831 4.60976 21.6572C4.62052 21.6667 4.63247 21.6763 4.64443 21.6847C4.69105 21.7181 4.73767 21.7217 4.78071 21.6847C4.83331 21.6404 4.88472 21.5926 4.93135 21.5424C5.00308 21.4659 5.0509 21.3738 5.07839 21.2722C5.08557 21.2435 5.08915 21.2148 5.09393 21.1849C5.09393 21.1335 5.07839 21.0869 5.05209 21.0439C5.01862 20.9889 4.97797 20.9387 4.92656 20.8992C4.86081 20.8478 4.79147 20.8 4.72333 20.751C4.71496 20.745 4.7054 20.7426 4.69583 20.739C4.67073 20.7283 4.63127 20.7366 4.61454 20.7593C4.59661 20.7833 4.57867 20.8072 4.56433 20.8323C4.48303 20.9674 4.40293 21.1037 4.32284 21.2399C4.31327 21.2567 4.30371 21.2746 4.29653 21.2925C4.28458 21.3212 4.28697 21.3511 4.30371 21.3774C4.31686 21.3977 4.3324 21.4181 4.35153 21.4336L4.35272 21.4348Z" fill="black"/>
<path d="M16.9155 26.3184C16.8832 26.2957 16.8462 26.279 16.8067 26.273C16.7697 26.267 16.7386 26.279 16.7123 26.3053C16.7015 26.316 16.6932 26.328 16.6848 26.3399C16.5868 26.4882 16.4887 26.6376 16.3907 26.7871C16.3776 26.8074 16.3668 26.8301 16.3572 26.8528C16.3477 26.8767 16.3501 26.9018 16.3656 26.9233C16.3764 26.9389 16.3895 26.9556 16.405 26.9676C16.4863 27.0321 16.5676 27.0967 16.6513 27.1601C16.7338 27.221 16.7804 27.2198 16.8665 27.1601C16.8785 27.1517 16.8904 27.1433 16.9024 27.1326C17.0076 27.0381 17.0877 26.9257 17.1379 26.7942C17.1498 26.762 17.1534 26.7273 17.1582 26.7058C17.1546 26.6532 17.1498 26.6149 17.1319 26.5778C17.0817 26.4726 17.0112 26.3854 16.9155 26.3184Z" fill="black"/>
<path d="M29.3762 27.0137C29.4216 27.052 29.4671 27.0891 29.5137 27.1261C29.5364 27.1452 29.5603 27.162 29.5854 27.1787C29.6309 27.2098 29.6775 27.211 29.7241 27.1835C29.754 27.1656 29.7839 27.1488 29.8102 27.1261C29.9106 27.0353 29.9859 26.9277 30.0361 26.8009C30.0505 26.7639 30.0553 26.7244 30.0565 26.691C30.0565 26.6395 30.0457 26.5977 30.0266 26.5559C29.9716 26.4399 29.8831 26.3562 29.7731 26.2941C29.76 26.2869 29.7456 26.2833 29.7313 26.2797C29.6787 26.2642 29.6297 26.2773 29.5998 26.3215C29.5101 26.4566 29.4204 26.5941 29.3332 26.7304C29.3152 26.7591 29.3021 26.7926 29.2889 26.8237C29.2746 26.8583 29.2818 26.8906 29.2985 26.9229C29.3176 26.9587 29.3451 26.9862 29.375 27.0125L29.3762 27.0137Z" fill="black"/>
<path d="M27.7783 22.3793C27.7604 22.2848 27.7209 22.2011 27.6516 22.133C27.605 22.0876 27.556 22.0481 27.4986 22.0158C27.4209 21.9716 27.3695 21.98 27.3169 22.0457C27.3073 22.0577 27.2989 22.0696 27.2906 22.0816C27.1949 22.2262 27.0993 22.3709 27.006 22.5167C26.9594 22.5897 26.9678 22.6303 27.0335 22.6829C27.1148 22.7475 27.1973 22.8108 27.2798 22.8742C27.2953 22.8862 27.3133 22.8957 27.3312 22.9041C27.3444 22.9101 27.3599 22.9125 27.3742 22.916C27.3886 22.9125 27.4041 22.9125 27.4173 22.9053C27.599 22.8049 27.7197 22.653 27.7771 22.4534C27.7831 22.4307 27.7831 22.4032 27.7795 22.3805L27.7783 22.3793Z" fill="black"/>
<path d="M8.76277 31.138C8.73527 31.1189 8.7006 31.107 8.66952 31.095C8.63246 31.0819 8.60018 31.095 8.57508 31.1213C8.55475 31.1428 8.53802 31.1679 8.52247 31.193C8.43879 31.3221 8.3563 31.4501 8.27381 31.5792C8.25827 31.6043 8.24512 31.6306 8.23197 31.6581C8.22121 31.6832 8.22719 31.7071 8.24392 31.7274C8.25588 31.743 8.27022 31.7561 8.28577 31.7693C8.36347 31.8302 8.44118 31.8912 8.52008 31.9522C8.53921 31.9665 8.56073 31.9797 8.58345 31.9904C8.61692 32.006 8.65039 32.0048 8.68267 31.9845C8.74125 31.9474 8.79027 31.8972 8.83689 31.8458C8.90025 31.7752 8.95166 31.6963 8.98035 31.6055C8.98872 31.578 8.9935 31.5481 8.99948 31.5194C8.9947 31.4895 8.99231 31.4596 8.98274 31.4321C8.9421 31.3114 8.86797 31.2134 8.76397 31.1404L8.76277 31.138Z" fill="black"/>
<path d="M3.88593 25.685C3.92179 25.7053 3.96363 25.6981 4.00069 25.6802C4.01863 25.6718 4.03536 25.6599 4.04971 25.6467C4.16567 25.5415 4.24816 25.4148 4.29479 25.2641C4.31152 25.2103 4.31152 25.1577 4.29479 25.1039C4.28044 25.0549 4.25773 25.0131 4.22425 24.9748C4.16567 24.9067 4.09514 24.8517 4.01623 24.8087C3.96722 24.7812 3.91701 24.7907 3.88234 24.8302C3.86919 24.8445 3.85604 24.8601 3.84528 24.8768C3.76518 25.0071 3.68628 25.1386 3.60737 25.2701C3.59781 25.2869 3.58825 25.3048 3.58346 25.3239C3.57629 25.3478 3.5727 25.3717 3.57031 25.3825C3.57031 25.4327 3.58107 25.465 3.60618 25.4901C3.68747 25.5714 3.7867 25.6276 3.88593 25.6838V25.685Z" fill="black"/>
<path d="M14.7573 25.6692C14.8075 25.7062 14.8625 25.7038 14.9091 25.668C14.9964 25.601 15.0717 25.5233 15.1303 25.4301C15.165 25.3751 15.1889 25.3153 15.2008 25.2519C15.2032 25.2376 15.2044 25.2232 15.2056 25.2125C15.2056 25.2029 15.2044 25.1981 15.2032 25.1922C15.1721 25.0272 15.0849 24.9005 14.9402 24.8168C14.8577 24.769 14.8039 24.7821 14.7525 24.8634C14.6545 25.0176 14.56 25.1742 14.4632 25.3296C14.4584 25.338 14.4548 25.3476 14.4501 25.3559C14.4393 25.3799 14.4477 25.4181 14.4668 25.4384C14.4704 25.442 14.4728 25.4468 14.4764 25.4492C14.5696 25.5221 14.6617 25.5974 14.7573 25.668V25.6692Z" fill="black"/>
<path d="M18.7611 1.9497C18.7827 1.97002 18.8054 1.99035 18.8281 2.00948C19.2633 2.3741 19.6673 2.76742 20.0344 3.20139C20.8282 4.13986 21.3948 5.19788 21.7248 6.38262C21.824 6.73649 21.9005 7.09514 21.9543 7.45857C21.9794 7.62594 21.9998 7.79212 22.0165 7.96068C22.0428 8.21293 22.056 8.46519 22.0619 8.71863C22.0691 9.04142 22.0464 9.36301 22.0165 9.6846C21.9938 9.92728 21.9591 10.1676 21.9125 10.4055C21.7905 11.0355 21.5981 11.644 21.3375 12.2322C21.1055 12.7546 20.827 13.252 20.5078 13.7266C20.4779 13.772 20.4492 13.8186 20.4205 13.8641C20.4086 13.8677 20.4038 13.876 20.4085 13.8856C20.4097 13.8892 20.4145 13.8928 20.4181 13.8928C20.4396 13.8963 20.4552 13.8868 20.4647 13.8677C20.4827 13.8593 20.5006 13.8521 20.5173 13.8414C20.6847 13.7433 20.8449 13.6357 20.9991 13.5186C21.5192 13.1288 21.9663 12.6674 22.3453 12.1402C22.8498 11.4408 23.2096 10.6733 23.4128 9.83404C23.4631 9.62721 23.5037 9.418 23.5336 9.2064C23.5539 9.05935 23.5718 8.91111 23.5814 8.76287C23.591 8.62419 23.5958 8.48551 23.5946 8.34683C23.5922 8.1436 23.591 7.93916 23.5754 7.73712C23.5551 7.48487 23.5192 7.23501 23.4702 6.98635C23.3662 6.44837 23.2024 5.93072 22.9693 5.43459C22.4744 4.37776 21.7415 3.51939 20.7899 2.84752C20.2687 2.47931 19.7044 2.19239 19.0959 1.99633C18.9967 1.96405 18.8986 1.92818 18.7946 1.91503C18.7779 1.89471 18.7552 1.88873 18.7313 1.89112C18.7241 1.89112 18.7121 1.89949 18.7109 1.90427C18.7109 1.91264 18.7157 1.9234 18.7229 1.92818C18.7337 1.93655 18.7468 1.94253 18.7588 1.9497H18.7611Z" fill="black"/>
</g>
<defs>
<clipPath id="clip0_3337_23039">
<rect width="32" height="32" fill="white"/>
</clipPath>
</defs>
</svg>
