<svg width="24" height="24" viewBox="0 0 24 24" fill="none" xmlns="http://www.w3.org/2000/svg">
<g clip-path="url(#clip0_2789_19965)">
<path d="M5.83167 23.9441C4.99167 23.8181 4.18167 23.536 3.44967 23.116C1.79367 22.1858 0.557667 20.5235 0.161667 18.6872C0.00566708 17.9731 -0.0123329 17.0669 0.00566707 11.48C0.0236671 5.47295 0.00566708 5.779 0.305667 4.78883C0.449667 4.29675 0.851667 3.4506 1.14567 3.02453C2.22567 1.45226 3.80967 0.444084 5.77767 0.0780213C6.16767 0.00600896 6.73767 7.93522e-06 11.9697 7.93522e-06C18.3597 7.93522e-06 18.1497 -0.00599308 19.1937 0.312061C21.2457 0.960173 22.8777 2.50844 23.6037 4.49478C23.9397 5.43094 23.9577 5.58097 23.9817 8.04739L23.9997 10.2798L23.5977 10.5498C23.0277 10.9279 22.2777 11.612 21.2277 12.6982C20.0217 13.9524 18.7977 15.1166 18.1797 15.6027C16.8417 16.6529 15.6177 17.253 14.3697 17.469C13.7217 17.577 12.6477 17.535 12.0177 17.373C11.4537 17.229 11.4897 17.205 11.2737 17.8351C11.0997 18.3332 10.9917 18.8552 10.9497 19.3833L10.9197 19.7914L10.7697 19.7614C9.52767 19.5214 8.29767 18.4772 7.82367 17.259C7.66167 16.8689 7.57167 16.4608 7.55967 16.0408L7.54167 15.6987L7.22367 15.4167C6.56367 14.8286 6.13767 14.1024 5.99967 13.3583C5.78367 12.1641 6.34767 10.8139 7.57167 9.60166C8.86167 8.31744 10.7697 7.30926 12.6357 6.9192C13.3077 6.78117 14.4957 6.74517 15.0897 6.84718C16.2537 7.04522 17.2017 7.62132 17.7957 8.48546C17.9817 8.75551 17.9937 8.79752 17.9757 9.03756C17.9757 9.21759 17.9037 9.39162 17.7897 9.52964C17.3157 10.1778 15.8997 10.8799 14.3817 11.2099C11.6997 11.792 9.98967 11.0659 10.2597 9.45163C10.2837 9.2896 10.3017 9.14558 10.2897 9.13958C10.2597 9.10957 9.98967 9.24159 9.70167 9.43963C9.20967 9.77569 8.77767 10.4238 8.62767 11.0479C8.59167 11.2039 8.57367 11.456 8.59167 11.696C8.60967 12.0261 8.64567 12.1521 8.78967 12.4341C8.88567 12.6202 9.07167 12.8842 9.20967 13.0222L9.45567 13.2743L9.35967 13.3943C9.07167 13.7664 8.83767 14.1744 8.66967 14.6125C8.47767 15.2006 8.44167 15.8247 8.56167 16.4248C8.66967 16.8869 8.99367 17.517 9.31767 17.8951C9.56367 18.1771 10.1337 18.6572 10.2237 18.6572C10.2477 18.6572 10.2657 18.6092 10.2657 18.5492C10.2657 18.3212 10.4517 17.577 10.6017 17.223C11.0337 16.1668 11.9817 15.2606 13.4817 14.4805C13.7337 14.3485 14.4537 14.0124 15.0897 13.7244C16.4817 13.0943 17.2377 12.7102 17.6577 12.4221C18.8577 11.588 19.6017 10.3578 19.8477 8.79752C19.9377 8.22742 19.9377 7.16524 19.8477 6.58914C19.4697 4.15272 17.6037 2.49044 14.9217 2.22039C11.9337 1.91434 8.12367 4.17072 5.77767 7.64532C4.63767 9.33761 3.86367 11.2099 3.53967 13.0883C3.41367 13.8144 3.36567 15.1706 3.44367 15.8367C3.64167 17.541 4.28367 18.9153 5.38767 19.9954C5.93967 20.5415 6.58767 20.9856 7.30167 21.3097C9.71967 22.4379 12.4017 22.4619 14.7597 21.3817C15.7797 20.9136 16.7757 20.1875 17.8497 19.1313C18.8937 18.1051 19.5957 17.253 21.5217 14.6725C22.5837 13.2503 23.4297 12.3021 23.8437 12.0681L23.9997 11.9841L23.9817 15.0746C23.9637 18.0691 23.9577 18.1831 23.8557 18.6332C23.2437 21.3097 21.2577 23.272 18.5457 23.8781L18.0657 23.9861L12.1617 23.9981C7.31967 24.0041 6.17967 23.9981 5.83167 23.9441Z" fill="#E37600"/>
</g>
<defs>
<clipPath id="clip0_2789_19965">
<rect width="24" height="24" fill="white"/>
</clipPath>
</defs>
</svg>
