<svg width="56" height="56" viewBox="0 0 56 56" fill="none" xmlns="http://www.w3.org/2000/svg">
<g clip-path="url(#clip0_2308_14165)">
<path d="M48.4481 33.5161C47.4118 31.2179 42.0207 29.1742 40.1625 28.5269C37.2752 22.2031 38.8316 14.2284 38.8316 14.2284C38.3279 16.4975 37.677 17.3648 37.677 17.3648C37.1661 21.4667 33.8242 24.845 33.8242 24.845C33.7605 25.9486 33.9024 26.8868 34.166 27.685C28.9986 36.0271 24.7731 31.6615 22.6894 28.256C23.0912 27.3378 23.3294 26.2232 23.2549 24.8432C23.2549 24.8432 19.913 21.4667 19.402 17.363C19.402 17.363 18.7529 16.4957 18.2402 14.2266C18.2402 14.2266 19.7984 22.1758 16.9329 28.4942C14.7019 29.4451 12.4692 30.1251 12.4692 30.1251C10.0509 31.056 9.0309 32.4433 9.0309 32.4433C5.45628 37.7398 5.03809 49.5328 5.03809 49.5328C5.08354 52.2274 6.24539 52.5038 6.24539 52.5038C14.4638 56.173 27.344 56.8221 27.344 56.8221C40.5752 57.1003 50.21 53.0638 50.21 53.0638C51.61 52.1783 51.6519 51.4838 51.6519 51.4838C52.6246 43.0327 48.4481 33.5161 48.4481 33.5161ZM32.7405 47.2109H24.0894V43.929H32.7405V47.2109Z" fill="#212121"/>
<path d="M34.2458 9.07555C34.384 9.60283 35.2367 12.3156 38.095 13.5411C38.095 13.5411 38.2022 12.4247 38.5113 12.3193C38.5113 12.3193 38.8586 12.4938 38.9659 12.9138C38.9659 12.9138 39.7114 5.78456 36.4658 3.12632L36.4877 3.08632C29.7148 -2.89018 22.0455 1.65356 22.0455 1.65356C16.4272 5.27546 18 13.0829 18 13.0829C28.562 14.0793 34.0803 9.21919 34.2458 9.07555Z" fill="#212121"/>
</g>
<defs>
<clipPath id="clip0_2308_14165">
<rect width="56" height="56" fill="white"/>
</clipPath>
</defs>
</svg>
