<svg width="20" height="20" viewBox="0 0 20 20" fill="none" xmlns="http://www.w3.org/2000/svg">
<path d="M11.6666 1.89057V5.33268C11.6666 5.79939 11.6666 6.03275 11.7575 6.21101C11.8374 6.36781 11.9649 6.49529 12.1217 6.57519C12.2999 6.66602 12.5333 6.66602 13 6.66602H16.4421M16.6666 8.32287V14.3327C16.6666 15.7328 16.6666 16.4329 16.3942 16.9677C16.1545 17.4381 15.772 17.8205 15.3016 18.0602C14.7668 18.3327 14.0668 18.3327 12.6666 18.3327H7.33331C5.93318 18.3327 5.23312 18.3327 4.69834 18.0602C4.22793 17.8205 3.84548 17.4381 3.6058 16.9677C3.33331 16.4329 3.33331 15.7328 3.33331 14.3327V5.66602C3.33331 4.26588 3.33331 3.56582 3.6058 3.03104C3.84548 2.56063 4.22793 2.17818 4.69834 1.9385C5.23312 1.66602 5.93318 1.66602 7.33331 1.66602H10.0098C10.6213 1.66602 10.927 1.66602 11.2147 1.73509C11.4698 1.79633 11.7137 1.89734 11.9374 2.03442C12.1897 2.18902 12.4058 2.40521 12.8382 2.83759L15.4951 5.49444C15.9275 5.92682 16.1436 6.14301 16.2982 6.3953C16.4353 6.61898 16.5363 6.86285 16.5976 7.11794C16.6666 7.40566 16.6666 7.71139 16.6666 8.32287Z" stroke="#909090" stroke-width="1.5" stroke-linecap="round" stroke-linejoin="round"/>
</svg>
