<svg width="16" height="16" viewBox="0 0 16 16" fill="none" xmlns="http://www.w3.org/2000/svg">
<path d="M9.33268 1.51362V4.26732C9.33268 4.64069 9.33268 4.82737 9.40534 4.96998C9.46926 5.09542 9.57125 5.19741 9.69669 5.26132C9.8393 5.33398 10.026 5.33398 10.3993 5.33398H13.153M13.3327 6.65947V11.4673C13.3327 12.5874 13.3327 13.1475 13.1147 13.5753C12.9229 13.9516 12.617 14.2576 12.2407 14.4493C11.8128 14.6673 11.2528 14.6673 10.1327 14.6673H5.86602C4.74591 14.6673 4.18586 14.6673 3.75803 14.4493C3.38171 14.2576 3.07575 13.9516 2.884 13.5753C2.66602 13.1475 2.66602 12.5874 2.66602 11.4673V4.53398C2.66602 3.41388 2.66602 2.85383 2.884 2.426C3.07575 2.04968 3.38171 1.74372 3.75803 1.55197C4.18586 1.33398 4.74591 1.33398 5.86602 1.33398H8.0072C8.49638 1.33398 8.74097 1.33398 8.97115 1.38924C9.17522 1.43824 9.37031 1.51905 9.54925 1.6287C9.75109 1.75239 9.92404 1.92534 10.2699 2.27124L12.3954 4.39673C12.7413 4.74263 12.9143 4.91558 13.038 5.11741C13.1476 5.29636 13.2284 5.49145 13.2774 5.69552C13.3327 5.9257 13.3327 6.17029 13.3327 6.65947Z" stroke="#646464" stroke-linecap="round" stroke-linejoin="round"/>
</svg>
