<svg width="32" height="32" viewBox="0 0 32 32" fill="none" xmlns="http://www.w3.org/2000/svg">
<path fill-rule="evenodd" clip-rule="evenodd" d="M14.6779 0.455078H14.7107C14.8849 0.677191 15.2694 0.926227 15.6656 0.805916C15.7893 0.768055 15.8558 0.67046 16.0005 0.658682C16.0375 0.716734 16.1225 0.724306 16.1881 0.756277C16.4472 0.881636 16.7493 0.863968 16.963 0.715893C17.0328 0.667095 17.1439 0.490414 17.2078 0.471064V0.76469C17.1674 0.816853 17.1674 0.890049 17.1346 0.952308C17.0909 1.0356 16.9731 1.18115 16.857 1.18872V1.22154C16.857 1.22154 16.8519 1.22658 16.8486 1.22995C16.6786 1.25351 16.48 1.35699 16.2529 1.29557C16.1469 1.23331 16.0409 1.17021 15.9349 1.10796C15.8213 1.34353 15.3165 1.35531 15.0456 1.24678C15.0212 1.21985 14.9968 1.19209 14.9724 1.16517C14.7654 1.01204 14.6737 0.824425 14.6787 0.455078H14.6779ZM15.4284 8.87434C15.4284 8.64129 15.4393 8.35523 15.3956 8.17266C15.3981 7.93036 15.4006 7.68889 15.404 7.44659C15.404 6.95777 15.388 6.49504 15.388 5.99444C15.388 4.69289 15.3249 3.34255 15.3224 2.03763C15.3821 2.00734 15.4141 1.95602 15.4612 1.92321H15.51C15.5293 1.89629 15.5478 1.86852 15.5672 1.8416H15.616C15.632 1.8172 15.6488 1.7928 15.6648 1.76841H15.7136C15.727 1.74653 15.7405 1.72466 15.7548 1.70278C15.7994 1.65903 15.9071 1.5892 15.9752 1.57237C16.0165 1.62706 16.0762 1.64894 16.1385 1.6868C16.1578 1.71372 16.1763 1.74148 16.1957 1.76841C16.2209 1.78187 16.2428 1.76756 16.2613 1.78439C16.2722 1.80374 16.2832 1.82225 16.2941 1.8416C16.3135 1.84413 16.332 1.84665 16.3513 1.85001C16.3673 1.87441 16.3841 1.89881 16.4001 1.92321C16.4699 1.96191 16.5675 1.99472 16.5877 2.07045V2.69892C16.5112 3.09099 16.5633 3.58653 16.5633 4.08545C16.5633 5.16657 16.4977 6.3823 16.4977 7.51221C16.4927 7.97158 16.4868 8.43179 16.4817 8.89116C16.5339 8.86003 16.5894 8.82302 16.6449 8.78516C16.6853 8.75739 16.7038 8.6884 16.7425 8.66316H16.7998C16.8654 8.58996 16.9302 8.51593 16.9958 8.44273C17.1354 8.29802 17.3012 8.20379 17.4038 8.0187C17.4308 7.96906 17.5368 7.91521 17.5671 7.86389C17.6663 7.69815 17.7866 7.55344 17.8935 7.39863C17.9019 7.36582 17.9095 7.33301 17.9179 7.30104C17.9414 7.25224 18.0088 7.18577 18.0407 7.13782C18.1063 7.04022 18.1417 6.88457 18.1955 6.76258C18.2132 6.72136 18.2729 6.63975 18.2931 6.58338C18.5472 5.89516 18.6297 4.9638 18.416 4.22595V4.08713C18.2258 3.35517 17.9154 2.77885 17.5595 2.20254C17.5729 2.20001 17.5864 2.19749 17.5999 2.19412C17.6613 2.30938 17.8573 2.45746 17.9591 2.54496C17.9785 2.56179 17.9616 2.57693 17.9751 2.60217C18.0079 2.62657 18.0407 2.65097 18.0727 2.67537H18.0811V2.72416C18.1055 2.73763 18.1299 2.75109 18.1543 2.76455V2.81335C18.1762 2.82428 18.1981 2.83522 18.2199 2.84616C18.257 2.88738 18.2864 2.97488 18.3175 3.02536C18.3394 3.0363 18.3613 3.04724 18.3832 3.05817V3.10697C18.4092 3.14988 18.474 3.19531 18.506 3.23738C18.5085 3.25925 18.511 3.28113 18.5144 3.303C18.5312 3.33161 18.5817 3.36526 18.6044 3.39303C18.6128 3.42331 18.6204 3.45276 18.6288 3.48305C18.6482 3.52343 18.6919 3.54194 18.7104 3.57307C18.7239 3.59495 18.7239 3.64038 18.7432 3.67908C18.8038 3.79939 18.8938 3.9399 18.9553 4.06273C19.0243 4.20155 19.0402 4.36141 19.1185 4.48676C19.1429 4.61212 19.1673 4.73664 19.1917 4.862C19.2127 4.9394 19.2455 5.04289 19.2649 5.12282C19.2699 5.31296 19.2758 5.50394 19.2809 5.69408C19.2834 5.7168 19.3154 5.70839 19.3137 5.73447C19.3011 5.9305 19.2539 6.20898 19.248 6.41174C19.248 6.41174 19.2447 6.5127 19.2396 6.52617C19.2287 6.53121 19.2178 6.5371 19.2068 6.54215C19.2093 6.57244 19.2119 6.60189 19.2152 6.63217C19.2085 6.65152 19.174 6.71883 19.1664 6.73818V6.81979C19.1547 6.84419 19.1311 6.86859 19.1176 6.89299V7.01498C19.0764 7.12772 19.0074 7.26907 18.9628 7.37423C18.9132 7.49034 18.8812 7.63168 18.8156 7.75788C18.4479 8.46713 17.6621 9.29416 16.8662 9.56928C16.8662 9.59452 16.8578 9.58106 16.8746 9.60209C16.9865 9.67192 17.1489 9.66183 17.2827 9.7081C17.4863 9.77877 17.721 9.82337 17.9759 9.87973C18.0273 9.87721 18.0794 9.87469 18.1308 9.87132C18.2645 9.89993 18.4807 9.94284 18.6448 9.91171C18.7988 9.8831 18.9342 9.8343 19.1101 9.8301V9.85449C19.1101 9.85449 19.105 9.85954 19.1017 9.86291C18.9948 9.87385 18.8467 9.93779 18.7592 9.97733C18.7079 9.98238 18.6557 9.98827 18.6044 9.99332C18.5842 10.0017 18.559 10.0253 18.5312 10.0337H18.4412C18.246 10.117 17.8506 10.17 17.5679 10.1725C17.4636 10.1734 17.1354 10.2398 17.0294 10.1969C16.9579 10.1683 16.8317 10.1515 16.7762 10.1313H16.6618C16.6037 10.1119 16.5499 10.0648 16.4826 10.0497C16.3362 10.2558 16.1528 10.4081 16.0257 10.621C16.0097 10.6319 15.9929 10.6428 15.9769 10.6538C15.8608 10.621 15.759 10.4502 15.7161 10.3686C15.6984 10.3341 15.5563 10.2289 15.5285 10.1893C15.5033 10.1532 15.4696 10.0648 15.3981 10.0505C15.3527 10.1086 15.2004 10.1229 15.1045 10.1405C14.9774 10.1633 14.7789 10.2163 14.5744 10.1978C13.9072 10.138 13.3149 10.0472 12.7958 9.84692C12.7984 9.8444 12.8009 9.84188 12.8042 9.83851C12.8177 9.83599 12.8312 9.83346 12.8446 9.8301C12.9313 9.84356 13.0188 9.85702 13.1054 9.87048C13.5177 9.98911 14.2682 9.82757 14.5736 9.72325C14.7284 9.68286 14.8832 9.64164 15.0388 9.60041C15.0414 9.592 15.0439 9.58443 15.0472 9.57601C14.8933 9.50029 14.72 9.44476 14.5744 9.35558C14.561 9.33371 14.5475 9.31183 14.534 9.28996C14.518 9.27986 14.4642 9.27902 14.4364 9.25715C14.4314 9.24368 14.4255 9.23022 14.4205 9.21676C14.4011 9.21424 14.3826 9.21087 14.3632 9.20835C14.3582 9.19489 14.3523 9.18143 14.3473 9.16796C14.3279 9.16544 14.3094 9.16292 14.29 9.15955C14.2791 9.1402 14.2682 9.12169 14.2572 9.10234C14.2404 9.09224 14.2227 9.11244 14.2 9.09393C14.1731 9.05859 14.1453 9.02325 14.1184 8.98792H14.0696C13.9905 8.90378 13.9123 8.81965 13.8332 8.73468C13.8071 8.71448 13.7667 8.70186 13.7432 8.67746C13.7348 8.65307 13.7272 8.62867 13.7188 8.60427C13.6801 8.55715 13.5959 8.50415 13.5556 8.45703C13.553 8.43768 13.5505 8.41917 13.5471 8.39982C13.5253 8.38889 13.5034 8.37795 13.4815 8.36701V8.31821C13.4655 8.3098 13.4487 8.30223 13.4327 8.29381C13.3747 8.19622 13.3242 8.11629 13.2451 8.02459C13.2106 7.9842 13.2165 7.91437 13.1879 7.86978C13.1719 7.85884 13.1551 7.84791 13.1391 7.83697C13.0911 7.76461 13.0962 7.67796 13.0491 7.60055C12.9994 7.51726 12.9363 7.402 12.8943 7.31534C12.8699 7.22027 12.8455 7.1252 12.8211 7.03013C12.6915 6.64311 12.6276 6.31667 12.625 5.83122C12.625 5.71596 12.5872 5.57546 12.6091 5.44C12.6595 5.12618 12.726 4.70467 12.8455 4.41189C12.9633 4.12415 13.0533 3.77836 13.2695 3.50661C13.2779 3.47379 13.2855 3.44098 13.2939 3.40901C13.3116 3.37283 13.373 3.34255 13.3915 3.31142C13.3965 3.28702 13.4024 3.26262 13.4075 3.23822C13.426 3.2155 13.4664 3.19111 13.4807 3.16502V3.1238C13.4967 3.11875 13.5135 3.11286 13.5295 3.10781V3.05902C13.5488 3.04808 13.5673 3.03714 13.5867 3.0262C13.6111 2.98919 13.6044 2.96647 13.6271 2.92861C13.6489 2.91515 13.6708 2.90169 13.6927 2.88822C13.792 2.71491 13.9224 2.58282 14.0679 2.45578C14.1504 2.38342 14.2261 2.22104 14.3456 2.19496C14.3481 2.19749 14.3506 2.20001 14.354 2.20338C14.3515 2.20842 14.3489 2.21431 14.3456 2.21936C14.3094 2.31191 14.2101 2.38258 14.1664 2.46419C14.158 2.497 14.1504 2.52982 14.142 2.56179C14.1066 2.62152 14.0679 2.65013 14.0444 2.70902V2.75782C14.0309 2.76287 14.0175 2.76875 14.004 2.7738V2.83101C13.9914 2.85878 13.9459 2.89411 13.9308 2.92104C13.898 2.97993 13.9022 3.0363 13.882 3.08426C13.866 3.12127 13.8113 3.17091 13.792 3.20625C13.7894 3.24159 13.7869 3.27692 13.7836 3.31226C13.7129 3.43594 13.6464 3.62524 13.58 3.78509C13.5446 3.86838 13.548 3.97018 13.5068 4.03833C13.4782 4.08461 13.5026 4.25708 13.4824 4.29915C13.4344 4.40179 13.4361 4.5852 13.3923 4.69878V4.95202C13.3385 5.09253 13.3923 5.26753 13.3923 5.4501C13.3923 5.65791 13.4235 5.87161 13.4824 5.99696V6.13579C13.5278 6.28218 13.564 6.44708 13.6212 6.60104C13.6439 6.66162 13.6876 6.71126 13.7188 6.76426V6.82147C13.7263 6.83662 13.7608 6.86102 13.7676 6.87869V6.94431C13.7995 7.01582 13.8727 7.10669 13.9064 7.15633C13.9283 7.18914 13.9098 7.22952 13.9308 7.26234C13.9468 7.27075 13.9636 7.27832 13.9796 7.28673C13.988 7.31702 13.9956 7.34647 14.004 7.37676C14.0259 7.39611 14.0477 7.41462 14.0696 7.43397V7.49118C14.0806 7.4937 14.0915 7.49623 14.1024 7.49959C14.1462 7.54587 14.158 7.6056 14.1925 7.66281C14.2084 7.67123 14.2253 7.6788 14.2413 7.68721V7.73601C14.2631 7.74695 14.285 7.75788 14.3069 7.76882C14.338 7.81089 14.3279 7.85464 14.3557 7.88324C14.3775 7.89418 14.3994 7.90512 14.4213 7.91605V7.96485C14.439 7.99598 14.5677 8.08853 14.5929 8.11966C14.6013 8.14406 14.6089 8.16846 14.6173 8.19285C14.688 8.25006 14.7587 8.30728 14.8293 8.36449C14.9581 8.47723 15.0035 8.57061 15.1642 8.66653C15.234 8.70859 15.3266 8.86256 15.4334 8.87854L15.4284 8.87434ZM13.6582 2.05446C13.6851 2.05698 13.7129 2.05951 13.7398 2.06287V2.07886C13.6826 2.11672 13.6254 2.15458 13.5682 2.19328C13.5631 2.20674 13.5572 2.2202 13.5522 2.23366H13.5034C13.4462 2.29929 13.389 2.36407 13.3318 2.4297C13.2729 2.46083 13.1315 2.55674 13.1038 2.6089C13.1012 2.62489 13.0987 2.64171 13.0953 2.6577C13.044 2.69556 12.9919 2.73426 12.9405 2.77212V2.82092C12.9212 2.84868 12.8615 2.86046 12.8429 2.88654V2.93534C12.8211 2.9488 12.7992 2.96226 12.7773 2.97572C12.7798 2.98666 12.7824 2.9976 12.7857 3.00854C12.7664 3.01947 12.7479 3.03041 12.7285 3.04135C12.726 3.05733 12.7235 3.07416 12.7201 3.09015C12.6991 3.1238 12.6385 3.15577 12.6141 3.18774C12.5392 3.28702 12.4963 3.40481 12.4349 3.51418C12.4214 3.51923 12.408 3.52512 12.3945 3.53016C12.3844 3.64122 12.2481 3.8423 12.1985 3.93821C12.1017 4.12667 12.005 4.45143 11.9208 4.68869C11.8855 4.78881 11.9023 4.88977 11.872 4.99914C11.835 5.13207 11.793 5.28267 11.7576 5.42317C11.7156 5.59228 11.7357 5.8329 11.7088 5.97004C11.7004 6.01127 11.7265 6.00959 11.7332 6.02725C11.7669 6.11139 11.7257 6.26619 11.7576 6.34528V6.5085C11.782 6.61282 11.7988 6.79876 11.8552 6.89972C11.8847 6.95272 11.872 7.07808 11.888 7.12015C11.9318 7.23289 11.9932 7.37676 12.0428 7.48697C12.0454 7.51726 12.0479 7.54671 12.0512 7.577C12.0689 7.61822 12.1135 7.68048 12.1329 7.72423V7.78144C12.1472 7.80584 12.1943 7.84875 12.2061 7.87146V7.94466C12.2363 8.01113 12.3079 8.09442 12.3449 8.15668C12.3945 8.24081 12.4021 8.36533 12.4669 8.43432C12.477 8.44525 12.4997 8.436 12.5073 8.4503C12.5157 8.48564 12.5232 8.52098 12.5317 8.55631C12.5476 8.56473 12.5645 8.5723 12.5804 8.58071C12.5914 8.61605 12.6023 8.65138 12.6133 8.68672C12.6292 8.69513 12.6461 8.7027 12.6621 8.71112C12.6915 8.75487 12.6898 8.79693 12.7193 8.84153C12.7353 8.86592 12.7765 8.88864 12.7925 8.91472V8.96352C12.8059 8.96604 12.8194 8.96857 12.8329 8.97193L12.8816 9.06953H12.8413C12.7697 8.99465 12.6579 8.96857 12.5636 8.91472C12.5527 8.89874 12.5417 8.88191 12.5308 8.86592C12.4282 8.80451 12.3499 8.7515 12.2456 8.69429C12.2153 8.65643 12.1859 8.61773 12.1556 8.57987H12.1068C12.0664 8.53107 12.0252 8.48227 11.9848 8.43264C11.7997 8.2854 11.6996 8.16172 11.5683 7.9598C11.5439 7.94634 11.5195 7.93288 11.4951 7.91858C11.3597 7.69815 11.2158 7.41798 11.0955 7.15969C11.093 7.13025 11.0904 7.09996 11.0871 7.06967C11.0568 6.99647 11.008 6.88205 10.9727 6.79203C10.9752 6.77604 10.9777 6.75922 10.9811 6.74323C10.955 6.64816 10.9272 6.49672 10.891 6.40081C10.8885 6.28134 10.886 6.16187 10.8826 6.04156C10.8532 5.83038 10.8852 5.53171 10.8742 5.33147C10.8986 5.31716 10.8978 5.32305 10.907 5.29108C10.8633 5.20443 10.9508 4.90659 10.9802 4.83424C10.9853 4.78796 10.9912 4.74169 10.9962 4.69542C11.04 4.59698 11.0652 4.49265 11.1022 4.41777C11.1073 4.38496 11.1132 4.35215 11.1182 4.32018C11.1636 4.24446 11.2217 4.13761 11.257 4.05937C11.2621 4.03244 11.268 4.00468 11.273 3.97776C11.3252 3.90624 11.3773 3.84903 11.4034 3.74891C11.4598 3.73629 11.5338 3.57223 11.5666 3.52091C11.5818 3.49735 11.6676 3.43762 11.6811 3.4149C11.7702 3.2643 11.8906 3.16923 12.0159 3.03967C12.3011 2.74351 12.6898 2.49448 13.0684 2.29761C13.2401 2.20842 13.5127 2.1672 13.6557 2.05278L13.6582 2.05446ZM18.1779 2.05446C18.4143 2.08895 18.6086 2.21516 18.7819 2.29929C18.8602 2.33715 18.9805 2.36491 19.0672 2.42128C19.073 2.43474 19.0781 2.44821 19.0831 2.46167C19.1294 2.49364 19.1841 2.48859 19.2304 2.51888C19.2354 2.53234 19.2413 2.5458 19.2464 2.55926C19.3044 2.5988 19.3574 2.60554 19.418 2.64087C19.4315 2.66022 19.4449 2.67873 19.4592 2.69808C19.4988 2.72164 19.556 2.73174 19.5896 2.76371C19.6056 2.79063 19.6224 2.81839 19.6384 2.84532C19.6603 2.84784 19.6822 2.85036 19.7041 2.85373C19.7613 2.91935 19.8185 2.98414 19.8757 3.04976C20.1903 3.32993 20.4242 3.60925 20.6346 3.98785C20.6926 4.09302 20.7221 4.22427 20.765 4.31429C20.8491 4.48845 20.8937 4.69878 20.9526 4.86116C20.9711 4.9108 20.9324 4.97053 20.961 5.03279C20.9719 5.05719 21.0317 5.31801 21.0266 5.3424C21.0098 5.42065 21.03 5.53759 21.051 5.57882C21.046 5.72269 21.0401 5.8674 21.035 6.01127V6.24768C21.0157 6.29816 20.9644 6.45802 20.9938 6.51691C20.982 6.54215 20.9551 6.60357 20.945 6.6389C20.9475 6.6633 20.9501 6.6877 20.9534 6.7121C20.9425 6.72304 20.9316 6.73398 20.9206 6.74491C20.9114 6.77604 20.9349 6.83157 20.9122 6.87532C20.8457 7.00657 20.7969 7.18241 20.7246 7.30777C20.6935 7.36161 20.7094 7.41798 20.6758 7.47099C20.6573 7.49959 20.6127 7.53914 20.5942 7.56858C20.5832 7.60392 20.5723 7.63925 20.5614 7.67459C20.5496 7.68805 20.521 7.69058 20.5126 7.7074C20.5101 7.72928 20.5075 7.75115 20.5042 7.77303C20.4907 7.77555 20.4772 7.77807 20.4638 7.78144C20.4554 7.81173 20.4478 7.84118 20.4394 7.87146C20.4015 7.9211 20.3359 7.96654 20.3006 8.0187V8.0675C20.277 8.10199 20.1298 8.20716 20.1129 8.23913C20.049 8.35776 19.8748 8.52098 19.7537 8.58155C19.7234 8.61941 19.694 8.65727 19.6637 8.69597H19.6233C19.598 8.70775 19.6081 8.7271 19.5905 8.74477C19.5728 8.76244 19.5492 8.7473 19.5248 8.76076C19.5164 8.77674 19.5089 8.79357 19.5004 8.80956H19.4601C19.4222 8.82975 19.3827 8.89369 19.3456 8.91556C19.3187 8.92061 19.291 8.9265 19.264 8.93155C19.2203 8.97109 19.0907 9.08047 19.0276 9.06196C19.0251 9.05354 19.0226 9.04597 19.0192 9.03756C19.0924 8.99633 19.0865 8.92145 19.1412 8.86592C19.1572 8.85751 19.174 8.84994 19.19 8.84153C19.1925 8.81965 19.195 8.79778 19.1984 8.7759C19.2178 8.7473 19.2649 8.71448 19.2884 8.68588C19.2994 8.65054 19.3103 8.6152 19.3212 8.57987C19.3406 8.56893 19.3591 8.55799 19.3785 8.54706C19.3869 8.51172 19.3953 8.47639 19.4029 8.44105C19.4163 8.436 19.4298 8.43011 19.4441 8.42506C19.4962 8.35944 19.4988 8.2711 19.5417 8.19706C19.7343 7.86557 19.8799 7.44827 20.0145 7.12015C20.0768 6.96787 20.054 6.83578 20.1121 6.72051C20.1474 6.65068 20.1264 6.48578 20.1449 6.39407C20.15 6.36715 20.1693 6.34275 20.1777 6.32845C20.208 6.27376 20.1752 5.98098 20.2021 5.91199C20.1744 5.83795 20.1491 5.56536 20.1533 5.47113C20.155 5.42149 20.107 5.29361 20.0877 5.23471C20.0902 5.21284 20.0936 5.19096 20.0961 5.16909C20.0599 5.05298 20.0271 4.90996 19.9901 4.79385C19.9926 4.7745 19.9952 4.75599 19.9985 4.73664C19.9876 4.73159 19.9766 4.7257 19.9657 4.72066V4.64746C19.959 4.62054 19.9329 4.60035 19.9253 4.58184C19.9026 4.52967 19.9152 4.44386 19.9009 4.4102C19.7638 4.09723 19.6191 3.72956 19.4525 3.4393C19.4365 3.43089 19.4197 3.42331 19.4037 3.4149C19.3953 3.37957 19.3877 3.34423 19.3793 3.30889C19.3633 3.28029 19.3095 3.25252 19.2893 3.22728V3.17849C19.2758 3.17596 19.2623 3.17344 19.2489 3.17007C19.2464 3.15072 19.2438 3.13221 19.2405 3.11286C19.2245 3.10445 19.2077 3.09688 19.1917 3.08846C19.1454 3.0119 19.1059 2.96394 19.0613 2.88486C19.0285 2.86298 18.9956 2.84111 18.9637 2.81924C18.9611 2.79988 18.9586 2.78137 18.9553 2.76202C18.9065 2.72416 18.8577 2.6863 18.808 2.6476C18.803 2.62573 18.7971 2.60385 18.792 2.58198C18.7634 2.55001 18.6557 2.4583 18.6204 2.43474V2.42633C18.6011 2.42381 18.5825 2.42128 18.5632 2.41792C18.5363 2.38258 18.5085 2.34724 18.4816 2.31191C18.4395 2.26479 18.4151 2.26227 18.3512 2.2303C18.3268 2.19749 18.3024 2.16467 18.278 2.1327C18.2376 2.09064 18.1972 2.12597 18.1804 2.05109L18.1779 2.05446ZM17.631 18.9014C17.2154 22.1565 16.7989 25.4125 16.3825 28.6668C16.3496 28.7938 16.2907 28.9251 16.2192 29.0176C16.1805 29.0681 16.0838 29.0917 16.072 29.1649H15.9172C15.8844 29.0841 15.7901 29.0622 15.7456 28.9932C15.6968 28.9184 15.6513 28.8224 15.6227 28.7324C15.5344 28.4497 15.5731 28.1309 15.5083 27.8271C15.4225 27.4216 15.4225 26.9294 15.3207 26.4726C15.3047 26.3094 15.2879 26.1461 15.2719 25.9829C15.1146 25.2325 15.1238 24.4164 14.9623 23.6659C14.8983 23.3697 14.9185 23.0635 14.8479 22.785V22.663C14.8479 22.6151 14.8134 22.4703 14.7991 22.4022C14.7561 22.2053 14.7646 22.0051 14.7259 21.8234C14.7174 21.7283 14.7099 21.6332 14.7015 21.5381C14.6156 21.1301 14.6241 20.7406 14.5382 20.3552C14.4785 19.874 14.4188 19.3927 14.359 18.9115C14.3043 18.909 14.2505 18.9064 14.1958 18.9031C14.0595 18.8383 13.8534 18.909 13.6902 18.8787C13.3595 18.8173 12.9691 18.8618 12.6377 18.8299C12.4761 18.8139 12.1766 18.8131 12.0176 18.7811C11.8586 18.7491 11.6415 18.787 11.4791 18.7567C11.3277 18.7281 11.1729 18.7567 11.0383 18.7323C10.886 18.7037 10.7337 18.7331 10.5974 18.7079H10.3938C10.0943 18.686 9.79562 18.6641 9.49611 18.6423C9.39851 18.6397 9.30008 18.6372 9.20248 18.6338C8.86763 18.6094 8.53362 18.585 8.19877 18.5606C7.86391 18.5304 7.5299 18.5009 7.19505 18.4706C7.08652 18.4479 6.93255 18.3789 6.8114 18.4302C6.67006 18.49 6.60864 18.6616 6.56657 18.8215C6.49674 19.0865 6.74578 19.4197 6.84421 19.6207C7.1757 20.2989 7.45082 20.9871 7.79072 21.6601C8.42172 22.9095 8.9871 24.1959 9.58529 25.4697C9.76197 25.8458 9.93529 26.232 10.1237 26.6122C10.186 26.7376 10.2483 26.8705 10.3114 27.0035C10.3417 27.0607 10.3711 27.1179 10.4014 27.1751C10.4148 27.2475 10.3164 27.5806 10.2954 27.6563C10.1734 28.093 10.0556 28.4724 9.88733 28.8393C9.42291 29.8531 8.69684 30.5665 7.70069 31.0503C7.47606 31.1588 7.24637 31.2068 6.99061 31.2867C6.559 31.4213 5.78245 31.5442 5.26082 31.4011C4.78714 31.2707 4.34881 31.1866 3.94749 31.0015C2.90002 30.5186 2.24967 29.7008 1.79367 28.6197C1.71374 28.4304 1.63802 28.2024 1.58165 27.9912C1.54211 27.8431 1.54631 27.7136 1.50845 27.5587C1.48826 27.4771 1.426 27.1869 1.45124 27.0935C1.48742 26.9606 1.57492 26.8091 1.63045 26.6854C1.69775 26.5374 1.73309 26.3952 1.79367 26.2446C1.88958 26.0073 2.00821 25.7558 2.10328 25.5185C2.50123 24.5283 2.8832 23.5363 3.30218 22.5654C3.78175 21.4557 4.18643 20.3089 4.67272 19.2203C4.70049 19.1588 4.69628 19.1117 4.72152 19.0486C4.78041 18.9048 4.96298 18.3932 4.72993 18.3066H4.5583C4.48679 18.3562 4.39845 18.3284 4.29749 18.3554C3.9559 18.4471 3.52514 18.0878 3.63704 17.6949C3.70182 17.4661 3.85326 17.3441 4.15109 17.3441H4.31431C4.41191 17.3685 4.51034 17.3929 4.60794 17.4173C4.82416 17.0521 5.38618 16.4851 6.0441 16.6828C6.16021 16.7181 6.2822 16.7661 6.38653 16.8216C6.55059 16.9083 6.73905 17.0614 6.85936 17.1968C6.90815 17.2515 6.96536 17.3693 7.04697 17.3845C7.12017 17.3247 7.28591 17.3432 7.3894 17.3188C7.60478 17.2684 7.84624 17.2591 8.07425 17.1968C8.73554 17.0151 9.51209 17.0067 10.1877 16.8704C10.4603 16.8157 10.7017 16.8738 10.971 16.7972C11.2688 16.7122 11.5422 16.5675 11.6811 16.3244C11.7139 16.2428 11.7467 16.1612 11.7787 16.0795C11.7812 16.0223 11.7837 15.9651 11.7871 15.9079C11.8317 15.7935 12.0353 15.6151 12.1379 15.5487C12.4492 15.3476 12.8724 15.5638 13.1004 15.6959C13.1652 15.7329 13.2897 15.8179 13.3856 15.8103C13.511 15.8002 13.6565 15.5756 13.7693 15.5083C13.9956 15.3737 14.3287 15.361 14.667 15.361C14.6695 15.3207 14.672 15.2794 14.6754 15.2391C14.7242 14.6299 14.773 14.0208 14.8226 13.4117C14.6846 13.3267 14.5753 13.1677 14.4634 13.0524C14.4171 13.0053 14.3388 12.9759 14.3245 12.8976C14.4474 12.8009 14.5391 12.6393 14.6342 12.514C14.7494 12.3625 14.8899 12.2212 15.0094 12.0731C15.176 11.867 15.3299 11.655 15.5066 11.4614C15.6404 11.3151 15.754 11.1459 15.8819 10.9962C15.9206 10.9508 15.9399 10.8759 16.0047 10.8574C16.0594 10.9953 16.3177 11.2511 16.4212 11.3714C16.7173 11.7181 17.0092 12.0798 17.2776 12.4483C17.3584 12.5586 17.6327 12.8076 17.6613 12.9296C17.493 13.0978 17.3239 13.267 17.1556 13.4352C17.196 13.8971 17.2373 14.3599 17.2785 14.8217C17.2919 15.001 17.3054 15.181 17.3189 15.3602H17.4493C17.5166 15.3316 17.7059 15.3695 17.7673 15.3846C17.9785 15.4368 18.1265 15.4528 18.2813 15.5478C18.384 15.6109 18.4345 15.7632 18.559 15.8011C18.681 15.8381 18.8501 15.7211 18.9258 15.6707C19.0949 15.5588 19.4727 15.3905 19.7495 15.499C19.9102 15.5621 20.1045 15.7346 20.1819 15.8827C20.187 15.9374 20.1929 15.9912 20.1979 16.0459C20.2223 16.1191 20.2467 16.1931 20.2711 16.2663C20.3704 16.4598 20.5488 16.6096 20.7439 16.7072C21.1554 16.9108 21.7216 16.8166 22.2045 16.9192C22.6614 17.0168 23.1409 17.0269 23.5994 17.1312C24.0563 17.2154 24.5131 17.2995 24.97 17.3845C25.0373 17.2549 25.1753 17.1455 25.288 17.058C25.6935 16.7434 26.2244 16.4514 26.8058 16.8216C26.9496 16.9133 27.0952 17.053 27.2054 17.1809C27.2601 17.244 27.3165 17.4004 27.409 17.4173C27.4696 17.3752 27.5537 17.3819 27.637 17.3601C28.173 17.2187 28.5314 17.6663 28.2655 18.1105C28.1528 18.2998 27.8743 18.4302 27.5722 18.3554C27.499 18.3377 27.3569 18.2662 27.2542 18.315C27.1575 18.3486 27.1036 18.5076 27.1398 18.6658C27.1877 18.8753 27.2466 19.0764 27.3274 19.2615C27.7388 20.2046 28.0955 21.1915 28.5103 22.1498C28.9731 23.22 29.3727 24.3221 29.8321 25.4049C29.9692 25.7272 30.0912 26.0595 30.2317 26.3918C30.3234 26.6089 30.4664 26.852 30.5253 27.0851C30.5573 27.2113 30.4967 27.478 30.4681 27.5831C30.4597 27.6538 30.4521 27.7245 30.4437 27.7952C30.3882 28.008 30.3318 28.2402 30.2561 28.4312C30.1829 28.6146 30.1417 28.7829 30.0601 28.9537C29.6158 29.8876 28.9175 30.585 27.9794 31.0259C27.6968 31.1588 27.3712 31.2514 27.0498 31.3355C26.322 31.5265 25.4638 31.4499 24.8227 31.2379C23.6171 30.8391 22.7791 30.1492 22.2281 29.1001C21.9975 28.6617 21.8377 28.2083 21.6896 27.6639C21.6644 27.5705 21.5542 27.2575 21.592 27.1414C21.6097 27.0868 21.6644 27.0203 21.6896 26.9698C21.7578 26.8344 21.8133 26.6972 21.8772 26.5702C22.101 26.1234 22.2962 25.6641 22.5133 25.224C23.0719 24.0933 23.5641 22.9356 24.1202 21.8141C24.4879 21.0729 24.7933 20.3216 25.1568 19.5787C25.2998 19.2859 25.5455 18.9872 25.3444 18.5994C25.3006 18.5152 25.1786 18.3789 25.0264 18.4117C24.7504 18.4706 24.3634 18.4824 24.0883 18.5421C23.9276 18.5506 23.7677 18.5581 23.607 18.5665C23.2494 18.617 22.7186 18.5825 22.2853 18.6641C22.1406 18.6919 21.9984 18.6641 21.8688 18.6885C21.6324 18.7331 21.38 18.6868 21.1587 18.7289C20.9383 18.7373 20.7179 18.7449 20.4983 18.7533C20.2871 18.7929 20.0086 18.7617 19.821 18.8021H19.4946C19.3111 18.8383 19.0108 18.808 18.7845 18.8509H18.5396C18.2351 18.8669 17.9305 18.8837 17.6259 18.8997L17.631 18.9014ZM15.9828 11.6895C15.8835 11.8325 15.7422 11.9545 15.6236 12.0807C15.4822 12.2439 15.3409 12.4071 15.1995 12.5703C15.1305 12.6418 14.9404 12.795 14.9143 12.8884C15.0565 12.9759 15.1785 13.1248 15.298 13.2392C15.3451 13.2846 15.4073 13.2956 15.4124 13.3864C15.3535 13.4798 15.3695 13.6363 15.3392 13.7532C15.2719 14.0141 15.2256 14.306 15.2248 14.5937V14.9774C15.2458 15.0472 15.2921 15.0809 15.3392 15.1246C15.5605 15.1297 15.727 15.0161 15.8692 14.9126C15.9138 14.8806 15.95 14.8226 16.0081 14.8066C16.0274 14.8234 16.0383 14.815 16.0569 14.8226C16.2293 14.958 16.3379 15.1238 16.6525 15.1246C16.6794 15.1028 16.7072 15.0809 16.7341 15.059C16.793 14.9538 16.7939 14.6863 16.7669 14.5365C16.74 14.322 16.7123 14.1066 16.6853 13.8921C16.6374 13.7171 16.602 13.5152 16.5709 13.3376C16.7013 13.2594 16.7897 13.1206 16.9058 13.028C16.9605 12.9843 17.0547 12.938 17.069 12.8564C16.9705 12.8076 16.8326 12.6023 16.7585 12.514C16.581 12.3011 16.3766 12.1068 16.1957 11.8939C16.1359 11.8241 16.0594 11.7702 16.0081 11.6903H15.9837L15.9828 11.6895ZM15.9828 15.499V16.1107C15.9879 16.1082 15.9938 16.1056 15.9988 16.1023C16.0013 16.0425 16.0038 15.9828 16.0072 15.9231H16.0232V16.1107H16.0392C16.0939 16.1191 16.1477 16.1267 16.2024 16.1351C16.3925 16.1763 16.597 16.1839 16.7981 16.2327C17.1985 16.3311 17.6091 16.3816 18.0222 16.4691C18.2342 16.4935 18.4463 16.5179 18.6583 16.5423C19.0116 16.6062 19.471 16.6315 19.662 16.4203C19.667 16.2831 19.5678 16.0846 19.466 16.0695C19.4071 16.1241 19.2884 16.1309 19.2051 16.1595C18.9805 16.236 18.4875 16.3892 18.1939 16.2739C18.0441 16.215 17.9642 16.0838 17.8346 16.0207C17.7547 15.982 17.6865 16.0308 17.6226 16.0451C17.4653 16.0812 17.2827 16.0291 17.1657 15.9963C16.7333 15.8734 16.3707 15.6505 15.9828 15.499ZM15.934 15.5234C15.8617 15.6076 15.706 15.637 15.5992 15.6866C15.2904 15.8297 14.969 15.971 14.5879 16.0459C14.4373 16.0753 14.3195 15.9862 14.2126 16.0055C14.1024 16.0257 14.0461 16.13 13.9678 16.1847C13.8593 16.2604 13.7381 16.2789 13.5766 16.3067C13.3309 16.3496 12.8488 16.1999 12.6713 16.1351C12.6133 16.114 12.5392 16.0711 12.4837 16.0695C12.4324 16.1898 12.3238 16.2293 12.3205 16.4119C12.3701 16.4598 12.3954 16.5137 12.4677 16.5423C12.6587 16.618 13.2173 16.5801 13.4386 16.5339C13.6632 16.4876 13.9005 16.496 14.1319 16.4438C14.7267 16.3109 15.3451 16.2369 15.9593 16.109C15.9618 16.1006 15.9643 16.093 15.9677 16.0846C15.9651 15.902 15.9626 15.7203 15.9593 15.5377V15.5217H15.9349L15.934 15.5234ZM15.9828 19.1378V18.999H15.9988V19.0074C16.0207 19.036 16.0198 19.1067 16.0476 19.1294C16.1115 19.052 16.2075 19.0074 16.284 18.9418C16.4262 18.8198 16.5701 18.6919 16.7165 18.575C16.793 18.5135 16.9891 18.4277 17.0017 18.3141C16.9773 17.8657 16.9529 17.4164 16.9285 16.968C16.8073 16.9066 16.6466 16.9074 16.5044 16.8704C16.3665 16.8342 16.1915 16.7711 16.056 16.7484C15.9466 16.7299 15.7952 16.793 15.6968 16.8216C15.4856 16.8839 15.2753 16.9099 15.0683 16.9604C15.0658 17.0067 15.0632 17.053 15.0599 17.0992C15.0043 17.2154 15.0607 17.3895 15.0355 17.5317C14.9934 17.7656 14.9867 18.1013 14.9867 18.3554C15.3072 18.6162 15.6286 18.8778 15.9492 19.1386H15.982L15.9828 19.1378ZM14.359 18.1181V17.0084C14.3456 17.0059 14.3321 17.0033 14.3187 17C12.0698 17.2911 9.82086 17.5822 7.57197 17.8733C7.57449 17.8758 7.57702 17.8783 7.58038 17.8817C7.68303 17.9456 7.97833 17.8758 8.14324 17.9061C8.46715 17.9658 8.8996 17.8893 9.19575 17.9549H9.555C9.86293 17.9944 10.2676 17.9692 10.6159 18.0037H11.114C11.4648 18.0197 11.8157 18.0365 12.1665 18.0525H12.5173C12.7479 18.0954 12.986 18.034 13.219 18.0769C13.5993 18.0903 13.9804 18.1038 14.3616 18.1181H14.359ZM17.631 17V18.1181H17.647C19.8984 18.0415 22.1507 17.9658 24.4021 17.8893C24.4046 17.8808 24.4071 17.8733 24.4105 17.8649H24.3617C22.1187 17.5763 19.8748 17.2885 17.631 17ZM14.9875 19.0722C15.0338 19.4802 15.0801 19.8883 15.1263 20.2963C15.192 20.9383 15.2567 21.5802 15.3224 22.2213C15.3796 22.4956 15.3754 22.8565 15.4368 23.151V23.2898C15.478 23.4825 15.4629 23.7197 15.51 23.9587C15.5537 24.1783 15.5807 24.4315 15.5832 24.6763H15.5992V24.6679C15.6404 23.0307 15.6808 21.3934 15.722 19.7562C15.5596 19.6409 15.4402 19.4668 15.2896 19.3397C15.2054 19.2691 15.0565 19.1748 15.0119 19.0705H14.9875V19.0722ZM16.9697 19.0806C16.9217 19.1673 16.8183 19.2404 16.7417 19.301C16.6407 19.402 16.5406 19.5021 16.4397 19.6031C16.3799 19.6578 16.3202 19.7116 16.2605 19.7663C16.2428 19.8672 16.295 20.0027 16.2764 20.1255C16.2815 20.3081 16.2874 20.4898 16.2924 20.6724C16.3244 20.839 16.279 21.0476 16.3084 21.178V21.4229C16.3084 21.608 16.2874 21.7973 16.3244 21.9529C16.3219 22.0261 16.3194 22.1002 16.316 22.1734C16.3454 22.345 16.332 22.541 16.332 22.7446V22.9566C16.3724 23.1005 16.3151 23.2864 16.348 23.4623C16.3589 23.8813 16.3698 24.3003 16.3808 24.7184H16.3968V24.7024C16.4456 24.2102 16.4943 23.718 16.5431 23.2259C16.5894 22.8288 16.6357 22.4316 16.682 22.0345C16.6904 21.926 16.698 21.8166 16.7064 21.7081C16.7324 21.5777 16.8065 21.1259 16.7796 21.0148C16.8544 20.7397 16.8132 20.4452 16.8772 20.1255C16.915 19.9354 16.9024 19.7259 16.9428 19.5215C16.9689 19.3868 16.9916 19.2346 16.9916 19.0806H16.9672H16.9697ZM2.1302 26.7494C3.1743 26.7359 4.21924 26.7225 5.26334 26.7082C5.26586 26.6972 5.26839 26.6863 5.27175 26.6753C5.26923 24.2363 5.26671 21.7964 5.26334 19.3574H5.24735V19.3658C5.19351 19.4727 5.17332 19.5812 5.12536 19.6922C4.93354 20.1339 4.76022 20.5925 4.55409 21.0384C4.02489 22.1843 3.59076 23.3781 3.06913 24.5383C2.85627 25.0112 2.67455 25.5008 2.45748 25.9821C2.37671 26.1613 2.29847 26.3464 2.22107 26.5365C2.19414 26.603 2.1403 26.6636 2.13104 26.7485L2.1302 26.7494ZM26.7191 26.709C27.7632 26.7225 28.8082 26.7359 29.8523 26.7502C29.8548 26.7393 29.8573 26.7283 29.8607 26.7174C29.7513 26.5878 29.6495 26.2252 29.5755 26.0485C29.4265 25.6935 29.2616 25.3208 29.1026 24.9716C29.0277 24.8084 28.9899 24.6511 28.915 24.4904C28.5339 23.6718 28.231 22.8161 27.8541 21.9857C27.4645 21.1267 27.0809 20.2458 26.7368 19.3591C26.7343 19.3616 26.7317 19.3641 26.7284 19.3675C26.7259 21.8149 26.7233 24.2624 26.72 26.7098L26.7191 26.709ZM9.44815 26.7494C9.44479 26.6139 9.22351 26.2505 9.16294 26.1209C8.9282 25.6262 8.71366 25.1281 8.47725 24.6444C8.10622 23.8829 7.78819 23.103 7.41632 22.3517C7.3263 22.1691 7.27077 21.9883 7.17991 21.8048C6.93003 21.3051 6.7096 20.7877 6.46982 20.2711C6.33689 19.985 6.17956 19.7007 6.06177 19.3978H6.04578V19.6426C6.05083 19.8277 6.05672 20.0128 6.06177 20.1971C6.07271 20.7515 6.08364 21.3068 6.09458 21.8612C6.12992 23.4598 6.16525 25.0591 6.20059 26.6585C6.27799 26.6812 6.4084 26.6787 6.49422 26.6669C6.51525 26.6636 6.60191 26.6829 6.64902 26.6829C6.85852 26.6854 7.06801 26.688 7.2775 26.6913C8.00105 26.7107 8.7246 26.7292 9.44731 26.7485L9.44815 26.7494ZM25.9198 19.3986C25.8811 19.5871 25.7608 19.7596 25.6834 19.9211C25.5194 20.2627 25.378 20.6093 25.2106 20.9408C25.1181 21.1234 25.0659 21.3043 24.9742 21.4877C24.6991 22.0387 24.4526 22.6083 24.1909 23.1762C24.0411 23.501 23.8569 23.8341 23.7181 24.1631C23.6188 24.3978 23.5296 24.6208 23.416 24.8488C23.2158 25.2501 23.0467 25.6708 22.8448 26.0805C22.7716 26.2286 22.7043 26.38 22.6327 26.5374C22.6033 26.6005 22.5503 26.6661 22.5351 26.741C22.5511 26.7435 22.568 26.746 22.5839 26.7494C23.6499 26.7225 24.7159 26.6947 25.7819 26.6678C25.7844 26.6055 25.7869 26.5424 25.7903 26.4802C25.8391 24.1202 25.8879 21.7586 25.9375 19.3986H25.9215H25.9198ZM2.28501 27.7203C2.27659 27.8162 2.34727 27.9668 2.3826 28.0551C2.49955 28.3429 2.60051 28.5928 2.74185 28.8384C3.22983 29.6865 3.8785 30.2409 4.95289 30.511C5.34579 30.6103 6.08869 30.6439 6.50263 30.527C6.80299 30.4429 7.09914 30.3764 7.35911 30.2493C8.09023 29.8943 8.62701 29.35 9.04767 28.6828C9.18902 28.459 9.44479 28.056 9.49611 27.7691C9.48265 27.7666 9.46918 27.764 9.45572 27.7607C7.06548 27.7472 4.6744 27.7337 2.28417 27.7194L2.28501 27.7203ZM29.265 27.7203C28.6096 27.7262 27.9542 27.7312 27.2988 27.7363C25.7003 27.7447 24.1009 27.7523 22.5015 27.7607C22.499 27.7741 22.4956 27.7876 22.4931 27.8011C22.5486 27.8574 22.5553 27.9702 22.5907 28.0459C22.6857 28.2478 22.7876 28.4522 22.9003 28.6415C23.2528 29.233 23.777 29.8009 24.3937 30.1265C24.6705 30.2729 24.9733 30.3873 25.2989 30.4858C25.9022 30.6683 26.773 30.6078 27.3224 30.437C28.3589 30.1147 29.0076 29.4021 29.4358 28.4708C29.5384 28.2478 29.6571 27.9954 29.7134 27.7287C29.7109 27.7262 29.7084 27.7236 29.705 27.7203H29.2642H29.265Z" fill="#303031"/>
</svg>
