<svg width="16" height="16" viewBox="0 0 16 16" fill="none" xmlns="http://www.w3.org/2000/svg">
<g clip-path="url(#clip0_4368_19257)">
<path d="M8.0026 4.00065V14.6673M8.0026 4.00065H5.64546C5.29815 4.00065 4.96507 3.86018 4.71949 3.61013C4.4739 3.36008 4.33594 3.02094 4.33594 2.66732C4.33594 2.3137 4.4739 1.97456 4.71949 1.72451C4.96507 1.47446 5.29815 1.33398 5.64546 1.33398C7.47879 1.33398 8.0026 4.00065 8.0026 4.00065ZM8.0026 4.00065H10.3597C10.7071 4.00065 11.0401 3.86018 11.2857 3.61013C11.5313 3.36008 11.6693 3.02094 11.6693 2.66732C11.6693 2.3137 11.5313 1.97456 11.2857 1.72451C11.0401 1.47446 10.7071 1.33398 10.3597 1.33398C8.52641 1.33398 8.0026 4.00065 8.0026 4.00065ZM13.3359 7.33398V12.534C13.3359 13.2807 13.3359 13.6541 13.1906 13.9393C13.0628 14.1902 12.8588 14.3942 12.6079 14.522C12.3227 14.6673 11.9493 14.6673 11.2026 14.6673L4.8026 14.6673C4.05587 14.6673 3.6825 14.6673 3.39728 14.522C3.1464 14.3942 2.94243 14.1902 2.8146 13.9393C2.66927 13.6541 2.66927 13.2807 2.66927 12.534V7.33398M1.33594 5.06732L1.33594 6.26732C1.33594 6.64069 1.33594 6.82737 1.4086 6.96998C1.47252 7.09542 1.5745 7.19741 1.69994 7.26132C1.84255 7.33398 2.02924 7.33398 2.4026 7.33398L13.6026 7.33398C13.976 7.33398 14.1627 7.33398 14.3053 7.26132C14.4307 7.19741 14.5327 7.09542 14.5966 6.96998C14.6693 6.82737 14.6693 6.64069 14.6693 6.26732V5.06732C14.6693 4.69395 14.6693 4.50727 14.5966 4.36466C14.5327 4.23922 14.4307 4.13723 14.3053 4.07331C14.1627 4.00065 13.976 4.00065 13.6026 4.00065L2.4026 4.00065C2.02924 4.00065 1.84255 4.00065 1.69994 4.07331C1.5745 4.13723 1.47252 4.23922 1.4086 4.36466C1.33594 4.50727 1.33594 4.69395 1.33594 5.06732Z" stroke="white" stroke-width="1.5" stroke-linecap="round" stroke-linejoin="round"/>
</g>
<defs>
<clipPath id="clip0_4368_19257">
<rect width="16" height="16" fill="white"/>
</clipPath>
</defs>
</svg>
