<svg width="32" height="32" viewBox="0 0 32 32" fill="none" xmlns="http://www.w3.org/2000/svg">
<path fill-rule="evenodd" clip-rule="evenodd" d="M15.9994 9.6487C19.4684 9.6487 22.2804 12.4608 22.2804 15.9297C22.2804 19.3986 19.4684 22.2107 15.9994 22.2107C12.5305 22.2107 9.71844 19.3986 9.71844 15.9297C9.71844 12.4608 12.5305 9.6487 15.9994 9.6487ZM28.7965 15.1896V16.9252H31.5411L31.5996 26.0205L25.9867 26.0565V31.468L16.9702 31.4353V28.7077C16.3043 28.7077 15.6384 28.702 14.9736 28.6987V31.423H5.87493L5.86256 25.8956H0.411684L0.393687 16.8498H3.20236V15.1142H0.419558L0.392562 5.84119L6.00541 5.8052V0.392562L15.022 0.40606V3.15399L17.0185 3.16299V0.437555H26.0767L26.07 5.96492H31.5399L31.6052 15.1896H28.7965ZM29.188 15.581V16.5337H31.9303L31.9933 26.4085L26.377 26.4445V31.8594L16.5776 31.8234V29.0968C16.1727 29.0968 15.7677 29.0935 15.3639 29.0912V31.8133H5.48462L5.47225 26.2859H0.0213716L0.00224964 16.4561H2.81205V15.5034H0.0292453L0 5.44975L5.61398 5.41376V0L15.4134 0.0146227V2.76368L16.6271 2.76931V0.0461176H26.4681L26.4614 5.57348H31.928L31.9989 15.581H29.1868H29.188ZM15.9994 15.058C16.4809 15.058 16.8712 15.4483 16.8712 15.9297C16.8712 16.4111 16.4809 16.8014 15.9994 16.8014C15.518 16.8014 15.1277 16.4111 15.1277 15.9297C15.1277 15.4483 15.518 15.058 15.9994 15.058ZM15.9994 14.5079C16.7846 14.5079 17.4212 15.1446 17.4212 15.9297C17.4212 16.7148 16.7846 17.3515 15.9994 17.3515C15.2143 17.3515 14.5777 16.7148 14.5777 15.9297C14.5777 15.1446 15.2143 14.5079 15.9994 14.5079ZM17.3717 14.581L17.2637 14.4866C17.0736 14.3201 16.8521 14.1919 16.6125 14.1109L16.4775 14.0659L16.3369 14.0411C16.2255 14.0209 16.1119 14.0119 15.9983 14.0119C15.8588 14.0119 15.7205 14.0265 15.5844 14.0569L15.4562 14.085L15.3347 14.13C15.0973 14.2177 14.8802 14.3516 14.6946 14.5237L14.6035 14.608L14.5248 14.7025C14.3628 14.8971 14.2402 15.121 14.166 15.3628L14.1289 15.482L14.1075 15.608C14.0895 15.7149 14.0805 15.8228 14.0805 15.9308C14.0805 16.0748 14.0962 16.2188 14.1289 16.3594L14.1525 16.4606L14.1874 16.5596C14.2706 16.7981 14.3999 17.0185 14.5687 17.2075L14.6407 17.2874L14.7205 17.3593C14.9084 17.5281 15.1288 17.6585 15.3673 17.7418L15.4786 17.7812L15.5956 17.8059C15.7284 17.834 15.8645 17.8486 16.0006 17.8486C16.1175 17.8486 16.2334 17.8385 16.3493 17.8171L16.4584 17.7969L16.5641 17.7643C16.8059 17.69 17.0309 17.5686 17.2255 17.4066L17.3121 17.3346L17.3897 17.2536C17.5641 17.0703 17.7013 16.8543 17.7924 16.6181L17.843 16.4876L17.8734 16.3538C17.9049 16.2143 17.9206 16.0714 17.9206 15.9286C17.9206 15.8195 17.9116 15.7092 17.8925 15.6013L17.87 15.4708L17.8306 15.3459C17.7542 15.1052 17.6293 14.8814 17.4662 14.6879L17.374 14.5788L17.3717 14.581ZM19.3694 12.5845C19.402 12.5687 19.4358 12.5541 19.4706 12.5417C20.5898 12.1143 21.6213 13.7296 20.844 14.6002C20.7923 14.6587 20.7349 14.7126 20.6742 14.761C20.6854 14.7621 20.6967 14.7644 20.7079 14.7666C21.8879 14.9657 21.9689 16.8779 20.8497 17.2379C20.7597 17.2671 20.6686 17.2862 20.5752 17.2964C20.5966 17.3121 20.6168 17.329 20.6371 17.347C20.7822 17.4707 20.889 17.6271 20.9498 17.807C21.2388 18.6619 20.4222 19.7563 19.4909 19.5404C19.4515 19.5314 19.4133 19.5212 19.3761 19.5089C19.4211 19.6641 19.429 19.8283 19.3998 19.988C19.2344 20.8755 17.987 21.4301 17.2795 20.7867C17.2525 20.7619 17.2255 20.7361 17.1996 20.7091C16.9387 21.8114 15.1108 21.8834 14.7475 20.7945C14.7306 20.7439 14.7171 20.6933 14.7059 20.6416C14.5912 20.7754 14.4461 20.8767 14.2807 20.9385C13.9185 21.0746 13.5068 21.0049 13.1761 20.8193C12.7183 20.5628 12.3955 20.0735 12.5012 19.5359C12.5069 19.5055 12.5147 19.4751 12.5226 19.4459C11.4495 19.7755 10.4586 18.2581 11.192 17.3897C11.2088 17.3695 11.2268 17.3492 11.2448 17.3301C10.1605 17.0905 10.0221 15.2964 11.084 14.8892C11.147 14.8656 11.2122 14.8454 11.2774 14.8307C11.2774 14.8307 11.2763 14.8296 11.2752 14.8285C11.1222 14.7149 11.0052 14.5664 10.9321 14.3909C10.7836 14.0333 10.8388 13.6204 11.012 13.283C11.2527 12.8151 11.7285 12.4754 12.2707 12.5631C12.3314 12.5732 12.3899 12.5867 12.4484 12.6036C11.9906 11.5103 13.5462 10.4192 14.4483 11.1515C14.5079 11.1998 14.5642 11.2538 14.6148 11.3112C14.6148 11.3011 14.617 11.2898 14.6182 11.2797C14.7621 10.0919 16.6687 9.92204 17.0793 11.0232C17.1153 11.12 17.1411 11.2201 17.1546 11.3213C17.1749 11.2921 17.1951 11.2628 17.2176 11.2347C17.3346 11.0851 17.4864 10.9715 17.6642 10.9029C18.0252 10.7634 18.4369 10.8286 18.7699 11.0109C19.231 11.2628 19.5584 11.7476 19.4571 12.2864C19.438 12.3888 19.4076 12.4889 19.3671 12.5834L19.3694 12.5845ZM16.4167 13.5991C16.5472 12.8196 16.6642 12.0547 16.7148 11.571C16.7294 11.4315 16.7036 11.2977 16.6597 11.1807C16.4111 10.5148 15.1502 10.6149 15.0636 11.3337C15.0501 11.4417 15.0546 11.5598 15.0793 11.6835C15.2064 12.3247 15.3459 12.9759 15.4876 13.6182C15.6519 13.5822 15.8228 13.5631 15.9983 13.5631C16.14 13.5631 16.2795 13.5755 16.4145 13.5991H16.4167ZM15.1794 13.7082C14.8971 12.9703 14.6114 12.2504 14.4101 11.8072C14.3516 11.679 14.2627 11.5778 14.166 11.4979C13.6137 11.0491 12.5777 11.7735 12.8668 12.4371C12.9107 12.5372 12.9748 12.6374 13.0569 12.7307C13.4911 13.22 13.9421 13.7104 14.3898 14.193C14.6159 13.9826 14.8836 13.8162 15.1794 13.7071V13.7082ZM14.1817 14.4146C13.5687 13.9151 12.9613 13.4348 12.5665 13.1514C12.4529 13.0693 12.3235 13.0254 12.2009 13.0063C11.499 12.8927 10.9625 14.0378 11.544 14.4686C11.6318 14.5338 11.7364 14.5878 11.8556 14.6283C12.4765 14.8352 13.1109 15.0355 13.7397 15.2301C13.833 14.9286 13.9849 14.6519 14.1829 14.4157L14.1817 14.4146ZM13.6666 15.5315C12.8859 15.4078 12.1188 15.2964 11.6351 15.2503C11.4957 15.2368 11.3618 15.2638 11.2459 15.3077C10.5823 15.5619 10.6925 16.8217 11.4124 16.9027C11.5204 16.915 11.6396 16.9094 11.7622 16.8835C12.4023 16.7519 13.0524 16.6057 13.6936 16.4584C13.6542 16.2885 13.6339 16.1108 13.6339 15.9297C13.6339 15.7936 13.6452 15.6609 13.6677 15.5315H13.6666ZM13.7633 16.7069C13.0198 16.9747 12.2954 17.2469 11.8489 17.4403C11.7206 17.4954 11.616 17.5832 11.535 17.6788C11.0761 18.2221 11.7802 19.2715 12.4495 18.996C12.5507 18.9543 12.6508 18.8925 12.7465 18.8115C13.2436 18.3863 13.743 17.9454 14.2335 17.5078C14.0276 17.2772 13.8668 17.0062 13.7633 16.7081V16.7069ZM14.4202 17.6923C13.9005 18.2873 13.3977 18.8767 13.1008 19.2614C13.0153 19.3728 12.9669 19.4999 12.9422 19.6225C12.8038 20.3199 13.9286 20.8969 14.3808 20.3311C14.4483 20.2456 14.5068 20.1433 14.5507 20.0252C14.7801 19.4133 15.0017 18.7856 15.2188 18.1647C14.9207 18.0601 14.6508 17.8993 14.4202 17.6923ZM15.5011 18.2435C15.3437 19.0173 15.1997 19.7777 15.1322 20.2591C15.1131 20.3986 15.1333 20.5325 15.1727 20.6506C15.3977 21.3243 16.6608 21.2692 16.7733 20.5538C16.7902 20.4458 16.7902 20.3277 16.7699 20.204C16.6653 19.5584 16.5483 18.9037 16.4291 18.257C16.2896 18.2828 16.1468 18.2963 15.9994 18.2963C15.8285 18.2963 15.662 18.2783 15.5011 18.2435ZM16.6935 18.1928C16.9342 18.9453 17.1794 19.6787 17.3548 20.132C17.4055 20.2625 17.4898 20.3694 17.5821 20.4537C18.1074 20.9318 19.1827 20.267 18.9318 19.5887C18.8936 19.4864 18.8362 19.3829 18.7575 19.285C18.3514 18.7721 17.9296 18.2581 17.5101 17.7519C17.2727 17.9488 16.996 18.1006 16.6935 18.1928ZM17.7125 17.5641C18.2896 18.1028 18.8632 18.6236 19.2378 18.933C19.3458 19.0218 19.4718 19.0747 19.5932 19.1028C20.2861 19.2637 20.898 18.1568 20.3469 17.6878C20.2636 17.6169 20.1624 17.5551 20.0465 17.5078C19.4425 17.2592 18.8227 17.0174 18.2086 16.7801C18.095 17.0736 17.9251 17.3402 17.7114 17.5641H17.7125ZM18.3087 16.4539C19.0803 16.6203 19.8396 16.7733 20.3199 16.8464C20.4582 16.8678 20.5932 16.8487 20.7124 16.8104C21.3896 16.5933 21.348 15.329 20.6337 15.2087C20.5257 15.1907 20.4076 15.1896 20.2839 15.2087C19.6371 15.3054 18.9813 15.4157 18.3323 15.527C18.3548 15.6575 18.3672 15.7925 18.3672 15.9297C18.3672 16.1097 18.3469 16.2851 18.3087 16.4539ZM18.2558 15.2121C19.0061 14.9646 19.7372 14.7115 20.1883 14.5315C20.3187 14.4798 20.4245 14.3943 20.5077 14.301C20.9813 13.77 20.3052 12.7015 19.6292 12.9602C19.5269 12.9984 19.4245 13.058 19.3278 13.1368C18.8194 13.5485 18.3087 13.9748 17.8059 14.3999C18.005 14.635 18.1602 14.9106 18.2558 15.2121ZM17.5596 14.1491C18.0736 13.5496 18.5697 12.9545 18.8632 12.5665C18.9476 12.4551 18.9948 12.3269 19.0185 12.2043C19.1489 11.5058 18.0185 10.94 17.5731 11.5103C17.5056 11.5958 17.4482 11.7004 17.4066 11.8174C17.1839 12.4326 16.9679 13.0614 16.7576 13.6846C17.0568 13.7858 17.329 13.9444 17.5607 14.148L17.5596 14.1491ZM30.7582 19.7788H26.007V17.1119H23.2365V15.0535H28.0136V17.7069H30.7582V19.7777V19.7788ZM30.8234 12.2583H23.2242V14.4067H30.8234V12.2583ZM1.2418 12.2583H5.99304V14.9252H8.76347V16.9837H3.98636V14.3302H1.2418V12.2594V12.2583ZM1.17769 19.7788H8.77697V17.6304H1.17769V19.7788ZM8.71623 27.8809H6.64544V25.1105H1.23393V20.3986H8.71623V22.2883H3.33172V23.2467H8.71735V27.8809H8.71623ZM11.5125 25.1453H14.1637V23.2163H9.44174V28.6953H6.69718V30.6367H11.5125V25.1442V25.1453ZM16.96 27.9225V23.2107H14.8375V26.007H12.2223V30.639H14.1896V27.9124C15.1108 27.9124 16.0287 27.9225 16.96 27.9225ZM19.798 30.5917H17.753V23.2028H19.798V30.5917ZM27.9731 23.2005V25.2713H25.2027V30.6828H20.4908V23.2005H22.3805V28.5862H23.3389V23.2005H27.9731ZM25.1667 20.3817V17.5742H23.2377V22.4525H28.7167V25.1971H30.8156V20.3817H25.1667ZM23.2748 3.97736H25.3456V6.74779H30.7571V11.4597H23.2748V9.56997H28.6604V8.61162H23.2748V3.97736ZM20.4785 6.71292H17.8273V8.64199H22.5493V3.16187H25.2938V1.22043H20.4785V6.71292ZM15.0321 3.93574V8.64761H17.1546V5.85131H19.7698V1.22043H17.8025V3.94699C16.8813 3.94699 15.9634 3.93687 15.0321 3.93687V3.93574ZM12.1942 1.26655H14.2391V8.65549H12.1942V1.26655ZM4.01786 8.65774V6.58694H6.78829V1.17431H11.5002V8.65661H9.61046V3.2721H8.65211V8.65774H4.01786ZM6.82428 11.4765V14.2841H8.75335V9.40574H3.27435V6.66118H1.17544V11.4765H6.82428Z" fill="#005F27"/>
</svg>
