<svg width="56" height="56" viewBox="0 0 56 56" fill="none" xmlns="http://www.w3.org/2000/svg">
<g clip-path="url(#clip0_2307_14140)">
<path d="M15.3293 24.2596C17.1467 30.2189 21.8169 36.4106 28.1142 36.4106C34.4116 36.4106 39.0924 30.2189 40.8991 24.2596C42.4524 23.7208 43.752 22.1675 44.2592 20.16C44.9566 17.4023 43.9316 14.8453 41.9453 14.074C42.1249 13.3449 42.22 12.5947 42.22 11.8234C42.2198 5.28302 35.7007 0 27.6598 0C19.619 0 13.0787 5.29358 13.0787 11.8234C13.0787 12.7532 13.2266 13.6619 13.4696 14.5283C12.0326 15.6166 11.3775 17.8143 11.9692 20.1706C12.4765 22.1675 13.776 23.7208 15.3293 24.2596ZM14.3571 16.6626C14.5685 16.314 14.8432 16.0815 15.1919 15.9864C15.2553 15.9758 15.3398 15.9653 15.4138 15.9653C15.4771 15.9653 15.53 15.9653 15.5934 15.9758L16.5971 16.0709L16.7451 15.0777C17.0515 13.0068 17.696 11.1472 18.6047 9.56226C20.3058 11.4747 23.687 12.7743 27.5858 12.7743C31.9919 12.7743 35.7428 11.1155 37.127 8.79094C38.2892 10.5343 39.1134 12.6581 39.4725 15.0777L39.6204 16.0709L40.6242 15.9758C40.7721 15.9653 40.9095 15.9653 41.0257 15.9864C41.0997 15.997 41.1421 16.0498 41.2159 16.0709C42.1247 16.4725 42.5895 18.0679 42.1987 19.6528C41.797 21.2694 40.7404 22.2204 39.9058 22.326L39.2084 22.4211L39.0182 23.0974C37.4968 28.6551 33.2704 34.2974 28.0929 34.2974C22.9155 34.2974 18.6891 28.6657 17.1887 23.0974L16.9985 22.4211L16.3012 22.326C15.4665 22.2204 14.4099 21.2483 14.0084 19.6528C13.7444 18.5117 13.9029 17.36 14.3571 16.6626Z" fill="#212121"/>
<path d="M40.5287 31.6348C39.1762 33.9382 37.6125 35.8929 35.531 36.9388C31.2517 39.126 28.0713 40.9011 28.0713 40.9011L28.0608 40.8905V40.8377L28.0079 40.8588L27.9551 40.8377V40.8905L27.9445 40.9011C27.9445 40.9011 24.7642 39.1367 20.4849 36.9388C18.414 35.8716 16.8502 33.9275 15.4872 31.6348C9.15823 34.2023 4.73096 40.1299 4.73096 45.2861C4.73096 50.7276 4.73096 56.0001 4.73096 56.0001H27.9445H28.0291H51.2638C51.2638 56.0001 51.2638 50.7276 51.2638 45.2861C51.285 40.1299 46.8579 34.2129 40.5287 31.6348Z" fill="#212121"/>
</g>
<defs>
<clipPath id="clip0_2307_14140">
<rect width="56" height="56" fill="white"/>
</clipPath>
</defs>
</svg>
