<svg width="20" height="16" viewBox="0 0 20 16" fill="none" xmlns="http://www.w3.org/2000/svg">
<path d="M1.66797 3.83398L8.47207 8.59685C9.02304 8.98254 9.29853 9.17538 9.59819 9.25007C9.86288 9.31605 10.1397 9.31605 10.4044 9.25007C10.7041 9.17538 10.9796 8.98254 11.5305 8.59685L18.3346 3.83398M5.66797 14.6673H14.3346C15.7348 14.6673 16.4348 14.6673 16.9696 14.3948C17.44 14.1552 17.8225 13.7727 18.0622 13.3023C18.3346 12.7675 18.3346 12.0674 18.3346 10.6673V5.33398C18.3346 3.93385 18.3346 3.23379 18.0622 2.69901C17.8225 2.2286 17.44 1.84615 16.9696 1.60647C16.4348 1.33398 15.7348 1.33398 14.3346 1.33398H5.66797C4.26784 1.33398 3.56777 1.33398 3.03299 1.60647C2.56259 1.84615 2.18014 2.2286 1.94045 2.69901C1.66797 3.23379 1.66797 3.93385 1.66797 5.33398V10.6673C1.66797 12.0674 1.66797 12.7675 1.94045 13.3023C2.18014 13.7727 2.56259 14.1552 3.03299 14.3948C3.56777 14.6673 4.26784 14.6673 5.66797 14.6673Z" stroke="#646464" stroke-width="1.5" stroke-linecap="round" stroke-linejoin="round"/>
</svg>
