<svg width="20" height="22" viewBox="0 0 20 22" fill="none" xmlns="http://www.w3.org/2000/svg">
<path d="M15.9987 10.2C15.9987 8.82087 15.3666 7.49823 14.2414 6.52304C13.1162 5.54786 11.59 5 9.99874 5C8.40744 5 6.88132 5.54786 5.7561 6.52304C4.63089 7.49823 3.99874 8.82087 3.99874 10.2C3.99874 12.4818 3.43288 14.1506 2.72681 15.3447C1.92208 16.7056 1.51972 17.3861 1.53561 17.5486C1.55379 17.7346 1.58726 17.7933 1.73808 17.9036C1.86991 18 2.53225 18 3.85693 18H16.1406C17.4652 18 18.1276 18 18.2594 17.9036C18.4102 17.7933 18.4437 17.7346 18.4619 17.5486C18.4778 17.3861 18.0754 16.7056 17.2707 15.3447C16.5646 14.1506 15.9987 12.4818 15.9987 10.2Z" fill="white"/>
<path d="M12.9987 18C12.9987 19.6569 11.6556 21 9.99874 21C8.34189 21 6.99874 19.6569 6.99874 18M11.7952 5.23856C12.2307 4.78864 12.4987 4.17562 12.4987 3.5C12.4987 2.11929 11.3795 1 9.99874 1C8.61803 1 7.49874 2.11929 7.49874 3.5C7.49874 4.17562 7.76675 4.78864 8.20224 5.23856M15.9987 10.2C15.9987 8.82087 15.3666 7.49823 14.2414 6.52304C13.1162 5.54786 11.59 5 9.99874 5C8.40745 5 6.88132 5.54786 5.7561 6.52304C4.63089 7.49823 3.99874 8.82087 3.99874 10.2C3.99874 12.4818 3.43288 14.1506 2.72681 15.3447C1.92208 16.7056 1.51972 17.3861 1.53561 17.5486C1.55379 17.7346 1.58726 17.7933 1.73808 17.9036C1.86991 18 2.53225 18 3.85693 18H16.1406C17.4652 18 18.1276 18 18.2594 17.9036C18.4102 17.7933 18.4437 17.7346 18.4619 17.5486C18.4778 17.3861 18.0754 16.7056 17.2707 15.3447C16.5646 14.1506 15.9987 12.4818 15.9987 10.2Z" stroke="white" stroke-width="1.5" stroke-linecap="round" stroke-linejoin="round"/>
</svg>
