<svg width="24" height="24" viewBox="0 0 24 24" fill="none" xmlns="http://www.w3.org/2000/svg">
<g clip-path="url(#clip0_2789_19963)">
<path d="M22.2802 5.52295V23.9999H2.23438V0H16.7573L19.3297 2.57245L22.2802 5.52295Z" fill="#B12A27"/>
<path d="M11.3249 1.60742H1.71094V5.90905H11.3249V1.60742Z" fill="#F2F2F2"/>
<path d="M5.15536 3.01903C5.11294 2.91656 5.05641 2.82469 4.97869 2.74697C4.90097 2.66925 4.80553 2.60564 4.69598 2.56322C4.58292 2.51728 4.4557 2.49609 4.31438 2.49609H3.25781V5.22398H3.79139V4.19569H4.31438C4.4557 4.19569 4.58292 4.1745 4.69598 4.12856C4.80553 4.08614 4.90092 4.02258 4.97869 3.94481C5.05645 3.86709 5.11298 3.77873 5.15536 3.67275C5.19422 3.57028 5.21545 3.46073 5.21545 3.34767C5.21541 3.23105 5.19422 3.1215 5.15536 3.01903ZM4.57936 3.61617C4.50867 3.6833 4.40977 3.71864 4.28963 3.71864H3.79139V2.96953H4.28963C4.40977 2.96953 4.50872 3.00487 4.57936 3.07552C4.64648 3.14264 4.68183 3.23452 4.68183 3.34758C4.68187 3.45717 4.64653 3.54905 4.57936 3.61617Z" fill="#B12A27"/>
<path d="M7.70964 3.55261C7.70613 3.45722 7.70256 3.37242 7.69197 3.29466C7.68138 3.21689 7.6637 3.14625 7.63895 3.07913C7.6142 3.01552 7.58242 2.95191 7.54 2.89538C7.44461 2.75756 7.32798 2.65509 7.19725 2.59148C7.06295 2.52787 6.90395 2.49609 6.71669 2.49609H5.73438V5.22398H6.71669C6.90395 5.22398 7.06295 5.1922 7.19725 5.12859C7.32798 5.06498 7.44461 4.96252 7.54 4.8247C7.58242 4.76817 7.6142 4.70456 7.63895 4.64095C7.6637 4.57383 7.68138 4.50314 7.69197 4.42542C7.70256 4.3477 7.70608 4.26286 7.70964 4.16747C7.71316 4.07559 7.71316 3.97312 7.71316 3.86006C7.71316 3.747 7.71316 3.64448 7.70964 3.55261ZM7.17606 4.13569C7.17606 4.21697 7.16898 4.28058 7.16191 4.33711C7.15483 4.39012 7.14423 4.43958 7.13013 4.47492C7.11602 4.51378 7.09478 4.54912 7.07008 4.58091C6.98172 4.69397 6.84747 4.74698 6.6708 4.74698H6.26444V2.96958H6.6708C6.84747 2.96958 6.98177 3.02611 7.07008 3.13917C7.09483 3.17095 7.11602 3.20278 7.13013 3.24164C7.14423 3.2805 7.15488 3.32644 7.16191 3.38297C7.16898 3.43598 7.17606 3.50311 7.17606 3.58083C7.17958 3.65859 7.17958 3.75398 7.17958 3.85997C7.17963 3.96605 7.17963 4.05792 7.17606 4.13569Z" fill="#B12A27"/>
<path d="M9.98609 2.96958V2.49609H8.1875V5.22398H8.72108V4.11802H9.79883V3.64097H8.72108V2.96958H9.98609Z" fill="#B12A27"/>
<path d="M5.15536 3.01903C5.11294 2.91656 5.05641 2.82469 4.97869 2.74697C4.90097 2.66925 4.80553 2.60564 4.69598 2.56322C4.58292 2.51728 4.4557 2.49609 4.31438 2.49609H3.25781V5.22398H3.79139V4.19569H4.31438C4.4557 4.19569 4.58292 4.1745 4.69598 4.12856C4.80553 4.08614 4.90092 4.02258 4.97869 3.94481C5.05645 3.86709 5.11298 3.77873 5.15536 3.67275C5.19422 3.57028 5.21545 3.46073 5.21545 3.34767C5.21541 3.23105 5.19422 3.1215 5.15536 3.01903ZM4.57936 3.61617C4.50867 3.6833 4.40977 3.71864 4.28963 3.71864H3.79139V2.96953H4.28963C4.40977 2.96953 4.50872 3.00487 4.57936 3.07552C4.64648 3.14264 4.68183 3.23452 4.68183 3.34758C4.68187 3.45717 4.64653 3.54905 4.57936 3.61617Z" fill="#B12A27"/>
<path opacity="0.08" d="M22.2802 5.52277V23.9997H2.23438V19.6676L11.6053 10.2966L12.1601 9.74184L12.4675 9.43439L12.9799 8.92205L13.5877 8.31427L19.3297 2.57227L22.2802 5.52277Z" fill="#040000"/>
<path d="M22.2814 5.52356H16.7578V0L22.2814 5.52356Z" fill="#771B1B"/>
<path d="M19.4211 17.3732C19.3044 17.1683 19.1454 16.974 18.9476 16.7973C18.7851 16.6489 18.5942 16.5111 18.3787 16.3838C17.5094 15.8715 16.2691 15.6241 14.5836 15.6241H14.414C14.3221 15.5393 14.2268 15.4545 14.1278 15.3662C13.4882 14.7902 12.9794 14.1648 12.5836 13.4687C13.361 11.7549 13.732 10.2284 13.6861 8.92805C13.679 8.70895 13.6472 8.50402 13.5907 8.31319C13.5059 8.00578 13.3646 7.73367 13.1667 7.51106C13.1632 7.50755 13.1632 7.50755 13.1596 7.50398C12.8451 7.15064 12.407 6.94922 11.9617 6.94922C11.5129 6.94922 11.0995 7.14356 10.7992 7.50047C10.5023 7.85381 10.3433 8.33794 10.3363 8.90681C10.3257 9.77606 10.3963 10.5994 10.5448 11.3591C10.5589 11.4192 10.5695 11.4792 10.5836 11.5393C10.732 12.2283 10.9511 12.882 11.2338 13.4898C10.9016 14.1647 10.566 14.7477 10.3327 15.1435C10.156 15.4439 9.96169 15.7583 9.76027 16.0728C8.85216 16.2354 8.08182 16.4332 7.41047 16.6806C6.50236 17.0092 5.77444 17.4332 5.25146 17.9385C4.91222 18.2636 4.68253 18.6099 4.56947 18.9704C4.44933 19.3414 4.45641 19.7124 4.59066 20.0445C4.71432 20.352 4.93693 20.6099 5.23378 20.7866C5.30447 20.829 5.37868 20.8643 5.45639 20.8961C5.68257 20.988 5.92988 21.0375 6.18783 21.0375C6.78502 21.0375 7.39983 20.7795 7.91925 20.3166C8.88746 19.4509 9.88744 18.0587 10.4776 17.1788C10.9616 17.1046 11.4881 17.041 12.0818 16.9774C12.7815 16.9067 13.3998 16.8643 13.9617 16.8431C14.1348 16.9986 14.3009 17.147 14.4599 17.2883C15.3433 18.0763 16.0147 18.6452 16.6224 19.0445C16.6224 19.048 16.626 19.048 16.6295 19.048C16.8698 19.207 17.0995 19.3377 17.3292 19.4437C17.5871 19.5639 17.8486 19.6275 18.1171 19.6275C18.4564 19.6275 18.7744 19.525 19.0394 19.3378C19.308 19.1434 19.5023 18.8643 19.5907 18.5498C19.6931 18.1718 19.6331 17.7513 19.4211 17.3732ZM11.6084 10.2955C11.5589 9.85734 11.5377 9.40153 11.5448 8.92097C11.5518 8.46516 11.7179 8.1577 11.9617 8.1577C12.1455 8.1577 12.3398 8.32378 12.4281 8.64178C12.4529 8.73717 12.4705 8.84672 12.4741 8.97037C12.4811 9.11878 12.4776 9.27427 12.4705 9.43327C12.4493 9.88205 12.3716 10.359 12.2373 10.8714C12.156 11.2001 12.0501 11.5428 11.9193 11.8997C11.7709 11.398 11.6649 10.8644 11.6084 10.2955ZM5.71439 19.5958C5.6543 19.4474 5.72147 19.1612 6.08897 18.8078C6.65082 18.2708 7.53066 17.8467 8.75682 17.5252C8.52361 17.8432 8.29393 18.1329 8.07132 18.3979C7.73208 18.8078 7.407 19.1541 7.11371 19.4156C6.86283 19.6417 6.58721 19.7831 6.32574 19.8184C6.2798 19.8255 6.23386 19.829 6.18793 19.829C5.95819 19.8291 5.77093 19.7372 5.71439 19.5958ZM11.361 15.8397L11.3858 15.8008L11.3469 15.8079C11.354 15.7902 11.3646 15.7725 11.3752 15.7584C11.5236 15.5076 11.7108 15.186 11.9123 14.815L11.9299 14.8538L11.9759 14.7585C12.1243 14.9705 12.2868 15.179 12.4564 15.3803C12.5377 15.4757 12.6225 15.5676 12.7073 15.6595L12.6508 15.663L12.7002 15.7089C12.5553 15.7195 12.4034 15.7337 12.2514 15.7478C12.1561 15.7584 12.0571 15.7655 11.9581 15.7761C11.7533 15.7972 11.5518 15.8185 11.361 15.8397ZM17.308 18.0446C16.8875 17.776 16.4176 17.3979 15.838 16.8926C16.6613 16.9774 17.308 17.1577 17.7674 17.4262C17.9688 17.5428 18.1207 17.663 18.2232 17.7795C18.3928 17.9597 18.4529 18.1223 18.421 18.2318C18.3928 18.3414 18.2691 18.4156 18.1171 18.4156C18.0288 18.4156 17.937 18.3944 17.8415 18.3485C17.679 18.2708 17.5094 18.1753 17.3292 18.0587C17.3221 18.0587 17.3151 18.0517 17.308 18.0446Z" fill="#F2F2F2"/>
</g>
<defs>
<clipPath id="clip0_2789_19963">
<rect width="24" height="24" fill="white"/>
</clipPath>
</defs>
</svg>
