<svg width="32" height="32" viewBox="0 0 32 32" fill="none" xmlns="http://www.w3.org/2000/svg">
<rect width="32" height="32" rx="16" fill="#CFCFCF"/>
<path d="M9 8.98951C9 8.01835 9 7.53277 9.20249 7.2651C9.37889 7.03191 9.64852 6.88761 9.9404 6.87018C10.2754 6.85017 10.6795 7.11953 11.4875 7.65823L22.0031 14.6686C22.6708 15.1137 23.0046 15.3363 23.1209 15.6168C23.2227 15.8621 23.2227 16.1377 23.1209 16.383C23.0046 16.6635 22.6708 16.886 22.0031 17.3312L11.4875 24.3415C10.6795 24.8802 10.2754 25.1496 9.9404 25.1296C9.64852 25.1122 9.37889 24.9679 9.20249 24.7347C9 24.467 9 23.9814 9 23.0103V8.98951Z" fill="#646464"/>
</svg>
