<svg width="32" height="32" viewBox="0 0 32 32" fill="none" xmlns="http://www.w3.org/2000/svg">
<g clip-path="url(#clip0_3337_23031)">
<path fill-rule="evenodd" clip-rule="evenodd" d="M15.5916 11.928C16.4373 11.928 17.1225 12.6132 17.1225 13.4589C17.1225 14.3047 16.4373 14.9898 15.5916 14.9898C14.7458 14.9898 14.0607 14.3047 14.0607 13.4589C14.0607 12.6132 14.7458 11.928 15.5916 11.928ZM19.1908 13.8497C19.9055 13.8497 20.4855 14.4289 20.4855 15.1444C20.4855 15.8599 19.9064 16.4391 19.1908 16.4391C18.4753 16.4391 17.8961 15.8599 17.8961 15.1444C17.8961 14.4289 18.4753 13.8497 19.1908 13.8497ZM15.6984 15.7279H15.8703L15.938 15.7305L16.0075 15.7348L16.0726 15.7435L16.1404 15.7522L16.2038 15.7678L16.2689 15.7835L16.3297 15.8008L16.3904 15.8225L16.4512 15.846L16.5077 15.872L16.5641 15.9007L16.618 15.9311L16.6701 15.9658L16.7204 16.0005L16.7708 16.0379L16.8168 16.077L16.8628 16.1178L16.9045 16.1595L16.9453 16.2055L16.9827 16.2515L17.0174 16.2993L17.0504 16.3496L17.0782 16.4L17.1068 16.4521L17.1303 16.5068L17.152 16.5615L17.1693 16.6179L17.185 16.6744L17.1963 16.7308L17.2049 16.789L17.211 16.8498V16.9106L17.2058 24.6275C16.2081 24.8229 15.2234 24.8446 14.2526 24.6752L14.2213 16.9106L14.2239 16.8498L14.2309 16.789L14.2422 16.7308L14.2552 16.6744L14.2743 16.6179L14.296 16.5615L14.3203 16.5068L14.3507 16.4521L14.3811 16.4L14.4185 16.3496L14.4558 16.2993L14.4975 16.2515L14.5409 16.2055L14.5869 16.1595L14.6364 16.1178L14.6868 16.077L14.7415 16.0379L14.7962 16.0005L14.8526 15.9632L14.9134 15.9311L14.9725 15.9007L15.035 15.872L15.0984 15.846L15.1635 15.8225L15.2286 15.8008L15.2937 15.7835L15.3615 15.7661L15.4309 15.7531L15.4978 15.7444L15.5673 15.7357L15.6341 15.7314L15.7036 15.7288L15.6984 15.7279ZM11.1136 20.6114L11.1188 18.4458C11.1188 16.9149 13.5683 16.8237 13.6257 18.4458L13.6109 24.5658C9.10769 23.4969 6.31599 19.2429 6.89777 14.4488C7.68102 10.0368 10.9955 6.94812 15.5308 6.83697C20.2328 6.95159 23.6402 10.2886 24.2203 14.8969C24.4165 17.6243 23.7236 19.7804 21.9912 21.8419C20.7764 23.1574 19.5356 23.9667 17.8119 24.4747L17.8024 18.6985C17.8605 17.1164 20.2511 17.1138 20.3093 18.6985L20.3153 20.2676C21.7655 18.7471 22.3681 16.9757 22.2074 14.8865C21.7698 11.4991 19.2829 9.12938 15.8747 8.86715L15.5291 8.85846C12.0965 8.94616 9.51929 11.1839 8.89495 14.5504C8.63271 16.6883 9.15111 18.438 10.5231 20.0218C10.7054 20.232 10.9017 20.4317 11.1127 20.614L11.1136 20.6114ZM3.68926 8.20113L13.7924 0.747314C15.1887 -0.246933 16.1985 -0.251274 17.6 0.747314L27.7023 8.202L28.0913 8.49029C29.0838 9.2249 29.6352 9.88397 29.7507 11.0875C29.762 11.2021 29.7663 11.3106 29.7681 11.4244C29.7985 14.4992 29.7985 17.5002 29.7681 20.5758C29.7663 20.6904 29.7611 20.799 29.7507 20.9127C29.6352 22.1162 29.0838 22.7753 28.0913 23.5099L17.6 31.252C16.1985 32.2506 15.1887 32.2472 13.7924 31.252L3.30112 23.5099C2.30861 22.7753 1.75721 22.1162 1.64172 20.9127C1.63043 20.7981 1.62609 20.6896 1.62436 20.5758C1.59396 17.501 1.59396 14.5001 1.62436 11.4244C1.62609 11.3098 1.6313 11.2012 1.64172 11.0875C1.75721 9.88397 2.30861 9.2249 3.30112 8.49029L3.69013 8.202L3.68926 8.20113ZM14.2396 4.33181L5.69773 10.6533C4.4508 11.6102 3.70576 12.5289 3.16739 14.0138C2.9781 14.6494 2.89995 15.0862 2.85913 15.747C2.86 15.9163 2.86 16.0822 2.85913 16.2524C2.90081 16.914 2.97896 17.3508 3.16739 17.9856C3.70576 19.4704 4.4508 20.3891 5.69773 21.346L14.2396 27.6675C15.2703 28.4247 16.1221 28.4239 17.152 27.6675L25.6938 21.346C26.9408 20.3891 27.6858 19.4704 28.2242 17.9856C28.4135 17.3499 28.4916 16.9132 28.5324 16.2524C28.5324 16.0822 28.5316 15.9163 28.5324 15.747C28.4907 15.0853 28.4126 14.6485 28.2242 14.0138C27.6858 12.5289 26.9408 11.6102 25.6938 10.6533L17.152 4.33181C16.1221 3.57549 15.2703 3.57462 14.2387 4.33181H14.2396ZM12.2259 13.8497C12.9405 13.8497 13.5206 14.4289 13.5206 15.1444C13.5206 15.8599 12.9414 16.4391 12.2259 16.4391C11.5104 16.4391 10.9312 15.8599 10.9312 15.1444C10.9312 14.4289 11.5104 13.8497 12.2259 13.8497Z" fill="#2E3192"/>
</g>
<defs>
<clipPath id="clip0_3337_23031">
<rect width="32" height="32" fill="white"/>
</clipPath>
</defs>
</svg>
