<svg width="32" height="32" viewBox="0 0 32 32" fill="none" xmlns="http://www.w3.org/2000/svg">
<rect width="32" height="32" rx="16" fill="#D1C4E9"/>
<path d="M24 23V20H11C9.34315 20 8 21.3431 8 23M12.8 26H20.8C21.9201 26 22.4802 26 22.908 25.782C23.2843 25.5903 23.5903 25.2843 23.782 24.908C24 24.4802 24 23.9201 24 22.8V9.2C24 8.07989 24 7.51984 23.782 7.09202C23.5903 6.71569 23.2843 6.40973 22.908 6.21799C22.4802 6 21.9201 6 20.8 6H12.8C11.1198 6 10.2798 6 9.63803 6.32698C9.07354 6.6146 8.6146 7.07354 8.32698 7.63803C8 8.27976 8 9.11984 8 10.8V21.2C8 22.8802 8 23.7202 8.32698 24.362C8.6146 24.9265 9.07354 25.3854 9.63803 25.673C10.2798 26 11.1198 26 12.8 26Z" stroke="#5D34A5" stroke-width="1.5" stroke-linecap="round" stroke-linejoin="round"/>
</svg>
