<svg width="40" height="40" viewBox="0 0 40 40" fill="none" xmlns="http://www.w3.org/2000/svg">
<rect width="40" height="40" rx="20" fill="#ECEEF8"/>
<path d="M21 13C21 14.1046 18.5376 15 15.5 15C12.4624 15 10 14.1046 10 13M21 13C21 11.8954 18.5376 11 15.5 11C12.4624 11 10 11.8954 10 13M21 13V17.4571C19.7785 17.824 19 18.3789 19 19M10 13V25C10 26.1046 12.4624 27 15.5 27C16.8296 27 18.0491 26.8284 19 26.5429V19M10 17C10 18.1046 12.4624 19 15.5 19C16.8296 19 18.0491 18.8284 19 18.5429M10 21C10 22.1046 12.4624 23 15.5 23C16.8296 23 18.0491 22.8284 19 22.5429M30 19C30 20.1046 27.5376 21 24.5 21C21.4624 21 19 20.1046 19 19M30 19C30 17.8954 27.5376 17 24.5 17C21.4624 17 19 17.8954 19 19M30 19V27C30 28.1046 27.5376 29 24.5 29C21.4624 29 19 28.1046 19 27V19M30 23C30 24.1046 27.5376 25 24.5 25C21.4624 25 19 24.1046 19 23" stroke="#3F51B5" stroke-width="1.5" stroke-linecap="round" stroke-linejoin="round"/>
</svg>
