<svg width="24" height="24" viewBox="0 0 24 24" fill="none" xmlns="http://www.w3.org/2000/svg">
<rect width="24" height="24" rx="12" fill="#F0EBF8"/>
<path d="M18 10.6673H6M14.6667 5.33398V8.00065M9.33333 5.33398V8.00065M10 14.6673L11.3333 16.0007L14.3333 13.0007M9.2 18.6673H14.8C15.9201 18.6673 16.4802 18.6673 16.908 18.4493C17.2843 18.2576 17.5903 17.9516 17.782 17.5753C18 17.1475 18 16.5874 18 15.4673V9.86732C18 8.74721 18 8.18716 17.782 7.75934C17.5903 7.38301 17.2843 7.07705 16.908 6.8853C16.4802 6.66732 15.9201 6.66732 14.8 6.66732H9.2C8.0799 6.66732 7.51984 6.66732 7.09202 6.8853C6.71569 7.07705 6.40973 7.38301 6.21799 7.75934C6 8.18716 6 8.74721 6 9.86732V15.4673C6 16.5874 6 17.1475 6.21799 17.5753C6.40973 17.9516 6.71569 18.2576 7.09202 18.4493C7.51984 18.6673 8.0799 18.6673 9.2 18.6673Z" stroke="#5D34A5" stroke-width="1.5" stroke-linecap="round" stroke-linejoin="round"/>
</svg>
