<svg width="24" height="24" viewBox="0 0 24 24" fill="none" xmlns="http://www.w3.org/2000/svg">
<path d="M22.8028 12V16.818C22.8028 17.238 22.6888 17.646 22.4848 18C20.8108 17.04 19.1428 16.086 17.4688 15.132C19.2448 14.088 21.0268 13.044 22.8028 12Z" fill="#E64B50"/>
<path d="M22.8028 11.999C21.0268 13.043 19.2448 14.087 17.4688 15.131V8.87305C19.2448 9.91705 21.0268 10.961 22.8028 12.005V11.999Z" fill="#4C3682"/>
<path d="M22.8028 7.182V12C21.0268 10.956 19.2448 9.912 17.4688 8.868C19.1428 7.914 20.8108 6.954 22.4848 6C22.6888 6.354 22.8028 6.762 22.8028 7.182Z" fill="#784387"/>
<path d="M22.4804 5.99866C20.8064 6.95866 19.1384 7.91266 17.4644 8.86666C17.4404 6.82065 17.4224 4.76866 17.3984 2.72266L21.6044 5.12866C21.9704 5.33866 22.2704 5.63865 22.4744 5.99265L22.4804 5.99866Z" fill="#59D5BC"/>
<path d="M17.4 2.72986C15.6 3.73786 13.8 4.73986 12 5.74786V0.00585938C12.414 0.00585938 12.822 0.113861 13.194 0.323861L17.4 2.72986Z" fill="#7DB326"/>
<path d="M12.0016 0V5.742C10.2016 4.74 8.40156 3.732 6.60156 2.724L10.8076 0.317999C11.1736 0.107999 11.5876 0 12.0016 0Z" fill="#B8CD02"/>
<path d="M6.59763 2.73047C6.57363 4.77647 6.55562 6.82847 6.53162 8.87447C4.85763 7.92047 3.18963 6.96047 1.51562 6.00647C1.71963 5.65247 2.01963 5.35247 2.38563 5.14247L6.59163 2.73647L6.59763 2.73047Z" fill="#EE7415"/>
<path d="M6.53712 8.87386C4.76112 9.91786 2.97913 10.9619 1.20312 12.0059V7.18786C1.20312 6.76786 1.31712 6.35986 1.52112 6.00586C3.19512 6.96586 4.86312 7.91986 6.53712 8.87386Z" fill="#E64B50"/>
<path d="M6.53712 15.132C4.86312 16.086 3.19512 17.046 1.52112 18C1.31712 17.646 1.20312 17.238 1.20312 16.818V12C2.97913 13.044 4.76112 14.088 6.53712 15.132Z" fill="#4C3683"/>
<path d="M6.59944 21.2767L2.39344 18.8707C2.02744 18.6607 1.72744 18.3607 1.52344 18.0067C3.19744 17.0467 4.86544 16.0927 6.53944 15.1387L6.60544 21.2827L6.59944 21.2767Z" fill="#1068A0"/>
<path d="M12.0034 18.2578V23.9998C11.6014 23.9998 11.1934 23.8978 10.8274 23.6938C10.8274 23.6938 10.8274 23.6938 10.8214 23.6938C10.8214 23.6938 10.8214 23.6938 10.8154 23.6938L6.60938 21.2878C8.40938 20.2858 10.2094 19.2778 12.0094 18.2698L12.0034 18.2578Z" fill="#7DB326"/>
<path d="M17.4 21.2758L13.194 23.6818C13.194 23.6818 13.188 23.6818 13.182 23.6878C12.816 23.8978 12.408 23.9998 12 23.9998V18.2578C13.8 19.2598 15.6 20.2678 17.4 21.2758Z" fill="#B8CD02"/>
<path d="M22.4823 18.001C22.2783 18.355 21.9783 18.655 21.6123 18.865L17.4062 21.271C17.4303 19.225 17.4482 17.173 17.4722 15.127C19.1462 16.081 20.8142 17.041 22.4882 17.995L22.4823 18.001Z" fill="#EE7415"/>
<path d="M17.4633 8.87405C15.6392 9.91805 13.8213 10.962 11.9973 12.006C10.1733 10.962 8.35525 9.91805 6.53125 8.88005L9.26125 7.31405L11.9913 5.74805L14.7213 7.31405L17.4513 8.88005L17.4633 8.87405Z" fill="#FEFEFE"/>
<path d="M17.4678 8.87305V15.131L14.7378 16.697L12.0078 18.263V12.005C13.8318 10.961 15.6498 9.91705 17.4738 8.87905L17.4678 8.87305Z" fill="#F0F0F0"/>
<path d="M11.9991 11.9992V18.2572L9.26906 16.6912L6.53906 15.1252V8.86719C8.36306 9.91119 10.1811 10.9552 12.0051 11.9932L11.9991 11.9992Z" fill="#E3E2E3"/>
<path d="M6.53712 8.87305V15.131C4.76112 14.087 2.97913 13.043 1.20312 11.999C2.97913 10.955 4.76112 9.91105 6.53712 8.87305Z" fill="#794386"/>
<path d="M17.4678 8.87266L14.7378 7.30666L12.0078 5.74066C13.8078 4.73866 15.6078 3.73066 17.4078 2.72266C17.4318 4.76866 17.4498 6.82065 17.4738 8.86666L17.4678 8.87266Z" fill="#35AC9D"/>
<path d="M6.59725 21.2768L6.53125 15.1328L9.26125 16.6988L11.9913 18.2648C10.1913 19.2728 8.39125 20.2748 6.59125 21.2828L6.59725 21.2768Z" fill="#49BCC9"/>
<path d="M11.9991 5.74247L9.26906 7.30847L6.53906 8.87447C6.56306 6.82847 6.58106 4.77647 6.60506 2.73047C8.40506 3.73847 10.2051 4.74047 12.0051 5.74847L11.9991 5.74247Z" fill="#F5A825"/>
<path d="M17.466 15.133C17.442 17.179 17.424 19.231 17.4 21.277C15.6 20.269 13.8 19.267 12 18.259L14.73 16.693L17.46 15.127L17.466 15.133Z" fill="#F5A825"/>
</svg>
