<svg width="32" height="32" viewBox="0 0 32 32" fill="none" xmlns="http://www.w3.org/2000/svg">
<rect width="32" height="32" rx="4" fill="#3F51B5"/>
<path d="M17.5006 15.9997L23.0006 15.9997M23.0852 15.7082L25.4201 8.73352C25.6036 8.18558 25.6953 7.91162 25.6295 7.7429C25.5723 7.59638 25.4495 7.4853 25.2981 7.44302C25.1236 7.39434 24.8602 7.5129 24.3332 7.75002L7.62175 15.2702C7.10742 15.5016 6.85026 15.6173 6.77077 15.7781C6.70172 15.9178 6.70172 16.0817 6.77077 16.2213C6.85026 16.3821 7.10742 16.4978 7.62175 16.7293L24.339 24.252C24.8644 24.4884 25.1271 24.6066 25.3013 24.5581C25.4527 24.516 25.5754 24.4052 25.6328 24.259C25.6988 24.0906 25.6081 23.8172 25.4266 23.2704L23.0846 16.2142C23.0534 16.1203 23.0378 16.0733 23.0317 16.0253C23.0262 15.9827 23.0262 15.9396 23.0318 15.897C23.0381 15.849 23.0538 15.802 23.0852 15.7082Z" stroke="white" stroke-width="1.5" stroke-linecap="round" stroke-linejoin="round"/>
</svg>
