<svg width="32" height="32" viewBox="0 0 32 32" fill="none" xmlns="http://www.w3.org/2000/svg">
<rect width="32" height="32" rx="4" fill="#F5F5F5"/>
<path d="M17.4996 15.9992L22.9996 15.9992M23.0842 15.7077L25.4192 8.73304C25.6026 8.1851 25.6943 7.91113 25.6285 7.74241C25.5713 7.5959 25.4486 7.48481 25.2971 7.44254C25.1226 7.39385 24.8592 7.51241 24.3322 7.74953L7.62077 15.2697C7.10644 15.5011 6.84928 15.6169 6.7698 15.7776C6.70074 15.9173 6.70074 16.0812 6.7698 16.2208C6.84928 16.3816 7.10645 16.4973 7.62077 16.7288L24.3381 24.2515C24.8634 24.4879 25.1261 24.6061 25.3003 24.5576C25.4517 24.5155 25.5744 24.4047 25.6318 24.2585C25.6978 24.0901 25.6071 23.8167 25.4256 23.27L23.0836 16.2137C23.0524 16.1198 23.0368 16.0728 23.0307 16.0248C23.0252 15.9822 23.0253 15.9391 23.0308 15.8965C23.0371 15.8485 23.0528 15.8016 23.0842 15.7077Z" stroke="#646464" stroke-width="1.5" stroke-linecap="round" stroke-linejoin="round"/>
</svg>
