<svg width="17" height="16" viewBox="0 0 17 16" fill="none" xmlns="http://www.w3.org/2000/svg">
<path d="M7.50098 9.00012L14.501 2.00012M7.58604 9.21883L9.33811 13.7242C9.49246 14.1211 9.56964 14.3195 9.68084 14.3774C9.77724 14.4277 9.89207 14.4277 9.98853 14.3776C10.0998 14.3198 10.1772 14.1215 10.332 13.7247L14.7256 2.46625C14.8653 2.10813 14.9352 1.92907 14.897 1.81465C14.8638 1.71528 14.7858 1.6373 14.6865 1.60411C14.572 1.56588 14.393 1.63576 14.0349 1.77552L2.77635 6.16908C2.37964 6.32389 2.18128 6.4013 2.12347 6.51257C2.07336 6.60903 2.07343 6.72386 2.12365 6.82026C2.18159 6.93146 2.38004 7.00864 2.77694 7.16299L7.28227 8.91506C7.36284 8.94639 7.40312 8.96206 7.43704 8.98625C7.46711 9.0077 7.4934 9.03399 7.51485 9.06406C7.53904 9.09798 7.55471 9.13826 7.58604 9.21883Z" stroke="white" stroke-width="1.5" stroke-linecap="round" stroke-linejoin="round"/>
</svg>
