<svg width="14" height="16" viewBox="0 0 14 16" fill="none" xmlns="http://www.w3.org/2000/svg">
<path d="M4.72667 9.00732L9.28 11.6607M9.27333 4.34065L4.72667 6.99398M13 3.33398C13 4.43855 12.1046 5.33398 11 5.33398C9.89543 5.33398 9 4.43855 9 3.33398C9 2.22941 9.89543 1.33398 11 1.33398C12.1046 1.33398 13 2.22941 13 3.33398ZM5 8.00065C5 9.10522 4.10457 10.0007 3 10.0007C1.89543 10.0007 1 9.10522 1 8.00065C1 6.89608 1.89543 6.00065 3 6.00065C4.10457 6.00065 5 6.89608 5 8.00065ZM13 12.6673C13 13.7719 12.1046 14.6673 11 14.6673C9.89543 14.6673 9 13.7719 9 12.6673C9 11.5627 9.89543 10.6673 11 10.6673C12.1046 10.6673 13 11.5627 13 12.6673Z" stroke="#3F51B5" stroke-width="1.5" stroke-linecap="round" stroke-linejoin="round"/>
</svg>
