<svg width="24" height="24" viewBox="0 0 24 24" fill="none" xmlns="http://www.w3.org/2000/svg">
<g clip-path="url(#clip0_2789_19968)">
<path d="M14.3534 0.306048C13.7716 0.246073 13.2498 0.240073 12.728 0.294051C11.2705 0.437992 9.93903 0.869815 8.90142 1.96737C8.11572 2.80102 7.68388 3.82061 7.40198 4.91216C6.98214 6.5195 7.06011 8.12684 7.37799 9.74018C7.66588 11.2276 8.21168 12.631 8.70949 14.0464C8.9494 14.7301 9.16532 15.4139 9.19531 16.1456C9.2373 17.1232 8.9494 17.9748 8.31364 18.7125C7.48595 19.6721 6.43634 20.1939 5.16482 20.2059C3.77334 20.2179 2.66375 19.6361 1.90204 18.4726C0.996377 17.0932 0.414595 15.5758 0.162689 13.9445C-0.269149 11.1976 0.150694 8.58865 1.51818 6.16565C3.26953 3.05892 5.92653 1.12171 9.38724 0.294051C10.9227 -0.0717996 12.4701 -0.0777953 14.0235 0.174102C14.1195 0.192094 14.2214 0.210088 14.3534 0.306048Z" fill="#196FEE"/>
<path d="M5.33594 21.9207C6.15163 22.3825 6.99132 22.7963 7.89098 23.0602C11.0878 23.9898 14.0807 23.486 16.7977 21.6028C18.1831 20.6432 19.0228 19.2158 19.6046 17.6504C20.6662 14.7896 20.0364 11.0711 18.0092 8.70808C17.1875 7.75447 16.2579 6.93281 15.2922 6.14713C15.0043 5.91323 14.7044 5.68532 14.4465 5.42143C13.7268 4.69572 13.5169 3.82008 13.7988 2.85448C14.0807 1.87088 14.7764 1.30711 15.76 1.07921C16.3238 0.947261 16.8636 1.01323 17.3794 1.28912C20.7622 3.08239 22.9334 5.82326 23.7251 9.57173C24.3728 12.6605 23.863 15.5813 22.2076 18.2802C21.9677 18.67 21.9137 19.0239 21.9737 19.4617C22.1417 20.6732 22.2856 21.8907 22.4295 23.1082C22.4895 23.624 22.4835 23.63 21.9797 23.498C20.7382 23.1682 19.4966 22.8383 18.2551 22.5024C18.0452 22.4485 17.8713 22.4664 17.6853 22.5684C16.4918 23.1922 15.2382 23.624 13.9127 23.8459C12.3113 24.1098 10.7279 24.0258 9.15651 23.654C7.86099 23.3481 6.65544 22.8203 5.53386 22.0946C5.46789 22.0526 5.36593 22.0286 5.34793 21.9267L5.33594 21.9207Z" fill="#1A6FEE"/>
</g>
<defs>
<clipPath id="clip0_2789_19968">
<rect width="24" height="24" fill="white"/>
</clipPath>
</defs>
</svg>
