<svg width="24" height="24" viewBox="0 0 24 24" fill="none" xmlns="http://www.w3.org/2000/svg">
<path d="M11.2787 3.45258C11.5092 2.98564 11.6245 2.75218 11.7809 2.67758C11.917 2.61268 12.0752 2.61268 12.2113 2.67758C12.3677 2.75218 12.483 2.98564 12.7135 3.45258L14.9002 7.88255C14.9682 8.0204 15.0022 8.08933 15.0519 8.14284C15.096 8.19023 15.1488 8.22862 15.2074 8.25589C15.2736 8.28669 15.3497 8.29781 15.5018 8.32004L20.3931 9.03497C20.9082 9.11026 21.1657 9.1479 21.2849 9.2737C21.3886 9.38316 21.4373 9.53356 21.4176 9.68304C21.3949 9.85485 21.2085 10.0364 20.8356 10.3996L17.2975 13.8457C17.1873 13.9531 17.1321 14.0068 17.0965 14.0707C17.065 14.1273 17.0448 14.1895 17.037 14.2538C17.0282 14.3264 17.0412 14.4023 17.0672 14.554L17.9021 19.4214C17.9901 19.9348 18.0341 20.1914 17.9514 20.3438C17.8794 20.4763 17.7514 20.5693 17.6032 20.5967C17.4327 20.6283 17.2022 20.5071 16.7412 20.2647L12.3685 17.9651C12.2322 17.8935 12.1641 17.8576 12.0923 17.8436C12.0288 17.8311 11.9634 17.8311 11.8999 17.8436C11.8281 17.8576 11.76 17.8935 11.6237 17.9651L7.25102 20.2647C6.79001 20.5071 6.55951 20.6283 6.38907 20.5967C6.24078 20.5693 6.11282 20.4763 6.04083 20.3438C5.95809 20.1914 6.00212 19.9348 6.09017 19.4214L6.92498 14.554C6.95101 14.4023 6.96402 14.3264 6.95521 14.2538C6.94742 14.1895 6.92721 14.1273 6.8957 14.0707C6.86012 14.0068 6.80497 13.9531 6.69468 13.8457L3.15665 10.3996C2.78376 10.0364 2.59731 9.85485 2.57462 9.68304C2.55488 9.53356 2.60365 9.38316 2.70734 9.2737C2.82653 9.1479 3.08407 9.11026 3.59914 9.03497L8.4904 8.32004C8.64252 8.29781 8.71857 8.28669 8.78481 8.25589C8.84346 8.22862 8.89626 8.19023 8.94028 8.14284C8.99 8.08933 9.02402 8.0204 9.09207 7.88255L11.2787 3.45258Z" stroke="#212121" stroke-width="1.5" stroke-linecap="round" stroke-linejoin="round"/>
</svg>
