<svg width="32" height="32" viewBox="0 0 32 32" fill="none" xmlns="http://www.w3.org/2000/svg">
<g clip-path="url(#clip0_3337_23023)">
<path d="M8.17616 11.418C8.20053 11.1627 8.2365 10.9121 8.24346 10.6591C8.24926 10.4409 8.26435 10.2089 8.20401 10.0046C7.72129 8.37778 6.10603 7.7326 4.56039 8.53327C4.449 8.59129 4.32019 8.61682 4.11248 8.68644C4.34224 7.93567 4.53835 7.28585 4.73909 6.63836C5.01642 5.74138 5.27867 4.8386 5.58734 3.95206C5.67436 3.70258 5.8519 3.42292 6.0689 3.29296C7.17939 2.62458 8.35718 2.15578 9.69279 2.19523C11.9277 2.26138 14.5792 4.1354 14.759 6.8217C14.7602 6.84026 14.7799 6.85767 14.7776 6.85303C15.019 6.69522 15.3021 6.57802 15.4866 6.37147C15.7535 6.07209 16.0239 5.73674 16.1585 5.36889C16.6052 4.14933 16.1422 3.02723 15.0004 2.41803C14.7846 2.30315 14.5618 2.20104 14.2798 2.06295C14.3982 1.97708 14.4666 1.90282 14.5513 1.86684C15.9821 1.27041 17.4105 0.669325 18.8506 0.0972538C19.0838 0.00442278 19.4006 -0.0373512 19.6303 0.0415552C21.01 0.514993 22.2702 1.18454 23.0686 2.47837C23.8124 3.68517 24.0874 4.99989 23.8333 6.40048C23.6058 7.64905 23.4341 7.92059 22.218 9.28984C23.2937 9.76096 24.2649 9.57762 25.083 8.72357C25.922 7.84748 25.7595 6.8217 25.3789 5.6938C25.6029 5.78315 25.7189 5.82144 25.828 5.87366C27.1276 6.50259 28.4191 7.15009 29.7304 7.75581C30.2258 7.98441 30.4834 8.34065 30.6447 8.83961C30.9696 9.84567 31.1913 10.8552 31.0462 11.9228C30.8524 13.3524 30.1353 14.4849 29.0411 15.3714C27.6405 16.5051 26.06 16.8765 24.3543 16.1559C22.7344 15.4724 21.147 14.7123 19.5073 13.9685C20.2407 12.496 20.9277 11.1186 21.6216 9.72615C19.9065 10.4572 18.2298 11.1732 16.5286 11.8984C15.9345 10.4282 15.3729 9.04036 14.8263 7.68851C14.2798 9.54049 13.7298 11.4029 13.1716 13.2932C11.6643 12.8081 10.2498 12.3521 8.89096 11.9158C9.98172 13.5253 11.0899 15.1614 12.2213 16.8324C10.91 17.6725 9.6719 18.4662 8.34325 19.3179H13.6973C13.6973 19.6556 13.7019 19.9573 13.6973 20.259C13.6752 21.4948 13.6636 22.7306 13.6184 23.9664C13.601 24.4341 13.3086 24.6893 12.8548 24.7416C11.3092 24.9203 10.3588 26.7212 11.105 28.0962C11.3196 28.4919 11.6248 28.8377 11.9172 29.2462C11.807 29.2613 11.7107 29.2868 11.6144 29.2868C10.0363 29.2822 8.45697 29.2845 6.87885 29.2555C6.65257 29.2508 6.37988 29.1429 6.21394 28.9897C5.16728 28.0289 4.32019 26.9417 4.03358 25.4935C3.64485 23.529 4.59985 20.6616 6.94615 19.6939C7.14922 19.6103 7.35809 19.5419 7.52518 19.4804C6.84635 18.5161 5.92269 18.1424 4.79363 18.4453C3.62512 18.7598 3.19346 19.6985 2.97762 20.8496C2.86855 20.7614 2.785 20.722 2.74207 20.657C1.85553 19.3121 0.951588 17.9788 0.111468 16.6049C-0.0463451 16.3473 -0.00689195 15.918 0.049967 15.5873C0.280884 14.2667 0.752001 13.0495 1.76966 12.1154C3.31182 10.6986 6.05033 10.0418 8.17848 11.4192L8.17616 11.418Z" fill="#2554CC"/>
<path d="M23.7359 27.7402C23.6187 27.9049 23.5561 28.0117 23.476 28.1034C22.5001 29.2348 21.5335 30.3754 20.5333 31.4859C20.3372 31.7029 20.0157 31.9036 19.7361 31.9303C18.5502 32.0429 17.3538 32.0777 16.2375 31.5474C14.4134 30.6794 13.3632 29.2197 13.0592 27.2342C12.8689 25.9938 13.2124 24.8682 13.9991 23.9063C15.047 22.624 16.1331 21.3743 17.2041 20.1118C17.2482 20.0596 17.3097 20.0213 17.3805 19.9609C18.1951 20.6804 19.0016 21.3917 19.808 22.1053C20.126 22.3861 20.4486 22.6612 20.7584 22.9501C21.132 23.3005 21.1703 23.7276 20.8814 24.1546C20.039 25.3985 20.8002 27.2946 22.2889 27.6207C22.6498 27.6996 23.0328 27.6775 23.4052 27.703C23.4841 27.7088 23.5619 27.7204 23.7371 27.7413L23.7359 27.7402Z" fill="#2554CC"/>
<path d="M29.8415 17.105C29.8879 17.3185 29.9343 17.532 29.9807 17.7455C30.2708 19.0881 30.5644 20.4307 30.8476 21.7756C30.9346 22.191 30.8777 22.5739 30.6271 22.9487C30.0202 23.855 29.3623 24.6997 28.4061 25.2718C26.0633 26.6735 22.6668 25.9611 21.3869 23.7134C20.9715 22.9835 20.751 22.1248 20.541 21.2998C20.2439 20.129 20.042 18.9338 19.7914 17.7513C19.7357 17.4879 19.803 17.3916 20.0873 17.3394C21.4484 17.0841 22.8037 16.7975 24.1614 16.5213C24.629 16.4262 25.0352 16.6548 25.1999 17.1027C25.801 18.7388 27.8979 19.1624 29.1035 17.8848C29.3344 17.6411 29.5282 17.3626 29.7394 17.1004C29.773 17.1027 29.8078 17.105 29.8415 17.1073V17.105Z" fill="#2554CC"/>
</g>
<defs>
<clipPath id="clip0_3337_23023">
<rect width="32" height="32" fill="white"/>
</clipPath>
</defs>
</svg>
