<svg width="17" height="16" viewBox="0 0 17 16" fill="none" xmlns="http://www.w3.org/2000/svg">
<path d="M11.1667 4.00065V3.46732C11.1667 2.72058 11.1667 2.34721 11.0213 2.062C10.8935 1.81111 10.6895 1.60714 10.4387 1.47931C10.1534 1.33398 9.78007 1.33398 9.03333 1.33398H7.96667C7.21993 1.33398 6.84656 1.33398 6.56135 1.47931C6.31046 1.60714 6.10649 1.81111 5.97866 2.062C5.83333 2.34721 5.83333 2.72058 5.83333 3.46732V4.00065M2.5 4.00065H14.5M13.1667 4.00065V11.4673C13.1667 12.5874 13.1667 13.1475 12.9487 13.5753C12.7569 13.9516 12.451 14.2576 12.0746 14.4493C11.6468 14.6673 11.0868 14.6673 9.96667 14.6673H7.03333C5.91323 14.6673 5.35318 14.6673 4.92535 14.4493C4.54903 14.2576 4.24307 13.9516 4.05132 13.5753C3.83333 13.1475 3.83333 12.5874 3.83333 11.4673V4.00065" stroke="#F44336" stroke-width="1.5" stroke-linecap="round" stroke-linejoin="round"/>
</svg>
