<svg width="40" height="40" viewBox="0 0 40 40" fill="none" xmlns="http://www.w3.org/2000/svg">
<rect width="40" height="40" rx="20" fill="#ECEEF8"/>
<path d="M20.0018 23C16.8317 23 14.0126 24.5306 12.2178 26.906C11.8315 27.4172 11.6384 27.6728 11.6447 28.0183C11.6496 28.2852 11.8172 28.6219 12.0272 28.7867C12.299 29 12.6757 29 13.429 29H26.5746C27.3279 29 27.7046 29 27.9764 28.7867C28.1864 28.6219 28.354 28.2852 28.3589 28.0183C28.3652 27.6728 28.1721 27.4172 27.7858 26.906C25.991 24.5306 23.1719 23 20.0018 23Z" stroke="#3F51B5" stroke-width="1.5" stroke-linecap="round" stroke-linejoin="round"/>
<path d="M20.0018 20C22.4871 20 24.5018 17.9853 24.5018 15.5C24.5018 13.0147 22.4871 11 20.0018 11C17.5165 11 15.5018 13.0147 15.5018 15.5C15.5018 17.9853 17.5165 20 20.0018 20Z" stroke="#3F51B5" stroke-width="1.5" stroke-linecap="round" stroke-linejoin="round"/>
</svg>
