<svg width="20" height="20" viewBox="0 0 20 20" fill="none" xmlns="http://www.w3.org/2000/svg">
<g clip-path="url(#clip0_2089_3478)">
<path d="M3.33466 18.1805C3.8368 18.3327 4.51504 18.3327 5.66797 18.3327H14.3346C15.4876 18.3327 16.1658 18.3327 16.6679 18.1805M3.33466 18.1805C3.22699 18.1479 3.12741 18.1083 3.03299 18.0602C2.56259 17.8205 2.18014 17.4381 1.94045 16.9677C1.66797 16.4329 1.66797 15.7328 1.66797 14.3327V5.66602C1.66797 4.26588 1.66797 3.56582 1.94045 3.03104C2.18014 2.56063 2.56259 2.17818 3.03299 1.9385C3.56777 1.66602 4.26784 1.66602 5.66797 1.66602H14.3346C15.7348 1.66602 16.4348 1.66602 16.9696 1.9385C17.44 2.17818 17.8225 2.56063 18.0622 3.03104C18.3346 3.56582 18.3346 4.26588 18.3346 5.66602V14.3327C18.3346 15.7328 18.3346 16.4329 18.0622 16.9677C17.8225 17.4381 17.44 17.8205 16.9696 18.0602C16.8752 18.1083 16.7756 18.1479 16.6679 18.1805M3.33466 18.1805C3.33493 17.5061 3.33897 17.1492 3.39868 16.849C3.66171 15.5267 4.69537 14.4931 6.01767 14.2301C6.33966 14.166 6.72688 14.166 7.5013 14.166H12.5013C13.2757 14.166 13.6629 14.166 13.9849 14.2301C15.3072 14.4931 16.3409 15.5267 16.6039 16.849C16.6636 17.1492 16.6677 17.5061 16.6679 18.1805M13.3346 7.91602C13.3346 9.75697 11.8423 11.2493 10.0013 11.2493C8.16035 11.2493 6.66797 9.75697 6.66797 7.91602C6.66797 6.07507 8.16035 4.58268 10.0013 4.58268C11.8423 4.58268 13.3346 6.07507 13.3346 7.91602Z" stroke="#646464" stroke-width="1.5" stroke-linecap="round" stroke-linejoin="round"/>
</g>
<defs>
<clipPath id="clip0_2089_3478">
<rect width="20" height="20" fill="white"/>
</clipPath>
</defs>
</svg>
