<svg width="17" height="16" viewBox="0 0 17 16" fill="none" xmlns="http://www.w3.org/2000/svg">
<path d="M8.5012 10C6.38782 10 4.5084 11.0204 3.31187 12.604C3.05434 12.9448 2.92558 13.1152 2.92979 13.3455C2.93304 13.5235 3.04478 13.7479 3.18478 13.8578C3.36599 14 3.61712 14 4.11936 14H12.883C13.3853 14 13.6364 14 13.8176 13.8578C13.9576 13.7479 14.0694 13.5235 14.0726 13.3455C14.0768 13.1152 13.9481 12.9448 13.6905 12.604C12.494 11.0204 10.6146 10 8.5012 10Z" stroke="currentColor" stroke-width="1.5" stroke-linecap="round" stroke-linejoin="round"/>
<path d="M8.5012 8C10.1581 8 11.5012 6.65685 11.5012 5C11.5012 3.34315 10.1581 2 8.5012 2C6.84435 2 5.5012 3.34315 5.5012 5C5.5012 6.65685 6.84435 8 8.5012 8Z" stroke="currentColor" stroke-width="1.5" stroke-linecap="round" stroke-linejoin="round"/>
</svg>
