<svg width="209" height="40" viewBox="0 0 209 40" fill="none" xmlns="http://www.w3.org/2000/svg">
<rect width="209" height="40" rx="20" fill="#3445A3"/>
<g clip-path="url(#clip0_2947_20484)">
<rect x="8" y="8" width="24" height="24" rx="12" fill="white"/>
<path d="M10 20H30M10 20C10 25.5228 14.4772 30 20 30M10 20C10 14.4772 14.4772 10 20 10M30 20C30 25.5228 25.5228 30 20 30M30 20C30 14.4772 25.5228 10 20 10M20 10C22.5013 12.7384 23.9228 16.292 24 20C23.9228 23.708 22.5013 27.2616 20 30M20 10C17.4987 12.7384 16.0772 16.292 16 20C16.0772 23.708 17.4987 27.2616 20 30" stroke="#3F51B5" stroke-width="1.5" stroke-linecap="round" stroke-linejoin="round"/>
</g>
<path d="M41.2255 14.046H42.7655V22.768H47.3715V24H41.2255V14.046ZM51.7683 24.14C51.0777 24.14 50.471 23.9907 49.9483 23.692C49.4257 23.3933 49.015 22.9687 48.7163 22.418C48.427 21.8673 48.2823 21.228 48.2823 20.5V20.276C48.2823 19.576 48.413 18.9367 48.6743 18.358C48.945 17.7793 49.3277 17.322 49.8223 16.986C50.3263 16.6407 50.9143 16.468 51.5863 16.468C52.5663 16.468 53.327 16.79 53.8683 17.434C54.419 18.0687 54.6943 18.9693 54.6943 20.136V20.738H49.7663V20.78C49.8037 21.4333 50.0137 21.9607 50.3963 22.362C50.779 22.754 51.2597 22.95 51.8383 22.95C52.249 22.95 52.6083 22.8707 52.9163 22.712C53.2337 22.5533 53.5137 22.32 53.7563 22.012L54.5823 22.74C54.2743 23.1973 53.8823 23.5473 53.4063 23.79C52.9303 24.0233 52.3843 24.14 51.7683 24.14ZM53.2243 19.618V19.506C53.1963 18.918 53.0377 18.4653 52.7483 18.148C52.4683 17.8213 52.0763 17.658 51.5723 17.658C51.0963 17.658 50.6997 17.8307 50.3823 18.176C50.065 18.5213 49.8737 19.002 49.8083 19.618H53.2243ZM58.8972 26.912C58.3558 26.912 57.8285 26.7953 57.3152 26.562C56.8112 26.338 56.4285 26.0393 56.1672 25.666L56.8812 24.798C57.3945 25.4233 58.0385 25.736 58.8132 25.736C59.4105 25.736 59.8678 25.5727 60.1852 25.246C60.5118 24.9193 60.6752 24.4527 60.6752 23.846V23.286C60.1898 23.8553 59.5272 24.14 58.6872 24.14C58.1085 24.14 57.5998 23.9813 57.1612 23.664C56.7225 23.3467 56.3772 22.894 56.1252 22.306C55.8825 21.718 55.7612 21.032 55.7612 20.248V20.164C55.7612 19.4173 55.8825 18.7687 56.1252 18.218C56.3772 17.658 56.7225 17.2287 57.1612 16.93C57.6092 16.622 58.1225 16.468 58.7012 16.468C59.5785 16.468 60.2598 16.776 60.7452 17.392L60.8152 16.608H62.1592V23.804C62.1592 24.3733 62.0378 24.8913 61.7952 25.358C61.5525 25.8247 61.1838 26.198 60.6892 26.478C60.2038 26.7673 59.6065 26.912 58.8972 26.912ZM57.2452 20.388C57.2452 21.1813 57.4038 21.802 57.7212 22.25C58.0385 22.698 58.4865 22.922 59.0652 22.922C59.7932 22.922 60.3298 22.5953 60.6752 21.942V18.624C60.3298 17.9987 59.7978 17.686 59.0792 17.686C58.4912 17.686 58.0385 17.9147 57.7212 18.372C57.4038 18.8293 57.2452 19.5013 57.2452 20.388ZM66.2115 24.14C65.7355 24.14 65.3062 24.0467 64.9235 23.86C64.5502 23.664 64.2562 23.398 64.0415 23.062C63.8269 22.726 63.7195 22.3527 63.7195 21.942C63.7195 21.1673 64.0135 20.57 64.6015 20.15C65.1895 19.7207 66.0202 19.506 67.0935 19.506H68.2135V18.96C68.2135 18.5307 68.0922 18.1993 67.8495 17.966C67.6069 17.7233 67.2569 17.602 66.7995 17.602C66.3795 17.602 66.0342 17.7047 65.7635 17.91C65.4929 18.1153 65.3575 18.3767 65.3575 18.694H63.8735C63.8735 18.3113 63.9995 17.952 64.2515 17.616C64.5129 17.2707 64.8722 16.9953 65.3295 16.79C65.7869 16.5753 66.3002 16.468 66.8695 16.468C67.7375 16.468 68.4189 16.6873 68.9135 17.126C69.4175 17.5553 69.6789 18.148 69.6975 18.904V22.278C69.6975 22.9687 69.7862 23.5053 69.9635 23.888V24H68.4515C68.3769 23.8693 68.3115 23.6173 68.2555 23.244C67.7142 23.8413 67.0329 24.14 66.2115 24.14ZM65.2035 21.774C65.2035 22.1287 65.3202 22.4087 65.5535 22.614C65.7869 22.8193 66.0949 22.922 66.4775 22.922C66.8509 22.922 67.1962 22.8287 67.5135 22.642C67.8402 22.4553 68.0735 22.2173 68.2135 21.928V20.472H67.3035C65.9035 20.472 65.2035 20.906 65.2035 21.774ZM71.6437 13.5H73.1277V24H71.6437V13.5ZM77.6081 24.14C77.0387 24.14 76.5347 23.9813 76.0961 23.664C75.6574 23.3373 75.3167 22.88 75.0741 22.292C74.8314 21.704 74.7101 21.018 74.7101 20.234C74.7101 19.4873 74.8314 18.8293 75.0741 18.26C75.3167 17.6907 75.6574 17.252 76.0961 16.944C76.5347 16.6267 77.0434 16.468 77.6221 16.468C78.4434 16.468 79.1061 16.7573 79.6101 17.336V13.5H81.0801V24H79.7361L79.6661 23.202C79.1621 23.8273 78.4761 24.14 77.6081 24.14ZM76.1941 20.388C76.1941 21.1907 76.3481 21.816 76.6561 22.264C76.9734 22.7027 77.4121 22.922 77.9721 22.922C78.7094 22.922 79.2554 22.5907 79.6101 21.928V18.652C79.2647 18.008 78.7234 17.686 77.9861 17.686C77.4354 17.686 76.9967 17.9007 76.6701 18.33C76.3527 18.75 76.1941 19.352 76.1941 20.136V20.388ZM85.1744 24.14C84.6984 24.14 84.2691 24.0467 83.8864 23.86C83.5131 23.664 83.2191 23.398 83.0044 23.062C82.7897 22.726 82.6824 22.3527 82.6824 21.942C82.6824 21.1673 82.9764 20.57 83.5644 20.15C84.1524 19.7207 84.9831 19.506 86.0564 19.506H87.1764V18.96C87.1764 18.5307 87.0551 18.1993 86.8124 17.966C86.5697 17.7233 86.2197 17.602 85.7624 17.602C85.3424 17.602 84.9971 17.7047 84.7264 17.91C84.4557 18.1153 84.3204 18.3767 84.3204 18.694H82.8364C82.8364 18.3113 82.9624 17.952 83.2144 17.616C83.4757 17.2707 83.8351 16.9953 84.2924 16.79C84.7497 16.5753 85.2631 16.468 85.8324 16.468C86.7004 16.468 87.3817 16.6873 87.8764 17.126C88.3804 17.5553 88.6417 18.148 88.6604 18.904V22.278C88.6604 22.9687 88.7491 23.5053 88.9264 23.888V24H87.4144C87.3397 23.8693 87.2744 23.6173 87.2184 23.244C86.6771 23.8413 85.9957 24.14 85.1744 24.14ZM84.1664 21.774C84.1664 22.1287 84.2831 22.4087 84.5164 22.614C84.7497 22.8193 85.0577 22.922 85.4404 22.922C85.8137 22.922 86.1591 22.8287 86.4764 22.642C86.8031 22.4553 87.0364 22.2173 87.1764 21.928V20.472H86.2664C84.8664 20.472 84.1664 20.906 84.1664 21.774ZM93.0846 24.14C92.5153 24.14 92.0113 23.9813 91.5726 23.664C91.134 23.3373 90.7933 22.88 90.5506 22.292C90.308 21.704 90.1866 21.018 90.1866 20.234C90.1866 19.4873 90.308 18.8293 90.5506 18.26C90.7933 17.6907 91.134 17.252 91.5726 16.944C92.0113 16.6267 92.52 16.468 93.0986 16.468C93.92 16.468 94.5826 16.7573 95.0866 17.336V13.5H96.5566V24H95.2126L95.1426 23.202C94.6386 23.8273 93.9526 24.14 93.0846 24.14ZM91.6706 20.388C91.6706 21.1907 91.8246 21.816 92.1326 22.264C92.45 22.7027 92.8886 22.922 93.4486 22.922C94.186 22.922 94.732 22.5907 95.0866 21.928V18.652C94.7413 18.008 94.2 17.686 93.4626 17.686C92.912 17.686 92.4733 17.9007 92.1466 18.33C91.8293 18.75 91.6706 19.352 91.6706 20.136V20.388ZM98.509 16.608H99.993V24H98.509V16.608ZM98.397 14.662C98.397 14.4193 98.4716 14.2233 98.621 14.074C98.7796 13.9153 98.9896 13.836 99.251 13.836C99.5123 13.836 99.7176 13.9153 99.867 14.074C100.026 14.2327 100.105 14.4287 100.105 14.662C100.105 14.8953 100.026 15.0867 99.867 15.236C99.7176 15.3853 99.5123 15.46 99.251 15.46C98.9803 15.46 98.7703 15.3853 98.621 15.236C98.4716 15.0867 98.397 14.8953 98.397 14.662ZM101.897 13.5H103.367V19.702L103.955 18.988L106.139 16.608H107.931L105.103 19.674L108.225 24H106.517L104.123 20.71L103.367 21.494V24H101.897V13.5ZM110.362 24.014C110.092 24.014 109.863 23.9207 109.676 23.734C109.49 23.538 109.396 23.3047 109.396 23.034C109.396 22.7633 109.49 22.5347 109.676 22.348C109.863 22.1613 110.092 22.068 110.362 22.068C110.633 22.068 110.862 22.1613 111.048 22.348C111.244 22.5347 111.342 22.7633 111.342 23.034C111.342 23.3047 111.244 23.538 111.048 23.734C110.862 23.9207 110.633 24.014 110.362 24.014ZM113.534 16.608H115.018V24H113.534V16.608ZM113.422 14.662C113.422 14.4193 113.497 14.2233 113.646 14.074C113.805 13.9153 114.015 13.836 114.276 13.836C114.538 13.836 114.743 13.9153 114.892 14.074C115.051 14.2327 115.13 14.4287 115.13 14.662C115.13 14.8953 115.051 15.0867 114.892 15.236C114.743 15.3853 114.538 15.46 114.276 15.46C114.006 15.46 113.796 15.3853 113.646 15.236C113.497 15.0867 113.422 14.8953 113.422 14.662ZM116.909 16.608H118.323L118.365 17.476C118.775 16.804 119.354 16.468 120.101 16.468C120.353 16.468 120.544 16.5007 120.675 16.566L120.661 17.938C120.511 17.9007 120.297 17.882 120.017 17.882C119.195 17.882 118.654 18.2087 118.393 18.862V24H116.909V16.608Z" fill="white"/>
<defs>
<clipPath id="clip0_2947_20484">
<rect x="8" y="8" width="24" height="24" rx="12" fill="white"/>
</clipPath>
</defs>
</svg>
