<svg width="32" height="32" viewBox="0 0 32 32" fill="none" xmlns="http://www.w3.org/2000/svg">
<path d="M16 32C24.8366 32 32 24.8366 32 16C32 7.16344 24.8366 0 16 0C7.16344 0 0 7.16344 0 16C0 24.8366 7.16344 32 16 32Z" fill="#25D366"/>
<path fill-rule="evenodd" clip-rule="evenodd" d="M16.5276 24.9012H16.5237C14.9314 24.9007 13.3668 24.5012 11.9772 23.7432L6.93359 25.0662L8.28334 20.1361C7.45075 18.6932 7.01265 17.0565 7.01336 15.3797C7.01545 10.134 11.2835 5.86621 16.5276 5.86621C19.0727 5.86731 21.4615 6.85812 23.2577 8.65648C25.054 10.4548 26.0427 12.8451 26.0417 15.3872C26.0396 20.6317 21.7733 24.8991 16.5276 24.9012ZM12.2108 22.0208L12.4996 22.1922C13.7137 22.9126 15.1055 23.2939 16.5244 23.2944H16.5276C20.8862 23.2944 24.4335 19.7469 24.4353 15.3866C24.4361 13.2737 23.6144 11.2869 22.1214 9.79218C20.6284 8.29745 18.6429 7.47388 16.5308 7.47314C12.1689 7.47314 8.62144 11.0203 8.61971 15.3802C8.6191 16.8744 9.03717 18.3296 9.82875 19.5886L10.0168 19.8878L9.21791 22.8059L12.2108 22.0208ZM20.995 17.4354C21.1609 17.5155 21.2728 17.5696 21.3206 17.6494C21.38 17.7485 21.38 18.2245 21.182 18.7799C20.9839 19.3352 20.0341 19.842 19.5774 19.9102C19.1678 19.9715 18.6495 19.997 18.0801 19.816C17.7348 19.7065 17.292 19.5602 16.7248 19.3153C14.4962 18.3529 12.9901 16.1929 12.7055 15.7847C12.6855 15.7561 12.6716 15.7361 12.6638 15.7257L12.6619 15.7231C12.5361 15.5553 11.6931 14.4306 11.6931 13.2665C11.6931 12.1715 12.231 11.5975 12.4786 11.3333C12.4956 11.3152 12.5112 11.2986 12.5251 11.2833C12.743 11.0453 13.0006 10.9858 13.1591 10.9858C13.3175 10.9858 13.4762 10.9873 13.6147 10.9943C13.6318 10.9951 13.6496 10.995 13.6679 10.9949C13.8065 10.9941 13.9792 10.9931 14.1496 11.4023C14.2151 11.5598 14.311 11.7933 14.4122 12.0396C14.6167 12.5376 14.8427 13.0878 14.8825 13.1675C14.942 13.2865 14.9816 13.4252 14.9023 13.584C14.8904 13.6078 14.8794 13.6302 14.8689 13.6517C14.8094 13.7732 14.7656 13.8626 14.6646 13.9805C14.6249 14.0269 14.5838 14.0769 14.5428 14.1269C14.461 14.2265 14.3792 14.3261 14.308 14.397C14.189 14.5156 14.0651 14.6442 14.2038 14.8822C14.3425 15.1202 14.8196 15.8986 15.5263 16.529C16.2859 17.2066 16.9462 17.493 17.2809 17.6382C17.3462 17.6665 17.3992 17.6895 17.438 17.7089C17.6757 17.828 17.8143 17.808 17.953 17.6494C18.0917 17.4908 18.5473 16.9552 18.7057 16.7173C18.8642 16.4794 19.0227 16.519 19.2406 16.5983C19.4585 16.6777 20.6273 17.2528 20.865 17.3717C20.9114 17.395 20.9548 17.4159 20.995 17.4354Z" fill="#FDFDFD"/>
</svg>
