<svg width="24" height="24" viewBox="0 0 24 24" fill="none" xmlns="http://www.w3.org/2000/svg">
<path d="M21.6033 2.25H7.27756C7.16016 2.2499 7.04389 2.27293 6.93539 2.31777C6.82688 2.3626 6.72827 2.42837 6.64519 2.51132C6.5621 2.59426 6.49617 2.69276 6.45115 2.80119C6.40613 2.90962 6.38291 3.02585 6.38281 3.14325V7.125L14.6846 9.5625L22.4988 7.125V3.14325C22.4987 3.02579 22.4755 2.90949 22.4304 2.80102C22.3853 2.69254 22.3193 2.59401 22.2362 2.51105C22.153 2.4281 22.0543 2.36234 21.9457 2.31755C21.8371 2.27276 21.7208 2.2498 21.6033 2.25Z" fill="#41A5EE"/>
<path d="M22.4988 7.125H6.38281V12L14.6846 13.4625L22.4988 12V7.125Z" fill="#2B7CD3"/>
<path d="M6.38281 12V16.875L14.1963 17.85L22.4988 16.875V12H6.38281Z" fill="#185ABD"/>
<path d="M7.27756 21.75H21.6026C21.7201 21.7503 21.8365 21.7274 21.9452 21.6827C22.0539 21.6379 22.1527 21.5722 22.2359 21.4892C22.3192 21.4062 22.3852 21.3077 22.4303 21.1992C22.4754 21.0906 22.4987 20.9743 22.4988 20.8568V16.875H6.38281V20.8568C6.38291 20.9742 6.40613 21.0904 6.45115 21.1988C6.49617 21.3072 6.5621 21.4057 6.64519 21.4887C6.72827 21.5716 6.82688 21.6374 6.93539 21.6822C7.04389 21.7271 7.16016 21.7501 7.27756 21.75Z" fill="#103F91"/>
<path opacity="0.1" d="M12.3243 6.15039H6.38281V18.3379H12.3243C12.5611 18.3367 12.7878 18.2423 12.9554 18.0751C13.1231 17.9079 13.218 17.6814 13.2198 17.4446V7.04364C13.218 6.80689 13.1231 6.58038 12.9554 6.41318C12.7878 6.24598 12.5611 6.15157 12.3243 6.15039Z" fill="black"/>
<path opacity="0.2" d="M11.8361 6.63672H6.38281V18.8242H11.8361C12.0728 18.823 12.2996 18.7286 12.4672 18.5614C12.6348 18.3942 12.7298 18.1677 12.7316 17.931V7.52997C12.7298 7.29322 12.6348 7.06671 12.4672 6.89951C12.2996 6.73231 12.0728 6.6379 11.8361 6.63672Z" fill="black"/>
<path opacity="0.2" d="M11.8361 6.63672H6.38281V17.8492H11.8361C12.0728 17.848 12.2996 17.7536 12.4672 17.5864C12.6348 17.4192 12.7298 17.1927 12.7316 16.956V7.52997C12.7298 7.29322 12.6348 7.06671 12.4672 6.89951C12.2996 6.73231 12.0728 6.6379 11.8361 6.63672Z" fill="black"/>
<path opacity="0.2" d="M11.3478 6.63672H6.38281V17.8492H11.3478C11.5846 17.848 11.8113 17.7536 11.9789 17.5864C12.1466 17.4192 12.2415 17.1927 12.2433 16.956V7.52997C12.2415 7.29322 12.1466 7.06671 11.9789 6.89951C11.8113 6.73231 11.5846 6.6379 11.3478 6.63672Z" fill="black"/>
<path d="M2.3955 6.63672H11.349C11.5862 6.63652 11.8137 6.73049 11.9816 6.89799C12.1496 7.06549 12.2441 7.2928 12.2445 7.52997V16.4685C12.2441 16.7056 12.1496 16.933 11.9816 17.1004C11.8137 17.2679 11.5862 17.3619 11.349 17.3617H2.3955C2.27804 17.3619 2.16168 17.339 2.05309 17.2942C1.9445 17.2494 1.84581 17.1836 1.76264 17.1007C1.67948 17.0177 1.61348 16.9192 1.56841 16.8107C1.52334 16.7022 1.5001 16.5859 1.5 16.4685V7.52997C1.5001 7.41251 1.52334 7.29621 1.56841 7.18773C1.61348 7.07926 1.67948 6.98073 1.76264 6.89777C1.84581 6.81481 1.9445 6.74906 2.05309 6.70427C2.16168 6.65948 2.27804 6.63652 2.3955 6.63672Z" fill="url(#paint0_linear_2789_19962)"/>
<path d="M5.17313 13.4908C5.19038 13.6288 5.20237 13.7488 5.20762 13.8516H5.22862C5.23612 13.7541 5.25262 13.6363 5.27737 13.4991C5.30212 13.3618 5.32387 13.2456 5.34412 13.1503L6.28538 9.09509H7.50338L8.47837 13.0896C8.53517 13.3367 8.57575 13.5872 8.59987 13.8396H8.61637C8.63429 13.5939 8.66811 13.3497 8.71763 13.1083L9.49688 9.08984H10.6046L9.23663 14.9008H7.94137L7.01363 11.0563C6.98662 10.9453 6.95613 10.8008 6.92213 10.6228C6.88813 10.4448 6.86712 10.3148 6.85912 10.2328H6.84337C6.83287 10.3273 6.81188 10.4676 6.78038 10.6536C6.74888 10.8403 6.72412 10.9776 6.70537 11.0676L5.83313 14.9031H4.51613L3.14062 9.09509H4.26562L5.11388 13.1586C5.13919 13.2683 5.15897 13.3792 5.17313 13.4908Z" fill="white"/>
<defs>
<linearGradient id="paint0_linear_2789_19962" x1="3.3705" y1="5.93472" x2="10.374" y2="18.0637" gradientUnits="userSpaceOnUse">
<stop stop-color="#2368C4"/>
<stop offset="0.5" stop-color="#1A5DBE"/>
<stop offset="1" stop-color="#1146AC"/>
</linearGradient>
</defs>
</svg>
